<svg width="80" height="113" viewBox="0 0 80 113" fill="none" xmlns="http://www.w3.org/2000/svg">
  <style>
    /* Default: Light Mode - Red P */
    .poly-p { fill: #D6001C; }

    /* Dark Mode - White P */
    @media (prefers-color-scheme: dark) {
      .poly-p { fill: #FFFFFF; }
    }
  </style>
  <path class="poly-p" d="M44.847 81.842C38.505 81.842 32.918 80.332 28.086 77.312C23.254 74.292 19.4287 70.366 16.61 65.534V112.495H0V1.35903H14.647V15.553C17.667 10.8217 21.593 7.0467 26.425 4.22803C31.257 1.40936 36.6427 0 42.582 0C48.018 0 53.001 1.10736 57.531 3.32202C62.061 5.43603 65.987 8.40569 69.309 12.231C72.631 16.0564 75.198 20.4354 77.01 25.368C78.9227 30.2 79.879 35.334 79.879 40.77C79.879 48.32 78.369 55.2157 75.349 61.457C72.4297 67.6984 68.3023 72.6814 62.967 76.406C57.7323 80.03 51.6923 81.842 44.847 81.842ZM39.411 67.648C42.9343 67.648 46.1053 66.893 48.924 65.383C51.8433 63.873 54.3097 61.8597 56.323 59.343C58.437 56.8264 60.0477 53.9574 61.155 50.736C62.2623 47.5147 62.816 44.1927 62.816 40.77C62.816 37.146 62.212 33.7234 61.004 30.502C59.796 27.2807 58.0343 24.462 55.719 22.046C53.5043 19.63 50.887 17.7174 47.867 16.308C44.9477 14.8987 41.7263 14.194 38.203 14.194C36.089 14.194 33.8743 14.5967 31.559 15.402C29.2437 16.2074 27.0793 17.3147 25.066 18.724C23.0527 20.1334 21.291 21.7944 19.781 23.707C18.271 25.6197 17.214 27.633 16.61 29.747V50.434C18.0193 53.6554 19.8817 56.5747 22.197 59.192C24.5123 61.7087 27.18 63.7724 30.2 65.383C33.22 66.893 36.2903 67.648 39.411 67.648Z" />
</svg>
