<svg width="1240" height="200" viewBox="0 0 1240 200" fill="none" xmlns="http://www.w3.org/2000/svg">
<path d="M181.184 153.92C172.448 153.92 164.752 151.84 158.096 147.68C151.44 143.52 146.171 138.112 142.288 131.456V196.144H119.408V43.056H139.584V62.608C143.744 56.0907 149.152 50.8907 155.808 47.008C162.464 43.1253 169.883 41.184 178.064 41.184C185.552 41.184 192.416 42.7093 198.656 45.76C204.896 48.672 210.304 52.7627 214.88 58.032C219.456 63.3013 222.992 69.3333 225.488 76.128C228.123 82.784 229.44 89.856 229.44 97.344C229.44 107.744 227.36 117.243 223.2 125.84C219.179 134.437 213.494 141.301 206.144 146.432C198.934 151.424 190.614 153.92 181.184 153.92ZM173.696 134.368C178.55 134.368 182.918 133.328 186.8 131.248C190.822 129.168 194.219 126.395 196.992 122.928C199.904 119.461 202.123 115.509 203.648 111.072C205.174 106.635 205.936 102.059 205.936 97.344C205.936 92.352 205.104 87.6373 203.44 83.2C201.776 78.7627 199.35 74.88 196.16 71.552C193.11 68.224 189.504 65.5893 185.344 63.648C181.323 61.7067 176.886 60.736 172.032 60.736C169.12 60.736 166.07 61.2907 162.88 62.4C159.691 63.5093 156.71 65.0347 153.936 66.976C151.163 68.9173 148.736 71.2053 146.656 73.84C144.576 76.4747 143.12 79.248 142.288 82.16V110.656C144.23 115.093 146.795 119.115 149.984 122.72C153.174 126.187 156.848 129.029 161.008 131.248C165.168 133.328 169.398 134.368 173.696 134.368ZM297.098 153.92C288.5 153.92 280.804 152.464 274.01 149.552C267.215 146.501 261.322 142.341 256.33 137.072C251.476 131.803 247.732 125.84 245.098 119.184C242.463 112.389 241.146 105.179 241.146 97.552C241.146 89.9253 242.463 82.7147 245.098 75.92C247.732 69.1253 251.476 63.1627 256.33 58.032C261.322 52.7627 267.215 48.672 274.01 45.76C280.943 42.7093 288.639 41.184 297.098 41.184C305.556 41.184 313.183 42.7093 319.978 45.76C326.911 48.672 332.804 52.7627 337.658 58.032C342.65 63.1627 346.463 69.1253 349.098 75.92C351.732 82.7147 353.05 89.9253 353.05 97.552C353.05 105.179 351.732 112.389 349.098 119.184C346.463 125.84 342.65 131.803 337.658 137.072C332.804 142.341 326.911 146.501 319.978 149.552C313.183 152.464 305.556 153.92 297.098 153.92ZM264.65 97.76C264.65 104.693 266.106 110.933 269.018 116.48C271.93 122.027 275.812 126.395 280.666 129.584C285.519 132.773 290.996 134.368 297.098 134.368C303.06 134.368 308.468 132.773 313.322 129.584C318.314 126.256 322.266 121.819 325.178 116.272C328.09 110.587 329.546 104.347 329.546 97.552C329.546 90.6187 328.09 84.3787 325.178 78.832C322.266 73.2853 318.314 68.9173 313.322 65.728C308.468 62.4 303.06 60.736 297.098 60.736C290.996 60.736 285.519 62.4 280.666 65.728C275.812 69.056 271.93 73.4933 269.018 79.04C266.106 84.448 264.65 90.688 264.65 97.76ZM371.751 -7.62939e-06H394.631V120.432C394.631 125.979 395.463 129.515 397.127 131.04C398.791 132.565 400.871 133.328 403.367 133.328C406.14 133.328 408.705 133.051 411.063 132.496C413.559 131.941 415.708 131.248 417.511 130.416L420.839 148.512C417.511 149.899 413.559 151.077 408.983 152.048C404.407 153.019 400.316 153.504 396.711 153.504C388.945 153.504 382.844 151.355 378.407 147.056C373.969 142.619 371.751 136.517 371.751 128.752V-7.62939e-06ZM431.377 177.424C433.457 177.701 435.468 177.979 437.409 178.256C439.489 178.672 441.153 178.88 442.401 178.88C444.759 178.88 446.769 178.117 448.433 176.592C450.236 175.205 452.039 172.571 453.841 168.688C455.644 164.805 457.863 159.189 460.497 151.84L415.777 43.056H439.697L472.977 128.544L502.513 43.056H524.561L475.265 177.008C473.74 181.029 471.521 184.704 468.609 188.032C465.697 191.499 462.092 194.203 457.793 196.144C453.495 198.085 448.433 199.056 442.609 199.056C440.945 199.056 439.212 198.917 437.409 198.64C435.607 198.363 433.596 197.947 431.377 197.392V177.424ZM600.111 146.224C598.17 147.195 595.743 148.235 592.831 149.344C589.919 150.453 586.591 151.424 582.847 152.256C579.242 153.088 575.498 153.504 571.615 153.504C566.9 153.504 562.532 152.672 558.511 151.008C554.49 149.344 551.231 146.709 548.735 143.104C546.378 139.36 545.199 134.576 545.199 128.752V60.736H530.847V43.056H545.199V7.27999H568.079V43.056H591.791V60.736H568.079V121.472C568.356 125.216 569.535 127.989 571.615 129.792C573.834 131.595 576.538 132.496 579.727 132.496C582.916 132.496 585.967 131.941 588.879 130.832C591.791 129.723 593.94 128.821 595.327 128.128L600.111 146.224ZM662.032 153.92C653.574 153.92 645.878 152.464 638.944 149.552C632.15 146.501 626.256 142.411 621.264 137.28C616.272 132.011 612.39 126.048 609.616 119.392C606.982 112.597 605.664 105.387 605.664 97.76C605.664 87.4987 608.022 78.1387 612.736 69.68C617.451 61.0827 624.038 54.2187 632.496 49.088C640.955 43.8187 650.87 41.184 662.24 41.184C673.611 41.184 683.387 43.8187 691.568 49.088C699.888 54.2187 706.336 61.0133 710.912 69.472C715.488 77.9307 717.776 87.0133 717.776 96.72C717.776 98.384 717.707 99.9787 717.568 101.504C717.43 102.891 717.291 104.069 717.152 105.04H630C630.416 111.419 632.15 117.035 635.2 121.888C638.39 126.603 642.411 130.347 647.264 133.12C652.118 135.755 657.318 137.072 662.864 137.072C668.966 137.072 674.72 135.547 680.128 132.496C685.675 129.445 689.419 125.424 691.36 120.432L710.912 126.048C708.555 131.317 704.95 136.101 700.096 140.4C695.382 144.56 689.766 147.888 683.248 150.384C676.731 152.741 669.659 153.92 662.032 153.92ZM629.376 89.856H695.104C694.688 83.616 692.886 78.1387 689.696 73.424C686.646 68.5707 682.694 64.8267 677.84 62.192C673.126 59.4187 667.856 58.032 662.032 58.032C656.347 58.032 651.078 59.4187 646.224 62.192C641.51 64.8267 637.627 68.5707 634.576 73.424C631.526 78.1387 629.792 83.616 629.376 89.856ZM783.935 153.92C775.477 153.92 767.781 152.464 760.847 149.552C754.053 146.501 748.159 142.341 743.167 137.072C738.175 131.803 734.293 125.771 731.519 118.976C728.885 112.181 727.567 104.971 727.567 97.344C727.567 87.0827 729.855 77.7227 734.431 69.264C739.146 60.8053 745.663 54.0107 753.983 48.88C762.442 43.7493 772.426 41.184 783.935 41.184C795.029 41.184 804.666 43.68 812.847 48.672C821.167 53.5253 827.269 60.0427 831.151 68.224L808.895 75.296C806.399 70.72 802.863 67.184 798.287 64.688C793.85 62.0533 788.927 60.736 783.519 60.736C777.418 60.736 771.871 62.3307 766.879 65.52C762.026 68.5707 758.143 72.8693 755.231 78.416C752.458 83.824 751.071 90.1333 751.071 97.344C751.071 104.277 752.527 110.587 755.439 116.272C758.351 121.819 762.234 126.256 767.087 129.584C772.079 132.773 777.626 134.368 783.727 134.368C787.471 134.368 791.077 133.744 794.543 132.496C798.149 131.109 801.269 129.307 803.903 127.088C806.538 124.731 808.41 122.165 809.519 119.392L831.983 126.048C829.626 131.456 826.09 136.24 821.375 140.4C816.799 144.56 811.322 147.888 804.943 150.384C798.703 152.741 791.701 153.92 783.935 153.92ZM946.579 151.84H923.699V90.896C923.699 81.0507 921.896 73.7013 918.291 68.848C914.686 63.9947 909.624 61.568 903.107 61.568C899.086 61.568 894.926 62.6773 890.627 64.896C886.328 67.1147 882.515 70.1653 879.187 74.048C875.859 77.792 873.432 82.16 871.907 87.152V151.84H849.027V-7.62939e-06H871.907V64.896C876.067 57.5467 881.752 51.792 888.963 47.632C896.174 43.3333 903.939 41.184 912.259 41.184C919.054 41.184 924.67 42.3627 929.107 44.72C933.544 47.0773 937.011 50.336 939.507 54.496C942.142 58.5173 943.944 63.232 944.915 68.64C946.024 73.9093 946.579 79.5253 946.579 85.488V151.84ZM1068.89 151.84H1046.01V90.896C1046.01 80.7733 1044.34 73.3547 1041.02 68.64C1037.83 63.9253 1033.04 61.568 1026.66 61.568C1022.23 61.568 1017.79 62.6773 1013.35 64.896C1009.05 67.1147 1005.17 70.1653 1001.7 74.048C998.238 77.792 995.742 82.16 994.216 87.152V151.84H971.336V43.056H992.136V64.896C994.91 60.0427 998.515 55.8827 1002.95 52.416C1007.53 48.8107 1012.66 46.0373 1018.34 44.096C1024.03 42.1547 1030.06 41.184 1036.44 41.184C1042.96 41.184 1048.3 42.3627 1052.46 44.72C1056.75 47.0773 1060.08 50.336 1062.44 54.496C1064.94 58.5173 1066.6 63.232 1067.43 68.64C1068.4 73.9093 1068.89 79.5253 1068.89 85.488V151.84ZM1093.65 151.84V43.056H1116.53V151.84H1093.65ZM1093.65 25.168V-7.62939e-06H1116.53V25.168H1093.65ZM1191.52 153.92C1183.06 153.92 1175.36 152.464 1168.43 149.552C1161.63 146.501 1155.74 142.341 1150.75 137.072C1145.76 131.803 1141.87 125.771 1139.1 118.976C1136.47 112.181 1135.15 104.971 1135.15 97.344C1135.15 87.0827 1137.44 77.7227 1142.01 69.264C1146.73 60.8053 1153.24 54.0107 1161.56 48.88C1170.02 43.7493 1180.01 41.184 1191.52 41.184C1202.61 41.184 1212.25 43.68 1220.43 48.672C1228.75 53.5253 1234.85 60.0427 1238.73 68.224L1216.48 75.296C1213.98 70.72 1210.44 67.184 1205.87 64.688C1201.43 62.0533 1196.51 60.736 1191.1 60.736C1185 60.736 1179.45 62.3307 1174.46 65.52C1169.61 68.5707 1165.72 72.8693 1162.81 78.416C1160.04 83.824 1158.65 90.1333 1158.65 97.344C1158.65 104.277 1160.11 110.587 1163.02 116.272C1165.93 121.819 1169.82 126.256 1174.67 129.584C1179.66 132.773 1185.21 134.368 1191.31 134.368C1195.05 134.368 1198.66 133.744 1202.12 132.496C1205.73 131.109 1208.85 129.307 1211.48 127.088C1214.12 124.731 1215.99 122.165 1217.1 119.392L1239.56 126.048C1237.21 131.456 1233.67 136.24 1228.96 140.4C1224.38 144.56 1218.9 147.888 1212.52 150.384C1206.28 152.741 1199.28 153.92 1191.52 153.92Z" fill="white"/>
<path d="M81.8962 163.039C81.9735 163.194 82.3215 163.812 82.9402 164.895C83.4815 165.978 84.0228 167.37 84.5642 169.071C85.0282 170.695 85.2602 172.59 85.2602 174.755C85.2602 176.766 84.8735 178.622 84.1002 180.323C83.3268 182.024 82.2055 183.378 80.7362 184.383C79.1895 185.388 77.3722 185.891 75.2842 185.891H27.8402V194.475H24.3602V185.891H3.59617V181.947H24.3602V167.679H27.8402V181.947H74.7042C76.9468 181.792 78.6482 180.942 79.8082 179.395C80.9682 177.848 81.5482 176.07 81.5482 174.059C81.5482 171.507 81.1228 169.342 80.2722 167.563C79.3442 165.707 78.8028 164.702 78.6482 164.547L81.8962 163.039ZM84.6802 106.301V110.245H51.0402C43.1522 110.245 37.1975 111.598 33.1762 114.305C29.1548 117.012 27.1442 120.956 27.1442 126.137C27.1442 129.617 28.0335 133.058 29.8122 136.461C31.5135 139.786 33.8722 142.686 36.8882 145.161C39.8268 147.558 43.1908 149.298 46.9802 150.381H84.6802V154.325H0.000174742V150.381H39.4402C34.5682 147.906 30.7015 144.426 27.8402 139.941C24.9015 135.378 23.4322 130.545 23.4322 125.441C23.4322 122.193 24.0508 119.409 25.2882 117.089C26.4482 114.692 28.2268 112.72 30.6242 111.173C32.9442 109.549 35.7668 108.35 39.0922 107.577C42.4175 106.726 46.2455 106.301 50.5762 106.301H84.6802ZM85.8402 64.9126C85.8402 68.9339 85.0282 72.7619 83.4042 76.3966C81.7028 79.9539 79.4215 83.0859 76.5602 85.7926C73.6215 88.4219 70.2575 90.5099 66.4682 92.0566C62.6015 93.5259 58.5028 94.2606 54.1722 94.2606C48.5268 94.2606 43.3842 92.9846 38.7442 90.4326C34.1042 87.8806 30.3922 84.4393 27.6082 80.1086C24.8242 75.7006 23.4322 70.7899 23.4322 65.3766C23.4322 59.8086 24.8628 54.8593 27.7242 50.5286C30.5082 46.1206 34.2588 42.6019 38.9762 39.9726C43.6162 37.3433 48.7975 36.0286 54.5202 36.0286C54.8295 36.0286 55.1388 36.0286 55.4482 36.0286C55.7575 36.0286 56.0668 36.0673 56.3762 36.1446V90.2006C61.2482 89.8139 65.6562 88.4606 69.6002 86.1406C73.5442 83.7433 76.6762 80.6886 78.9962 76.9766C81.3162 73.1873 82.4762 69.0886 82.4762 64.6806C82.4762 60.2726 81.3548 56.1353 79.1122 52.2686C76.7922 48.4019 73.8535 45.6566 70.2962 44.0326L71.2242 40.4366C74.0082 41.5966 76.5215 43.4139 78.7642 45.8886C81.0068 48.3633 82.7468 51.2633 83.9842 54.5886C85.2215 57.8366 85.8402 61.2779 85.8402 64.9126ZM53.0122 90.3166V39.9726C47.9082 40.2819 43.4228 41.5966 39.5562 43.9166C35.6122 46.1593 32.5188 49.1366 30.2762 52.8486C28.0335 56.5606 26.9122 60.6979 26.9122 65.2606C26.9122 69.7459 28.0335 73.8446 30.2762 77.5566C32.5188 81.1913 35.6122 84.1686 39.5562 86.4886C43.5002 88.7313 47.9855 90.0073 53.0122 90.3166Z" fill="white"/>
</svg>
