<svg width="1269" height="207" viewBox="0 0 1269 207" fill="none" xmlns="http://www.w3.org/2000/svg">
<path d="M181.184 153.92C172.448 153.92 164.752 151.84 158.096 147.68C151.44 143.52 146.171 138.112 142.288 131.456V196.144H119.408V43.056H139.584V62.608C143.744 56.0907 149.152 50.8907 155.808 47.008C162.464 43.1253 169.883 41.184 178.064 41.184C185.552 41.184 192.416 42.7093 198.656 45.76C204.896 48.672 210.304 52.7627 214.88 58.032C219.456 63.3013 222.992 69.3333 225.488 76.128C228.123 82.784 229.44 89.856 229.44 97.344C229.44 107.744 227.36 117.243 223.2 125.84C219.179 134.437 213.494 141.301 206.144 146.432C198.934 151.424 190.614 153.92 181.184 153.92ZM173.696 134.368C178.55 134.368 182.918 133.328 186.8 131.248C190.822 129.168 194.219 126.395 196.992 122.928C199.904 119.461 202.123 115.509 203.648 111.072C205.174 106.635 205.936 102.059 205.936 97.344C205.936 92.352 205.104 87.6373 203.44 83.2C201.776 78.7627 199.35 74.88 196.16 71.552C193.11 68.224 189.504 65.5893 185.344 63.648C181.323 61.7067 176.886 60.736 172.032 60.736C169.12 60.736 166.07 61.2907 162.88 62.4C159.691 63.5093 156.71 65.0347 153.936 66.976C151.163 68.9173 148.736 71.2053 146.656 73.84C144.576 76.4747 143.12 79.248 142.288 82.16V110.656C144.23 115.093 146.795 119.115 149.984 122.72C153.174 126.187 156.848 129.029 161.008 131.248C165.168 133.328 169.398 134.368 173.696 134.368ZM297.098 153.92C288.5 153.92 280.804 152.464 274.01 149.552C267.215 146.501 261.322 142.341 256.33 137.072C251.476 131.803 247.732 125.84 245.098 119.184C242.463 112.389 241.146 105.179 241.146 97.552C241.146 89.9253 242.463 82.7147 245.098 75.92C247.732 69.1253 251.476 63.1627 256.33 58.032C261.322 52.7627 267.215 48.672 274.01 45.76C280.943 42.7093 288.639 41.184 297.098 41.184C305.556 41.184 313.183 42.7093 319.978 45.76C326.911 48.672 332.804 52.7627 337.658 58.032C342.65 63.1627 346.463 69.1253 349.098 75.92C351.732 82.7147 353.05 89.9253 353.05 97.552C353.05 105.179 351.732 112.389 349.098 119.184C346.463 125.84 342.65 131.803 337.658 137.072C332.804 142.341 326.911 146.501 319.978 149.552C313.183 152.464 305.556 153.92 297.098 153.92ZM264.65 97.76C264.65 104.693 266.106 110.933 269.018 116.48C271.93 122.027 275.812 126.395 280.666 129.584C285.519 132.773 290.996 134.368 297.098 134.368C303.06 134.368 308.468 132.773 313.322 129.584C318.314 126.256 322.266 121.819 325.178 116.272C328.09 110.587 329.546 104.347 329.546 97.552C329.546 90.6187 328.09 84.3787 325.178 78.832C322.266 73.2853 318.314 68.9173 313.322 65.728C308.468 62.4 303.06 60.736 297.098 60.736C290.996 60.736 285.519 62.4 280.666 65.728C275.812 69.056 271.93 73.4933 269.018 79.04C266.106 84.448 264.65 90.688 264.65 97.76ZM371.751 -7.62939e-06H394.631V120.432C394.631 125.979 395.463 129.515 397.127 131.04C398.791 132.565 400.871 133.328 403.367 133.328C406.14 133.328 408.705 133.051 411.063 132.496C413.559 131.941 415.708 131.248 417.511 130.416L420.839 148.512C417.511 149.899 413.559 151.077 408.983 152.048C404.407 153.019 400.316 153.504 396.711 153.504C388.945 153.504 382.844 151.355 378.407 147.056C373.969 142.619 371.751 136.517 371.751 128.752V-7.62939e-06ZM431.377 177.424C433.457 177.701 435.468 177.979 437.409 178.256C439.489 178.672 441.153 178.88 442.401 178.88C444.759 178.88 446.769 178.117 448.433 176.592C450.236 175.205 452.039 172.571 453.841 168.688C455.644 164.805 457.863 159.189 460.497 151.84L415.777 43.056H439.697L472.977 128.544L502.513 43.056H524.561L475.265 177.008C473.74 181.029 471.521 184.704 468.609 188.032C465.697 191.499 462.092 194.203 457.793 196.144C453.495 198.085 448.433 199.056 442.609 199.056C440.945 199.056 439.212 198.917 437.409 198.64C435.607 198.363 433.596 197.947 431.377 197.392V177.424ZM600.111 146.224C598.17 147.195 595.743 148.235 592.831 149.344C589.919 150.453 586.591 151.424 582.847 152.256C579.242 153.088 575.498 153.504 571.615 153.504C566.9 153.504 562.532 152.672 558.511 151.008C554.49 149.344 551.231 146.709 548.735 143.104C546.378 139.36 545.199 134.576 545.199 128.752V60.736H530.847V43.056H545.199V7.27999H568.079V43.056H591.791V60.736H568.079V121.472C568.356 125.216 569.535 127.989 571.615 129.792C573.834 131.595 576.538 132.496 579.727 132.496C582.916 132.496 585.967 131.941 588.879 130.832C591.791 129.723 593.94 128.821 595.327 128.128L600.111 146.224ZM662.032 153.92C653.574 153.92 645.878 152.464 638.944 149.552C632.15 146.501 626.256 142.411 621.264 137.28C616.272 132.011 612.39 126.048 609.616 119.392C606.982 112.597 605.664 105.387 605.664 97.76C605.664 87.4987 608.022 78.1387 612.736 69.68C617.451 61.0827 624.038 54.2187 632.496 49.088C640.955 43.8187 650.87 41.184 662.24 41.184C673.611 41.184 683.387 43.8187 691.568 49.088C699.888 54.2187 706.336 61.0133 710.912 69.472C715.488 77.9307 717.776 87.0133 717.776 96.72C717.776 98.384 717.707 99.9787 717.568 101.504C717.43 102.891 717.291 104.069 717.152 105.04H630C630.416 111.419 632.15 117.035 635.2 121.888C638.39 126.603 642.411 130.347 647.264 133.12C652.118 135.755 657.318 137.072 662.864 137.072C668.966 137.072 674.72 135.547 680.128 132.496C685.675 129.445 689.419 125.424 691.36 120.432L710.912 126.048C708.555 131.317 704.95 136.101 700.096 140.4C695.382 144.56 689.766 147.888 683.248 150.384C676.731 152.741 669.659 153.92 662.032 153.92ZM629.376 89.856H695.104C694.688 83.616 692.886 78.1387 689.696 73.424C686.646 68.5707 682.694 64.8267 677.84 62.192C673.126 59.4187 667.856 58.032 662.032 58.032C656.347 58.032 651.078 59.4187 646.224 62.192C641.51 64.8267 637.627 68.5707 634.576 73.424C631.526 78.1387 629.792 83.616 629.376 89.856ZM783.935 153.92C775.477 153.92 767.781 152.464 760.847 149.552C754.053 146.501 748.159 142.341 743.167 137.072C738.175 131.803 734.293 125.771 731.519 118.976C728.885 112.181 727.567 104.971 727.567 97.344C727.567 87.0827 729.855 77.7227 734.431 69.264C739.146 60.8053 745.663 54.0107 753.983 48.88C762.442 43.7493 772.426 41.184 783.935 41.184C795.029 41.184 804.666 43.68 812.847 48.672C821.167 53.5253 827.269 60.0427 831.151 68.224L808.895 75.296C806.399 70.72 802.863 67.184 798.287 64.688C793.85 62.0533 788.927 60.736 783.519 60.736C777.418 60.736 771.871 62.3307 766.879 65.52C762.026 68.5707 758.143 72.8693 755.231 78.416C752.458 83.824 751.071 90.1333 751.071 97.344C751.071 104.277 752.527 110.587 755.439 116.272C758.351 121.819 762.234 126.256 767.087 129.584C772.079 132.773 777.626 134.368 783.727 134.368C787.471 134.368 791.077 133.744 794.543 132.496C798.149 131.109 801.269 129.307 803.903 127.088C806.538 124.731 808.41 122.165 809.519 119.392L831.983 126.048C829.626 131.456 826.09 136.24 821.375 140.4C816.799 144.56 811.322 147.888 804.943 150.384C798.703 152.741 791.701 153.92 783.935 153.92ZM946.579 151.84H923.699V90.896C923.699 81.0507 921.896 73.7013 918.291 68.848C914.686 63.9947 909.624 61.568 903.107 61.568C899.086 61.568 894.926 62.6773 890.627 64.896C886.328 67.1147 882.515 70.1653 879.187 74.048C875.859 77.792 873.432 82.16 871.907 87.152V151.84H849.027V-7.62939e-06H871.907V64.896C876.067 57.5467 881.752 51.792 888.963 47.632C896.174 43.3333 903.939 41.184 912.259 41.184C919.054 41.184 924.67 42.3627 929.107 44.72C933.544 47.0773 937.011 50.336 939.507 54.496C942.142 58.5173 943.944 63.232 944.915 68.64C946.024 73.9093 946.579 79.5253 946.579 85.488V151.84ZM1068.89 151.84H1046.01V90.896C1046.01 80.7733 1044.34 73.3547 1041.02 68.64C1037.83 63.9253 1033.04 61.568 1026.66 61.568C1022.23 61.568 1017.79 62.6773 1013.35 64.896C1009.05 67.1147 1005.17 70.1653 1001.7 74.048C998.238 77.792 995.742 82.16 994.216 87.152V151.84H971.336V43.056H992.136V64.896C994.91 60.0427 998.515 55.8827 1002.95 52.416C1007.53 48.8107 1012.66 46.0373 1018.34 44.096C1024.03 42.1547 1030.06 41.184 1036.44 41.184C1042.96 41.184 1048.3 42.3627 1052.46 44.72C1056.75 47.0773 1060.08 50.336 1062.44 54.496C1064.94 58.5173 1066.6 63.232 1067.43 68.64C1068.4 73.9093 1068.89 79.5253 1068.89 85.488V151.84ZM1093.65 151.84V43.056H1116.53V151.84H1093.65ZM1093.65 25.168V-7.62939e-06H1116.53V25.168H1093.65ZM1191.52 153.92C1183.06 153.92 1175.36 152.464 1168.43 149.552C1161.63 146.501 1155.74 142.341 1150.75 137.072C1145.76 131.803 1141.87 125.771 1139.1 118.976C1136.47 112.181 1135.15 104.971 1135.15 97.344C1135.15 87.0827 1137.44 77.7227 1142.01 69.264C1146.73 60.8053 1153.24 54.0107 1161.56 48.88C1170.02 43.7493 1180.01 41.184 1191.52 41.184C1202.61 41.184 1212.25 43.68 1220.43 48.672C1228.75 53.5253 1234.85 60.0427 1238.73 68.224L1216.48 75.296C1213.98 70.72 1210.44 67.184 1205.87 64.688C1201.43 62.0533 1196.51 60.736 1191.1 60.736C1185 60.736 1179.45 62.3307 1174.46 65.52C1169.61 68.5707 1165.72 72.8693 1162.81 78.416C1160.04 83.824 1158.65 90.1333 1158.65 97.344C1158.65 104.277 1160.11 110.587 1163.02 116.272C1165.93 121.819 1169.82 126.256 1174.67 129.584C1179.66 132.773 1185.21 134.368 1191.31 134.368C1195.05 134.368 1198.66 133.744 1202.12 132.496C1205.73 131.109 1208.85 129.307 1211.48 127.088C1214.12 124.731 1215.99 122.165 1217.1 119.392L1239.56 126.048C1237.21 131.456 1233.67 136.24 1228.96 140.4C1224.38 144.56 1218.9 147.888 1212.52 150.384C1206.28 152.741 1199.28 153.92 1191.52 153.92Z" fill="white"/>
<path d="M81.8962 162.039C81.9735 162.194 82.3215 162.812 82.9402 163.895C83.4815 164.978 84.0228 166.37 84.5642 168.071C85.0282 169.695 85.2602 171.59 85.2602 173.755C85.2602 175.766 84.8735 177.622 84.1002 179.323C83.3268 181.024 82.2055 182.378 80.7362 183.383C79.1895 184.388 77.3722 184.891 75.2842 184.891H27.8402V193.475H24.3602V184.891H3.59617V180.947H24.3602V166.679H27.8402V180.947H74.7042C76.9468 180.792 78.6482 179.942 79.8082 178.395C80.9682 176.848 81.5482 175.07 81.5482 173.059C81.5482 170.507 81.1228 168.342 80.2722 166.563C79.3442 164.707 78.8028 163.702 78.6482 163.547L81.8962 162.039ZM84.6802 105.301V109.245H51.0402C43.1522 109.245 37.1975 110.598 33.1762 113.305C29.1548 116.012 27.1442 119.956 27.1442 125.137C27.1442 128.617 28.0335 132.058 29.8122 135.461C31.5135 138.786 33.8722 141.686 36.8882 144.161C39.8268 146.558 43.1908 148.298 46.9802 149.381H84.6802V153.325H0.000174742V149.381H39.4402C34.5682 146.906 30.7015 143.426 27.8402 138.941C24.9015 134.378 23.4322 129.545 23.4322 124.441C23.4322 121.193 24.0508 118.409 25.2882 116.089C26.4482 113.692 28.2268 111.72 30.6242 110.173C32.9442 108.549 35.7668 107.35 39.0922 106.577C42.4175 105.726 46.2455 105.301 50.5762 105.301H84.6802ZM85.8402 63.9126C85.8402 67.9339 85.0282 71.7619 83.4042 75.3966C81.7028 78.9539 79.4215 82.0859 76.5602 84.7926C73.6215 87.4219 70.2575 89.5099 66.4682 91.0566C62.6015 92.5259 58.5028 93.2606 54.1722 93.2606C48.5268 93.2606 43.3842 91.9846 38.7442 89.4326C34.1042 86.8806 30.3922 83.4393 27.6082 79.1086C24.8242 74.7006 23.4322 69.7899 23.4322 64.3766C23.4322 58.8086 24.8628 53.8593 27.7242 49.5286C30.5082 45.1206 34.2588 41.6019 38.9762 38.9726C43.6162 36.3433 48.7975 35.0286 54.5202 35.0286C54.8295 35.0286 55.1388 35.0286 55.4482 35.0286C55.7575 35.0286 56.0668 35.0673 56.3762 35.1446V89.2006C61.2482 88.8139 65.6562 87.4606 69.6002 85.1406C73.5442 82.7433 76.6762 79.6886 78.9962 75.9766C81.3162 72.1873 82.4762 68.0886 82.4762 63.6806C82.4762 59.2726 81.3548 55.1353 79.1122 51.2686C76.7922 47.4019 73.8535 44.6566 70.2962 43.0326L71.2242 39.4366C74.0082 40.5966 76.5215 42.4139 78.7642 44.8886C81.0068 47.3633 82.7468 50.2633 83.9842 53.5886C85.2215 56.8366 85.8402 60.2779 85.8402 63.9126ZM53.0122 89.3166V38.9726C47.9082 39.2819 43.4228 40.5966 39.5562 42.9166C35.6122 45.1593 32.5188 48.1366 30.2762 51.8486C28.0335 55.5606 26.9122 59.6979 26.9122 64.2606C26.9122 68.7459 28.0335 72.8446 30.2762 76.5566C32.5188 80.1913 35.6122 83.1686 39.5562 85.4886C43.5002 87.7313 47.9855 89.0073 53.0122 89.3166Z" fill="white"/>
<path d="M597.464 198.22C595.969 198.22 594.601 197.967 593.36 197.46C592.144 196.953 591.156 196.193 590.396 195.18L591.574 193.888C592.41 194.825 593.322 195.522 594.31 195.978C595.298 196.434 596.412 196.662 597.654 196.662C598.895 196.662 599.984 196.472 600.922 196.092C601.884 195.712 602.644 195.167 603.202 194.458C603.759 193.749 604.038 192.925 604.038 191.988C604.038 190.975 603.594 190.253 602.708 189.822C601.821 189.391 600.554 188.948 598.908 188.492C597.742 188.163 596.754 187.859 595.944 187.58C595.158 187.276 594.563 186.883 594.158 186.402C593.778 185.921 593.588 185.262 593.588 184.426C593.588 182.982 593.955 181.766 594.69 180.778C595.45 179.79 596.45 179.043 597.692 178.536C598.933 178.004 600.301 177.738 601.796 177.738C603.316 177.738 604.582 178.004 605.596 178.536C606.634 179.043 607.369 179.701 607.8 180.512L606.546 181.538C606.115 180.778 605.456 180.221 604.57 179.866C603.683 179.486 602.682 179.296 601.568 179.296C600.554 179.296 599.579 179.461 598.642 179.79C597.704 180.119 596.944 180.626 596.362 181.31C595.779 181.994 595.488 182.868 595.488 183.932C595.488 184.819 595.817 185.452 596.476 185.832C597.16 186.187 598.236 186.554 599.706 186.934C600.998 187.289 602.112 187.656 603.05 188.036C603.987 188.391 604.709 188.847 605.216 189.404C605.722 189.961 605.976 190.721 605.976 191.684C605.976 193.001 605.608 194.154 604.874 195.142C604.164 196.13 603.164 196.89 601.872 197.422C600.605 197.954 599.136 198.22 597.464 198.22ZM615.459 198.22C613.889 198.22 612.533 197.84 611.393 197.08C610.279 196.32 609.417 195.307 608.809 194.04C608.201 192.773 607.885 191.38 607.859 189.86C607.834 188.315 608.087 186.82 608.619 185.376C609.177 183.932 609.962 182.64 610.975 181.5C612.014 180.335 613.217 179.423 614.585 178.764C615.979 178.08 617.499 177.738 619.145 177.738C620.336 177.738 621.413 177.941 622.375 178.346C623.363 178.751 624.136 179.347 624.693 180.132C625.276 180.917 625.58 181.918 625.605 183.134C625.631 185.135 624.795 186.567 623.097 187.428C621.425 188.289 618.841 188.72 615.345 188.72C614.484 188.72 613.547 188.707 612.533 188.682C611.52 188.631 610.38 188.555 609.113 188.454L609.455 187.048C610.747 187.124 611.862 187.187 612.799 187.238C613.737 187.263 614.623 187.276 615.459 187.276C617.587 187.276 619.259 187.124 620.475 186.82C621.691 186.491 622.553 186.022 623.059 185.414C623.591 184.781 623.845 184.021 623.819 183.134C623.819 182.222 623.579 181.487 623.097 180.93C622.641 180.373 622.046 179.967 621.311 179.714C620.577 179.435 619.791 179.296 618.955 179.296C617.613 179.296 616.371 179.6 615.231 180.208C614.117 180.791 613.141 181.589 612.305 182.602C611.495 183.59 610.874 184.692 610.443 185.908C610.013 187.124 609.797 188.353 609.797 189.594C609.823 190.911 610.063 192.115 610.519 193.204C611.001 194.268 611.685 195.117 612.571 195.75C613.458 196.383 614.547 196.7 615.839 196.7C617.309 196.7 618.639 196.345 619.829 195.636C621.02 194.901 621.945 193.926 622.603 192.71L624.237 193.204C623.68 194.192 622.958 195.066 622.071 195.826C621.185 196.586 620.184 197.181 619.069 197.612C617.955 198.017 616.751 198.22 615.459 198.22ZM629.818 178.08H631.642L630.578 182.944C631.591 181.475 632.744 180.322 634.036 179.486C635.328 178.625 636.62 178.156 637.912 178.08C638.089 178.055 638.254 178.055 638.406 178.08C638.558 178.08 638.685 178.08 638.786 178.08L638.406 179.79C636.734 179.841 635.151 180.373 633.656 181.386C632.187 182.374 631.021 183.742 630.16 185.49L627.538 197.84H625.638L629.818 178.08ZM638.316 178.08H640.292L642.952 195.94C644.118 194.521 645.182 193.065 646.144 191.57C647.107 190.075 647.981 188.555 648.766 187.01C649.577 185.465 650.286 183.945 650.894 182.45C651.528 180.93 652.047 179.473 652.452 178.08H654.276C653.314 181.373 651.933 184.692 650.134 188.036C648.361 191.355 646.132 194.623 643.446 197.84H641.47L638.316 178.08ZM656.944 178.08H658.844L654.664 197.84H652.764L656.944 178.08ZM658.654 170.1H660.554L659.832 173.596H657.932L658.654 170.1ZM662.789 178.08H664.575L663.549 182.792C664.284 181.779 665.145 180.905 666.133 180.17C667.121 179.41 668.185 178.815 669.325 178.384C670.465 177.953 671.58 177.738 672.669 177.738C673.682 177.738 674.493 177.928 675.101 178.308C675.734 178.663 676.19 179.195 676.469 179.904C676.773 180.613 676.925 181.475 676.925 182.488C676.925 183.071 676.874 183.691 676.773 184.35C676.697 185.009 676.583 185.718 676.431 186.478L674.037 197.84H672.137L674.455 186.82C674.607 186.111 674.708 185.465 674.759 184.882C674.835 184.299 674.873 183.767 674.873 183.286C674.873 181.994 674.607 181.044 674.075 180.436C673.568 179.803 672.783 179.486 671.719 179.486C670.68 179.486 669.604 179.752 668.489 180.284C667.374 180.816 666.336 181.551 665.373 182.488C664.436 183.4 663.676 184.439 663.093 185.604L660.509 197.84H658.609L662.789 178.08ZM683.59 206.314C681.487 206.314 679.853 205.896 678.688 205.06C677.522 204.224 676.699 203.122 676.218 201.754L677.662 200.88C678.168 202.197 678.941 203.173 679.98 203.806C681.044 204.439 682.361 204.756 683.932 204.756C685.198 204.756 686.402 204.503 687.542 203.996C688.707 203.515 689.708 202.78 690.544 201.792C691.405 200.829 691.988 199.639 692.292 198.22L693.204 193.888C692.19 195.18 690.962 196.219 689.518 197.004C688.074 197.764 686.655 198.144 685.262 198.144C683.818 198.144 682.576 197.764 681.538 197.004C680.499 196.219 679.701 195.205 679.144 193.964C678.586 192.697 678.308 191.342 678.308 189.898C678.308 188.378 678.599 186.896 679.182 185.452C679.79 184.008 680.613 182.716 681.652 181.576C682.69 180.411 683.881 179.486 685.224 178.802C686.566 178.093 687.985 177.738 689.48 177.738C691.126 177.738 692.444 178.194 693.432 179.106C694.445 179.993 695.256 181.082 695.864 182.374L696.776 178.08H698.486L694.192 198.22C693.837 199.993 693.115 201.488 692.026 202.704C690.962 203.92 689.682 204.819 688.188 205.402C686.718 206.01 685.186 206.314 683.59 206.314ZM686.098 196.51C686.883 196.51 687.681 196.358 688.492 196.054C689.302 195.75 690.062 195.345 690.772 194.838C691.506 194.306 692.14 193.723 692.672 193.09C693.204 192.457 693.584 191.823 693.812 191.19L695.18 184.692C695.053 183.679 694.711 182.779 694.154 181.994C693.596 181.183 692.9 180.563 692.064 180.132C691.253 179.676 690.366 179.448 689.404 179.448C688.137 179.448 686.946 179.765 685.832 180.398C684.717 181.006 683.742 181.817 682.906 182.83C682.095 183.818 681.449 184.907 680.968 186.098C680.512 187.289 680.284 188.454 680.284 189.594C680.284 190.835 680.524 191.988 681.006 193.052C681.487 194.091 682.158 194.927 683.02 195.56C683.906 196.193 684.932 196.51 686.098 196.51ZM707.347 195.37C707.347 195.243 707.347 195.104 707.347 194.952C707.372 194.8 707.397 194.661 707.423 194.534L710.615 179.638H707.955L708.297 178.08H710.957L712.363 171.316H714.263L712.857 178.08H717.227L716.885 179.638H712.515L709.665 193.014C709.563 193.445 709.487 193.774 709.437 194.002C709.411 194.205 709.399 194.382 709.399 194.534C709.399 195.117 709.589 195.56 709.969 195.864C710.349 196.143 710.792 196.282 711.299 196.282C711.805 196.282 712.274 196.219 712.705 196.092C713.135 195.94 713.503 195.801 713.807 195.674C714.136 195.522 714.339 195.421 714.415 195.37L714.643 196.89C714.516 196.991 714.237 197.143 713.807 197.346C713.401 197.523 712.907 197.688 712.325 197.84C711.742 197.992 711.109 198.068 710.425 198.068C709.538 198.068 708.803 197.84 708.221 197.384C707.638 196.903 707.347 196.231 707.347 195.37ZM721.684 170.1H723.584L720.886 182.792C721.975 181.247 723.292 180.018 724.838 179.106C726.383 178.194 727.941 177.738 729.512 177.738C730.55 177.738 731.399 177.941 732.058 178.346C732.742 178.751 733.236 179.334 733.54 180.094C733.869 180.854 734.034 181.779 734.034 182.868C734.034 183.4 733.996 183.97 733.92 184.578C733.869 185.186 733.768 185.819 733.616 186.478L731.222 197.84H729.322L731.64 186.82C731.766 186.212 731.855 185.642 731.906 185.11C731.982 184.578 732.02 184.097 732.02 183.666C732.02 182.273 731.728 181.234 731.146 180.55C730.563 179.841 729.702 179.486 728.562 179.486C727.574 179.486 726.548 179.752 725.484 180.284C724.42 180.816 723.419 181.551 722.482 182.488C721.57 183.4 720.835 184.439 720.278 185.604L717.694 197.84H715.794L721.684 170.1ZM743.207 198.22C741.636 198.22 740.281 197.84 739.141 197.08C738.026 196.32 737.165 195.307 736.557 194.04C735.949 192.773 735.632 191.38 735.607 189.86C735.581 188.315 735.835 186.82 736.367 185.376C736.924 183.932 737.709 182.64 738.723 181.5C739.761 180.335 740.965 179.423 742.333 178.764C743.726 178.08 745.246 177.738 746.893 177.738C748.083 177.738 749.16 177.941 750.123 178.346C751.111 178.751 751.883 179.347 752.441 180.132C753.023 180.917 753.327 181.918 753.353 183.134C753.378 185.135 752.542 186.567 750.845 187.428C749.173 188.289 746.589 188.72 743.093 188.72C742.231 188.72 741.294 188.707 740.281 188.682C739.267 188.631 738.127 188.555 736.861 188.454L737.203 187.048C738.495 187.124 739.609 187.187 740.547 187.238C741.484 187.263 742.371 187.276 743.207 187.276C745.335 187.276 747.007 187.124 748.223 186.82C749.439 186.491 750.3 186.022 750.807 185.414C751.339 184.781 751.592 184.021 751.567 183.134C751.567 182.222 751.326 181.487 750.845 180.93C750.389 180.373 749.793 179.967 749.059 179.714C748.324 179.435 747.539 179.296 746.703 179.296C745.36 179.296 744.119 179.6 742.979 180.208C741.864 180.791 740.889 181.589 740.053 182.602C739.242 183.59 738.621 184.692 738.191 185.908C737.76 187.124 737.545 188.353 737.545 189.594C737.57 190.911 737.811 192.115 738.267 193.204C738.748 194.268 739.432 195.117 740.319 195.75C741.205 196.383 742.295 196.7 743.587 196.7C745.056 196.7 746.386 196.345 747.577 195.636C748.767 194.901 749.692 193.926 750.351 192.71L751.985 193.204C751.427 194.192 750.705 195.066 749.819 195.826C748.932 196.586 747.931 197.181 746.817 197.612C745.702 198.017 744.499 198.22 743.207 198.22ZM761.692 197.84L767.43 170.86H778.146C779.388 170.86 780.439 171.189 781.3 171.848C782.187 172.507 782.858 173.368 783.314 174.432C783.796 175.496 784.036 176.611 784.036 177.776C784.036 178.891 783.821 179.98 783.39 181.044C782.985 182.108 782.415 183.096 781.68 184.008C780.971 184.895 780.135 185.642 779.172 186.25C778.235 186.833 777.222 187.2 776.132 187.352L780.236 197.84H778.032L774.004 187.656H765.796L763.63 197.84H761.692ZM775.106 185.87C776.069 185.87 776.956 185.642 777.766 185.186C778.602 184.73 779.337 184.122 779.97 183.362C780.629 182.577 781.136 181.728 781.49 180.816C781.845 179.879 782.022 178.941 782.022 178.004C782.022 177.016 781.845 176.129 781.49 175.344C781.136 174.533 780.629 173.875 779.97 173.368C779.312 172.861 778.539 172.608 777.652 172.608H768.988L766.176 185.87H775.106ZM790.836 198.22C789.265 198.22 787.91 197.84 786.77 197.08C785.655 196.32 784.794 195.307 784.186 194.04C783.578 192.773 783.261 191.38 783.236 189.86C783.211 188.315 783.464 186.82 783.996 185.376C784.553 183.932 785.339 182.64 786.352 181.5C787.391 180.335 788.594 179.423 789.962 178.764C791.355 178.08 792.875 177.738 794.522 177.738C795.713 177.738 796.789 177.941 797.752 178.346C798.74 178.751 799.513 179.347 800.07 180.132C800.653 180.917 800.957 181.918 800.982 183.134C801.007 185.135 800.171 186.567 798.474 187.428C796.802 188.289 794.218 188.72 790.722 188.72C789.861 188.72 788.923 188.707 787.91 188.682C786.897 188.631 785.757 188.555 784.49 188.454L784.832 187.048C786.124 187.124 787.239 187.187 788.176 187.238C789.113 187.263 790 187.276 790.836 187.276C792.964 187.276 794.636 187.124 795.852 186.82C797.068 186.491 797.929 186.022 798.436 185.414C798.968 184.781 799.221 184.021 799.196 183.134C799.196 182.222 798.955 181.487 798.474 180.93C798.018 180.373 797.423 179.967 796.688 179.714C795.953 179.435 795.168 179.296 794.332 179.296C792.989 179.296 791.748 179.6 790.608 180.208C789.493 180.791 788.518 181.589 787.682 182.602C786.871 183.59 786.251 184.692 785.82 185.908C785.389 187.124 785.174 188.353 785.174 189.594C785.199 190.911 785.44 192.115 785.896 193.204C786.377 194.268 787.061 195.117 787.948 195.75C788.835 196.383 789.924 196.7 791.216 196.7C792.685 196.7 794.015 196.345 795.206 195.636C796.397 194.901 797.321 193.926 797.98 192.71L799.614 193.204C799.057 194.192 798.335 195.066 797.448 195.826C796.561 196.586 795.561 197.181 794.446 197.612C793.331 198.017 792.128 198.22 790.836 198.22ZM805.194 178.08H806.98L805.954 182.792C806.689 181.779 807.55 180.905 808.538 180.17C809.526 179.41 810.59 178.815 811.73 178.384C812.87 177.953 813.985 177.738 815.074 177.738C816.088 177.738 816.898 177.928 817.506 178.308C818.14 178.663 818.596 179.195 818.874 179.904C819.178 180.613 819.33 181.475 819.33 182.488C819.33 183.071 819.28 183.691 819.178 184.35C819.102 185.009 818.988 185.718 818.836 186.478L816.442 197.84H814.542L816.86 186.82C817.012 186.111 817.114 185.465 817.164 184.882C817.24 184.299 817.278 183.767 817.278 183.286C817.278 181.994 817.012 181.044 816.48 180.436C815.974 179.803 815.188 179.486 814.124 179.486C813.086 179.486 812.009 179.752 810.894 180.284C809.78 180.816 808.741 181.551 807.778 182.488C806.841 183.4 806.081 184.439 805.498 185.604L802.914 197.84H801.014L805.194 178.08ZM826.147 198.22C824.653 198.22 823.285 197.967 822.043 197.46C820.827 196.953 819.839 196.193 819.079 195.18L820.257 193.888C821.093 194.825 822.005 195.522 822.993 195.978C823.981 196.434 825.096 196.662 826.337 196.662C827.579 196.662 828.668 196.472 829.605 196.092C830.568 195.712 831.328 195.167 831.885 194.458C832.443 193.749 832.721 192.925 832.721 191.988C832.721 190.975 832.278 190.253 831.391 189.822C830.505 189.391 829.238 188.948 827.591 188.492C826.426 188.163 825.438 187.859 824.627 187.58C823.842 187.276 823.247 186.883 822.841 186.402C822.461 185.921 822.271 185.262 822.271 184.426C822.271 182.982 822.639 181.766 823.373 180.778C824.133 179.79 825.134 179.043 826.375 178.536C827.617 178.004 828.985 177.738 830.479 177.738C831.999 177.738 833.266 178.004 834.279 178.536C835.318 179.043 836.053 179.701 836.483 180.512L835.229 181.538C834.799 180.778 834.14 180.221 833.253 179.866C832.367 179.486 831.366 179.296 830.251 179.296C829.238 179.296 828.263 179.461 827.325 179.79C826.388 180.119 825.628 180.626 825.045 181.31C824.463 181.994 824.171 182.868 824.171 183.932C824.171 184.819 824.501 185.452 825.159 185.832C825.843 186.187 826.92 186.554 828.389 186.934C829.681 187.289 830.796 187.656 831.733 188.036C832.671 188.391 833.393 188.847 833.899 189.404C834.406 189.961 834.659 190.721 834.659 191.684C834.659 193.001 834.292 194.154 833.557 195.142C832.848 196.13 831.847 196.89 830.555 197.422C829.289 197.954 827.819 198.22 826.147 198.22ZM841.863 198.22C840.368 198.22 839 197.967 837.759 197.46C836.543 196.953 835.555 196.193 834.795 195.18L835.973 193.888C836.809 194.825 837.721 195.522 838.709 195.978C839.697 196.434 840.812 196.662 842.053 196.662C843.294 196.662 844.384 196.472 845.321 196.092C846.284 195.712 847.044 195.167 847.601 194.458C848.158 193.749 848.437 192.925 848.437 191.988C848.437 190.975 847.994 190.253 847.107 189.822C846.22 189.391 844.954 188.948 843.307 188.492C842.142 188.163 841.154 187.859 840.343 187.58C839.558 187.276 838.962 186.883 838.557 186.402C838.177 185.921 837.987 185.262 837.987 184.426C837.987 182.982 838.354 181.766 839.089 180.778C839.849 179.79 840.85 179.043 842.091 178.536C843.332 178.004 844.7 177.738 846.195 177.738C847.715 177.738 848.982 178.004 849.995 178.536C851.034 179.043 851.768 179.701 852.199 180.512L850.945 181.538C850.514 180.778 849.856 180.221 848.969 179.866C848.082 179.486 847.082 179.296 845.967 179.296C844.954 179.296 843.978 179.461 843.041 179.79C842.104 180.119 841.344 180.626 840.761 181.31C840.178 181.994 839.887 182.868 839.887 183.932C839.887 184.819 840.216 185.452 840.875 185.832C841.559 186.187 842.636 186.554 844.105 186.934C845.397 187.289 846.512 187.656 847.449 188.036C848.386 188.391 849.108 188.847 849.615 189.404C850.122 189.961 850.375 190.721 850.375 191.684C850.375 193.001 850.008 194.154 849.273 195.142C848.564 196.13 847.563 196.89 846.271 197.422C845.004 197.954 843.535 198.22 841.863 198.22ZM859.859 198.22C858.288 198.22 856.933 197.84 855.793 197.08C854.678 196.32 853.817 195.307 853.209 194.04C852.601 192.773 852.284 191.38 852.259 189.86C852.233 188.315 852.487 186.82 853.019 185.376C853.576 183.932 854.361 182.64 855.375 181.5C856.413 180.335 857.617 179.423 858.985 178.764C860.378 178.08 861.898 177.738 863.545 177.738C864.735 177.738 865.812 177.941 866.775 178.346C867.763 178.751 868.535 179.347 869.093 180.132C869.675 180.917 869.979 181.918 870.005 183.134C870.03 185.135 869.194 186.567 867.497 187.428C865.825 188.289 863.241 188.72 859.745 188.72C858.883 188.72 857.946 188.707 856.933 188.682C855.919 188.631 854.779 188.555 853.513 188.454L853.855 187.048C855.147 187.124 856.261 187.187 857.199 187.238C858.136 187.263 859.023 187.276 859.859 187.276C861.987 187.276 863.659 187.124 864.875 186.82C866.091 186.491 866.952 186.022 867.459 185.414C867.991 184.781 868.244 184.021 868.219 183.134C868.219 182.222 867.978 181.487 867.497 180.93C867.041 180.373 866.445 179.967 865.711 179.714C864.976 179.435 864.191 179.296 863.355 179.296C862.012 179.296 860.771 179.6 859.631 180.208C858.516 180.791 857.541 181.589 856.705 182.602C855.894 183.59 855.273 184.692 854.843 185.908C854.412 187.124 854.197 188.353 854.197 189.594C854.222 190.911 854.463 192.115 854.919 193.204C855.4 194.268 856.084 195.117 856.971 195.75C857.857 196.383 858.947 196.7 860.239 196.7C861.708 196.7 863.038 196.345 864.229 195.636C865.419 194.901 866.344 193.926 867.003 192.71L868.637 193.204C868.079 194.192 867.357 195.066 866.471 195.826C865.584 196.586 864.583 197.181 863.469 197.612C862.354 198.017 861.151 198.22 859.859 198.22ZM873.495 198.068C872.634 198.068 871.962 197.84 871.481 197.384C871 196.903 870.759 196.257 870.759 195.446C870.759 195.294 870.772 195.142 870.797 194.99C870.822 194.813 870.848 194.648 870.873 194.496L876.041 170.1H877.941L872.887 193.926C872.862 194.053 872.836 194.167 872.811 194.268C872.811 194.369 872.811 194.483 872.811 194.61C872.811 195.75 873.432 196.32 874.673 196.32C874.952 196.32 875.281 196.282 875.661 196.206C876.041 196.13 876.396 196.041 876.725 195.94V197.46C876.294 197.612 875.762 197.751 875.129 197.878C874.496 198.005 873.951 198.068 873.495 198.068ZM885.189 198.22C883.745 198.22 882.491 197.84 881.427 197.08C880.388 196.295 879.577 195.269 878.995 194.002C878.437 192.735 878.159 191.367 878.159 189.898C878.159 188.353 878.463 186.858 879.071 185.414C879.679 183.97 880.489 182.678 881.503 181.538C882.541 180.373 883.719 179.448 885.037 178.764C886.354 178.08 887.735 177.738 889.179 177.738C890.825 177.738 892.181 178.194 893.245 179.106C894.309 180.018 895.069 181.107 895.525 182.374L896.437 178.08H898.375L894.727 195.104C894.701 195.18 894.676 195.256 894.651 195.332C894.651 195.408 894.651 195.484 894.651 195.56C894.651 195.94 894.866 196.13 895.297 196.13L894.917 197.84C894.765 197.84 894.625 197.853 894.499 197.878C894.372 197.903 894.258 197.903 894.157 197.878C893.701 197.853 893.359 197.713 893.131 197.46C892.903 197.207 892.789 196.903 892.789 196.548C892.789 196.421 892.801 196.282 892.827 196.13C892.852 195.978 892.89 195.737 892.941 195.408C893.017 195.053 893.118 194.547 893.245 193.888C892.231 195.205 890.99 196.257 889.521 197.042C888.077 197.827 886.633 198.22 885.189 198.22ZM885.873 196.51C886.582 196.51 887.329 196.371 888.115 196.092C888.925 195.813 889.698 195.433 890.433 194.952C891.193 194.445 891.851 193.875 892.409 193.242C892.991 192.583 893.409 191.899 893.663 191.19L895.031 184.692C894.904 183.755 894.575 182.893 894.043 182.108C893.511 181.323 892.827 180.689 891.991 180.208C891.18 179.701 890.268 179.448 889.255 179.448C888.064 179.448 886.911 179.752 885.797 180.36C884.707 180.968 883.732 181.766 882.871 182.754C882.035 183.742 881.363 184.844 880.857 186.06C880.375 187.251 880.135 188.454 880.135 189.67C880.135 190.911 880.375 192.051 880.857 193.09C881.363 194.103 882.047 194.927 882.909 195.56C883.77 196.193 884.758 196.51 885.873 196.51ZM906.486 198.22C904.915 198.22 903.56 197.84 902.42 197.08C901.305 196.32 900.444 195.307 899.836 194.04C899.228 192.773 898.911 191.38 898.886 189.86C898.861 188.315 899.114 186.82 899.646 185.376C900.203 183.932 900.989 182.64 902.002 181.5C903.041 180.335 904.244 179.423 905.612 178.764C907.005 178.08 908.525 177.738 910.172 177.738C911.363 177.738 912.439 177.941 913.402 178.346C914.39 178.751 915.163 179.347 915.72 180.132C916.303 180.917 916.607 181.918 916.632 183.134C916.657 185.135 915.821 186.567 914.124 187.428C912.452 188.289 909.868 188.72 906.372 188.72C905.511 188.72 904.573 188.707 903.56 188.682C902.547 188.631 901.407 188.555 900.14 188.454L900.482 187.048C901.774 187.124 902.889 187.187 903.826 187.238C904.763 187.263 905.65 187.276 906.486 187.276C908.614 187.276 910.286 187.124 911.502 186.82C912.718 186.491 913.579 186.022 914.086 185.414C914.618 184.781 914.871 184.021 914.846 183.134C914.846 182.222 914.605 181.487 914.124 180.93C913.668 180.373 913.073 179.967 912.338 179.714C911.603 179.435 910.818 179.296 909.982 179.296C908.639 179.296 907.398 179.6 906.258 180.208C905.143 180.791 904.168 181.589 903.332 182.602C902.521 183.59 901.901 184.692 901.47 185.908C901.039 187.124 900.824 188.353 900.824 189.594C900.849 190.911 901.09 192.115 901.546 193.204C902.027 194.268 902.711 195.117 903.598 195.75C904.485 196.383 905.574 196.7 906.866 196.7C908.335 196.7 909.665 196.345 910.856 195.636C912.047 194.901 912.971 193.926 913.63 192.71L915.264 193.204C914.707 194.192 913.985 195.066 913.098 195.826C912.211 196.586 911.211 197.181 910.096 197.612C908.981 198.017 907.778 198.22 906.486 198.22ZM920.844 178.08H922.668L921.604 182.944C922.618 181.475 923.77 180.322 925.062 179.486C926.354 178.625 927.646 178.156 928.938 178.08C929.116 178.055 929.28 178.055 929.432 178.08C929.584 178.08 929.711 178.08 929.812 178.08L929.432 179.79C927.76 179.841 926.177 180.373 924.682 181.386C923.213 182.374 922.048 183.742 921.186 185.49L918.564 197.84H916.664L920.844 178.08ZM942.569 198.22C941.023 198.22 939.693 197.853 938.579 197.118C937.464 196.358 936.603 195.345 935.995 194.078C935.412 192.811 935.121 191.405 935.121 189.86C935.121 188.213 935.425 186.668 936.033 185.224C936.666 183.78 937.515 182.501 938.579 181.386C939.668 180.246 940.909 179.359 942.303 178.726C943.721 178.067 945.216 177.738 946.787 177.738C948.535 177.738 949.966 178.156 951.081 178.992C952.221 179.803 952.968 180.917 953.323 182.336L951.309 182.944C951.005 181.829 950.435 180.968 949.599 180.36C948.763 179.752 947.762 179.448 946.597 179.448C945.381 179.448 944.203 179.714 943.063 180.246C941.923 180.778 940.909 181.513 940.023 182.45C939.136 183.387 938.414 184.464 937.857 185.68C937.325 186.896 937.059 188.188 937.059 189.556C937.059 190.873 937.299 192.051 937.781 193.09C938.287 194.129 938.959 194.965 939.795 195.598C940.656 196.206 941.644 196.51 942.759 196.51C943.645 196.51 944.532 196.345 945.419 196.016C946.305 195.661 947.103 195.205 947.813 194.648C948.547 194.091 949.079 193.495 949.409 192.862L951.157 193.394C950.65 194.331 949.941 195.167 949.029 195.902C948.117 196.611 947.091 197.181 945.951 197.612C944.836 198.017 943.709 198.22 942.569 198.22ZM960.511 198.22C958.839 198.22 957.446 197.853 956.331 197.118C955.242 196.358 954.418 195.357 953.861 194.116C953.304 192.849 953.025 191.469 953.025 189.974C953.025 188.277 953.329 186.693 953.937 185.224C954.57 183.729 955.419 182.425 956.483 181.31C957.547 180.195 958.763 179.321 960.131 178.688C961.524 178.055 962.968 177.738 964.463 177.738C966.135 177.738 967.528 178.118 968.643 178.878C969.758 179.638 970.581 180.651 971.113 181.918C971.67 183.159 971.949 184.54 971.949 186.06C971.949 187.732 971.645 189.303 971.037 190.772C970.429 192.241 969.593 193.546 968.529 194.686C967.465 195.801 966.249 196.675 964.881 197.308C963.513 197.916 962.056 198.22 960.511 198.22ZM960.853 196.51C962.018 196.51 963.146 196.257 964.235 195.75C965.324 195.243 966.3 194.534 967.161 193.622C968.048 192.685 968.744 191.608 969.251 190.392C969.758 189.151 970.011 187.808 970.011 186.364C970.011 185.072 969.783 183.907 969.327 182.868C968.896 181.829 968.25 181.006 967.389 180.398C966.528 179.765 965.451 179.448 964.159 179.448C962.994 179.448 961.866 179.714 960.777 180.246C959.688 180.753 958.7 181.475 957.813 182.412C956.952 183.349 956.268 184.439 955.761 185.68C955.254 186.921 955.001 188.264 955.001 189.708C955.001 190.975 955.216 192.127 955.647 193.166C956.078 194.205 956.724 195.028 957.585 195.636C958.472 196.219 959.561 196.51 960.853 196.51ZM976.508 178.08H978.294L977.268 182.792C978.382 181.196 979.662 179.955 981.106 179.068C982.575 178.181 984.044 177.738 985.514 177.738C986.527 177.738 987.376 177.953 988.06 178.384C988.744 178.815 989.25 179.435 989.58 180.246C989.934 181.057 990.074 182.045 989.998 183.21C990.707 182.019 991.518 181.019 992.43 180.208C993.342 179.397 994.317 178.789 995.356 178.384C996.42 177.953 997.471 177.738 998.51 177.738C999.523 177.738 1000.35 177.941 1000.98 178.346C1001.61 178.726 1002.08 179.283 1002.39 180.018C1002.69 180.727 1002.84 181.601 1002.84 182.64C1002.84 183.197 1002.8 183.793 1002.73 184.426C1002.65 185.059 1002.54 185.743 1002.39 186.478L999.954 197.84H998.054L1000.41 186.82C1000.66 185.503 1000.79 184.375 1000.79 183.438C1000.79 182.121 1000.51 181.133 999.954 180.474C999.422 179.815 998.611 179.486 997.522 179.486C996.508 179.486 995.508 179.752 994.52 180.284C993.532 180.791 992.62 181.5 991.784 182.412C990.948 183.324 990.238 184.401 989.656 185.642L987.11 197.84H985.21L987.528 186.82C987.68 186.136 987.781 185.515 987.832 184.958C987.908 184.375 987.946 183.843 987.946 183.362C987.946 182.045 987.68 181.069 987.148 180.436C986.616 179.803 985.805 179.486 984.716 179.486C983.196 179.486 981.714 180.056 980.27 181.196C978.851 182.311 977.698 183.78 976.812 185.604L974.228 197.84H972.328L976.508 178.08ZM1007.92 178.08H1009.71L1008.68 182.792C1009.8 181.196 1011.07 179.955 1012.52 179.068C1013.99 178.181 1015.46 177.738 1016.93 177.738C1017.94 177.738 1018.79 177.953 1019.47 178.384C1020.16 178.815 1020.66 179.435 1020.99 180.246C1021.35 181.057 1021.49 182.045 1021.41 183.21C1022.12 182.019 1022.93 181.019 1023.84 180.208C1024.75 179.397 1025.73 178.789 1026.77 178.384C1027.83 177.953 1028.88 177.738 1029.92 177.738C1030.94 177.738 1031.76 177.941 1032.39 178.346C1033.03 178.726 1033.49 179.283 1033.8 180.018C1034.1 180.727 1034.25 181.601 1034.25 182.64C1034.25 183.197 1034.22 183.793 1034.14 184.426C1034.06 185.059 1033.95 185.743 1033.8 186.478L1031.37 197.84H1029.47L1031.82 186.82C1032.08 185.503 1032.2 184.375 1032.2 183.438C1032.2 182.121 1031.92 181.133 1031.37 180.474C1030.83 179.815 1030.02 179.486 1028.93 179.486C1027.92 179.486 1026.92 179.752 1025.93 180.284C1024.94 180.791 1024.03 181.5 1023.2 182.412C1022.36 183.324 1021.65 184.401 1021.07 185.642L1018.52 197.84H1016.62L1018.94 186.82C1019.09 186.136 1019.19 185.515 1019.24 184.958C1019.32 184.375 1019.36 183.843 1019.36 183.362C1019.36 182.045 1019.09 181.069 1018.56 180.436C1018.03 179.803 1017.22 179.486 1016.13 179.486C1014.61 179.486 1013.13 180.056 1011.68 181.196C1010.26 182.311 1009.11 183.78 1008.22 185.604L1005.64 197.84H1003.74L1007.92 178.08ZM1040.85 198.22C1037.79 198.22 1036.26 196.497 1036.26 193.052C1036.26 192.52 1036.29 191.963 1036.37 191.38C1036.45 190.797 1036.55 190.164 1036.67 189.48L1039.14 178.08H1041.01L1038.65 189.214C1038.37 190.43 1038.23 191.507 1038.23 192.444C1038.23 195.155 1039.41 196.51 1041.77 196.51C1042.83 196.51 1043.89 196.269 1044.96 195.788C1046.02 195.281 1047.02 194.585 1047.96 193.698C1048.9 192.786 1049.67 191.735 1050.28 190.544L1052.9 178.08H1054.8L1051.3 194.61C1051.25 194.813 1051.2 195.003 1051.15 195.18C1051.13 195.357 1051.11 195.471 1051.11 195.522C1051.11 195.927 1051.33 196.13 1051.76 196.13L1051.38 197.84C1051.2 197.84 1051.04 197.84 1050.89 197.84C1050.76 197.865 1050.64 197.878 1050.54 197.878C1050.14 197.827 1049.82 197.688 1049.59 197.46C1049.39 197.232 1049.29 196.928 1049.29 196.548C1049.29 196.447 1049.3 196.32 1049.33 196.168C1049.35 195.991 1049.4 195.674 1049.48 195.218C1049.58 194.762 1049.73 194.078 1049.94 193.166C1048.77 194.737 1047.38 195.978 1045.76 196.89C1044.13 197.777 1042.5 198.22 1040.85 198.22ZM1058.87 178.08H1060.66L1059.63 182.792C1060.37 181.779 1061.23 180.905 1062.22 180.17C1063.2 179.41 1064.27 178.815 1065.41 178.384C1066.55 177.953 1067.66 177.738 1068.75 177.738C1069.76 177.738 1070.58 177.928 1071.18 178.308C1071.82 178.663 1072.27 179.195 1072.55 179.904C1072.86 180.613 1073.01 181.475 1073.01 182.488C1073.01 183.071 1072.96 183.691 1072.86 184.35C1072.78 185.009 1072.67 185.718 1072.51 186.478L1070.12 197.84H1068.22L1070.54 186.82C1070.69 186.111 1070.79 185.465 1070.84 184.882C1070.92 184.299 1070.96 183.767 1070.96 183.286C1070.96 181.994 1070.69 181.044 1070.16 180.436C1069.65 179.803 1068.87 179.486 1067.8 179.486C1066.76 179.486 1065.69 179.752 1064.57 180.284C1063.46 180.816 1062.42 181.551 1061.46 182.488C1060.52 183.4 1059.76 184.439 1059.18 185.604L1056.59 197.84H1054.69L1058.87 178.08ZM1078.04 178.08H1079.94L1075.76 197.84H1073.86L1078.04 178.08ZM1079.75 170.1H1081.65L1080.93 173.596H1079.03L1079.75 170.1ZM1081.07 195.37C1081.07 195.243 1081.07 195.104 1081.07 194.952C1081.1 194.8 1081.12 194.661 1081.15 194.534L1084.34 179.638H1081.68L1082.02 178.08H1084.68L1086.09 171.316H1087.99L1086.58 178.08H1090.95L1090.61 179.638H1086.24L1083.39 193.014C1083.29 193.445 1083.21 193.774 1083.16 194.002C1083.14 194.205 1083.12 194.382 1083.12 194.534C1083.12 195.117 1083.31 195.56 1083.69 195.864C1084.07 196.143 1084.52 196.282 1085.02 196.282C1085.53 196.282 1086 196.219 1086.43 196.092C1086.86 195.94 1087.23 195.801 1087.53 195.674C1087.86 195.522 1088.06 195.421 1088.14 195.37L1088.37 196.89C1088.24 196.991 1087.96 197.143 1087.53 197.346C1087.13 197.523 1086.63 197.688 1086.05 197.84C1085.47 197.992 1084.83 198.068 1084.15 198.068C1083.26 198.068 1082.53 197.84 1081.94 197.384C1081.36 196.903 1081.07 196.231 1081.07 195.37ZM1087.69 204.794C1088.73 204.617 1089.58 204.363 1090.24 204.034C1090.9 203.705 1091.49 203.223 1092.03 202.59C1092.58 201.982 1093.2 201.146 1093.89 200.082L1095.26 198.03L1091.04 178.08H1093.01L1096.59 195.978L1098.41 193.09C1099.55 191.266 1100.5 189.67 1101.26 188.302C1102.05 186.934 1102.72 185.693 1103.27 184.578C1103.83 183.463 1104.29 182.387 1104.64 181.348C1105.02 180.309 1105.38 179.22 1105.71 178.08H1107.61C1107.28 179.296 1106.91 180.436 1106.5 181.5C1106.12 182.564 1105.64 183.679 1105.06 184.844C1104.5 185.984 1103.79 187.289 1102.93 188.758C1102.1 190.202 1101.04 191.925 1099.78 193.926L1096.66 198.828C1095.78 200.247 1094.98 201.412 1094.27 202.324C1093.58 203.261 1092.91 204.009 1092.25 204.566C1091.62 205.149 1090.95 205.567 1090.24 205.82C1089.56 206.099 1088.78 206.276 1087.92 206.352L1087.69 204.794ZM1118.6 198.22C1117.11 198.22 1115.74 197.967 1114.5 197.46C1113.28 196.953 1112.29 196.193 1111.53 195.18L1112.71 193.888C1113.55 194.825 1114.46 195.522 1115.45 195.978C1116.44 196.434 1117.55 196.662 1118.79 196.662C1120.03 196.662 1121.12 196.472 1122.06 196.092C1123.02 195.712 1123.78 195.167 1124.34 194.458C1124.9 193.749 1125.18 192.925 1125.18 191.988C1125.18 190.975 1124.73 190.253 1123.85 189.822C1122.96 189.391 1121.69 188.948 1120.05 188.492C1118.88 188.163 1117.89 187.859 1117.08 187.58C1116.3 187.276 1115.7 186.883 1115.3 186.402C1114.92 185.921 1114.73 185.262 1114.73 184.426C1114.73 182.982 1115.09 181.766 1115.83 180.778C1116.59 179.79 1117.59 179.043 1118.83 178.536C1120.07 178.004 1121.44 177.738 1122.93 177.738C1124.45 177.738 1125.72 178.004 1126.73 178.536C1127.77 179.043 1128.51 179.701 1128.94 180.512L1127.68 181.538C1127.25 180.778 1126.6 180.221 1125.71 179.866C1124.82 179.486 1123.82 179.296 1122.71 179.296C1121.69 179.296 1120.72 179.461 1119.78 179.79C1118.84 180.119 1118.08 180.626 1117.5 181.31C1116.92 181.994 1116.63 182.868 1116.63 183.932C1116.63 184.819 1116.96 185.452 1117.61 185.832C1118.3 186.187 1119.38 186.554 1120.84 186.934C1122.14 187.289 1123.25 187.656 1124.19 188.036C1125.13 188.391 1125.85 188.847 1126.35 189.404C1126.86 189.961 1127.11 190.721 1127.11 191.684C1127.11 193.001 1126.75 194.154 1126.01 195.142C1125.3 196.13 1124.3 196.89 1123.01 197.422C1121.74 197.954 1120.27 198.22 1118.6 198.22ZM1132.53 178.08H1134.43L1130.25 197.84H1128.35L1132.53 178.08ZM1134.24 170.1H1136.14L1135.42 173.596H1133.52L1134.24 170.1ZM1138.38 178.08H1140.16L1139.14 182.792C1139.87 181.779 1140.73 180.905 1141.72 180.17C1142.71 179.41 1143.77 178.815 1144.91 178.384C1146.05 177.953 1147.17 177.738 1148.26 177.738C1149.27 177.738 1150.08 177.928 1150.69 178.308C1151.32 178.663 1151.78 179.195 1152.06 179.904C1152.36 180.613 1152.51 181.475 1152.51 182.488C1152.51 183.071 1152.46 183.691 1152.36 184.35C1152.28 185.009 1152.17 185.718 1152.02 186.478L1149.62 197.84H1147.72L1150.04 186.82C1150.19 186.111 1150.3 185.465 1150.35 184.882C1150.42 184.299 1150.46 183.767 1150.46 183.286C1150.46 181.994 1150.19 181.044 1149.66 180.436C1149.16 179.803 1148.37 179.486 1147.31 179.486C1146.27 179.486 1145.19 179.752 1144.08 180.284C1142.96 180.816 1141.92 181.551 1140.96 182.488C1140.02 183.4 1139.26 184.439 1138.68 185.604L1136.1 197.84H1134.2L1138.38 178.08ZM1161.38 198.22C1159.84 198.22 1158.51 197.853 1157.39 197.118C1156.28 196.358 1155.42 195.345 1154.81 194.078C1154.23 192.811 1153.93 191.405 1153.93 189.86C1153.93 188.213 1154.24 186.668 1154.85 185.224C1155.48 183.78 1156.33 182.501 1157.39 181.386C1158.48 180.246 1159.72 179.359 1161.12 178.726C1162.53 178.067 1164.03 177.738 1165.6 177.738C1167.35 177.738 1168.78 178.156 1169.89 178.992C1171.03 179.803 1171.78 180.917 1172.14 182.336L1170.12 182.944C1169.82 181.829 1169.25 180.968 1168.41 180.36C1167.58 179.752 1166.58 179.448 1165.41 179.448C1164.19 179.448 1163.02 179.714 1161.88 180.246C1160.74 180.778 1159.72 181.513 1158.84 182.45C1157.95 183.387 1157.23 184.464 1156.67 185.68C1156.14 186.896 1155.87 188.188 1155.87 189.556C1155.87 190.873 1156.11 192.051 1156.59 193.09C1157.1 194.129 1157.77 194.965 1158.61 195.598C1159.47 196.206 1160.46 196.51 1161.57 196.51C1162.46 196.51 1163.35 196.345 1164.23 196.016C1165.12 195.661 1165.92 195.205 1166.63 194.648C1167.36 194.091 1167.89 193.495 1168.22 192.862L1169.97 193.394C1169.46 194.331 1168.75 195.167 1167.84 195.902C1166.93 196.611 1165.9 197.181 1164.76 197.612C1163.65 198.017 1162.52 198.22 1161.38 198.22ZM1179.55 198.22C1177.98 198.22 1176.63 197.84 1175.49 197.08C1174.37 196.32 1173.51 195.307 1172.9 194.04C1172.29 192.773 1171.98 191.38 1171.95 189.86C1171.93 188.315 1172.18 186.82 1172.71 185.376C1173.27 183.932 1174.05 182.64 1175.07 181.5C1176.11 180.335 1177.31 179.423 1178.68 178.764C1180.07 178.08 1181.59 177.738 1183.24 177.738C1184.43 177.738 1185.51 177.941 1186.47 178.346C1187.46 178.751 1188.23 179.347 1188.79 180.132C1189.37 180.917 1189.67 181.918 1189.7 183.134C1189.72 185.135 1188.89 186.567 1187.19 187.428C1185.52 188.289 1182.93 188.72 1179.44 188.72C1178.58 188.72 1177.64 188.707 1176.63 188.682C1175.61 188.631 1174.47 188.555 1173.21 188.454L1173.55 187.048C1174.84 187.124 1175.95 187.187 1176.89 187.238C1177.83 187.263 1178.72 187.276 1179.55 187.276C1181.68 187.276 1183.35 187.124 1184.57 186.82C1185.78 186.491 1186.65 186.022 1187.15 185.414C1187.68 184.781 1187.94 184.021 1187.91 183.134C1187.91 182.222 1187.67 181.487 1187.19 180.93C1186.73 180.373 1186.14 179.967 1185.4 179.714C1184.67 179.435 1183.88 179.296 1183.05 179.296C1181.71 179.296 1180.46 179.6 1179.32 180.208C1178.21 180.791 1177.23 181.589 1176.4 182.602C1175.59 183.59 1174.97 184.692 1174.54 185.908C1174.11 187.124 1173.89 188.353 1173.89 189.594C1173.92 190.911 1174.16 192.115 1174.61 193.204C1175.09 194.268 1175.78 195.117 1176.66 195.75C1177.55 196.383 1178.64 196.7 1179.93 196.7C1181.4 196.7 1182.73 196.345 1183.92 195.636C1185.11 194.901 1186.04 193.926 1186.7 192.71L1188.33 193.204C1187.77 194.192 1187.05 195.066 1186.16 195.826C1185.28 196.586 1184.28 197.181 1183.16 197.612C1182.05 198.017 1180.84 198.22 1179.55 198.22ZM1197.47 196.092H1202.6L1206.32 178.536C1206.07 178.84 1205.68 179.169 1205.14 179.524C1204.61 179.879 1204.02 180.221 1203.36 180.55C1202.7 180.879 1202.05 181.145 1201.42 181.348C1200.79 181.551 1200.23 181.652 1199.75 181.652L1200.13 179.752C1200.74 179.752 1201.41 179.587 1202.14 179.258C1202.88 178.903 1203.59 178.511 1204.27 178.08C1204.95 177.624 1205.54 177.206 1206.02 176.826C1206.5 176.446 1206.76 176.218 1206.82 176.142H1208.75L1204.54 196.092H1209.13L1208.75 197.84H1197.09L1197.47 196.092ZM1218.11 198.106C1216.62 198.106 1215.33 197.815 1214.24 197.232C1213.17 196.649 1212.35 195.864 1211.77 194.876C1211.21 193.888 1210.93 192.799 1210.93 191.608C1210.93 190.164 1211.29 188.897 1212 187.808C1212.73 186.693 1213.64 185.756 1214.73 184.996C1215.82 184.236 1216.9 183.691 1217.96 183.362C1217 182.957 1216.19 182.336 1215.53 181.5C1214.9 180.664 1214.58 179.676 1214.58 178.536C1214.58 177.295 1214.86 176.205 1215.42 175.268C1216 174.331 1216.76 173.533 1217.7 172.874C1218.63 172.215 1219.66 171.721 1220.77 171.392C1221.89 171.037 1222.98 170.86 1224.04 170.86C1225.16 170.86 1226.22 171.075 1227.23 171.506C1228.25 171.937 1229.07 172.57 1229.7 173.406C1230.34 174.242 1230.65 175.255 1230.65 176.446C1230.65 177.611 1230.36 178.65 1229.78 179.562C1229.22 180.449 1228.49 181.209 1227.58 181.842C1226.66 182.475 1225.71 182.982 1224.73 183.362C1225.92 183.818 1226.89 184.565 1227.65 185.604C1228.44 186.617 1228.83 187.833 1228.83 189.252C1228.83 190.569 1228.53 191.773 1227.92 192.862C1227.31 193.951 1226.49 194.889 1225.45 195.674C1224.43 196.459 1223.29 197.067 1222.03 197.498C1220.76 197.903 1219.46 198.106 1218.11 198.106ZM1218.61 196.434C1219.54 196.434 1220.49 196.269 1221.46 195.94C1222.42 195.585 1223.31 195.104 1224.12 194.496C1224.95 193.863 1225.62 193.115 1226.13 192.254C1226.64 191.367 1226.89 190.392 1226.89 189.328C1226.89 188.239 1226.61 187.314 1226.06 186.554C1225.5 185.794 1224.78 185.211 1223.89 184.806C1223 184.401 1222.08 184.198 1221.12 184.198C1220.2 184.198 1219.27 184.375 1218.3 184.73C1217.34 185.059 1216.44 185.541 1215.61 186.174C1214.79 186.807 1214.14 187.567 1213.63 188.454C1213.12 189.315 1212.87 190.278 1212.87 191.342C1212.87 192.406 1213.15 193.318 1213.71 194.078C1214.26 194.838 1214.98 195.421 1215.87 195.826C1216.76 196.231 1217.67 196.434 1218.61 196.434ZM1221.5 182.64C1222.26 182.64 1223.05 182.513 1223.89 182.26C1224.73 182.007 1225.5 181.627 1226.21 181.12C1226.94 180.613 1227.54 179.993 1227.99 179.258C1228.45 178.523 1228.68 177.7 1228.68 176.788C1228.68 175.901 1228.44 175.154 1227.96 174.546C1227.5 173.938 1226.89 173.469 1226.13 173.14C1225.37 172.785 1224.54 172.608 1223.62 172.608C1222.48 172.608 1221.37 172.849 1220.28 173.33C1219.19 173.786 1218.28 174.457 1217.54 175.344C1216.83 176.205 1216.48 177.231 1216.48 178.422C1216.48 179.309 1216.72 180.081 1217.2 180.74C1217.71 181.373 1218.34 181.855 1219.1 182.184C1219.89 182.488 1220.68 182.64 1221.5 182.64ZM1237.8 198.106C1236.3 198.106 1235.01 197.815 1233.92 197.232C1232.86 196.649 1232.04 195.864 1231.45 194.876C1230.9 193.888 1230.62 192.799 1230.62 191.608C1230.62 190.164 1230.97 188.897 1231.68 187.808C1232.42 186.693 1233.33 185.756 1234.42 184.996C1235.51 184.236 1236.58 183.691 1237.65 183.362C1236.68 182.957 1235.87 182.336 1235.22 181.5C1234.58 180.664 1234.27 179.676 1234.27 178.536C1234.27 177.295 1234.54 176.205 1235.1 175.268C1235.68 174.331 1236.44 173.533 1237.38 172.874C1238.32 172.215 1239.34 171.721 1240.46 171.392C1241.57 171.037 1242.66 170.86 1243.73 170.86C1244.84 170.86 1245.91 171.075 1246.92 171.506C1247.93 171.937 1248.76 172.57 1249.39 173.406C1250.02 174.242 1250.34 175.255 1250.34 176.446C1250.34 177.611 1250.05 178.65 1249.47 179.562C1248.91 180.449 1248.17 181.209 1247.26 181.842C1246.35 182.475 1245.4 182.982 1244.41 183.362C1245.6 183.818 1246.58 184.565 1247.34 185.604C1248.12 186.617 1248.52 187.833 1248.52 189.252C1248.52 190.569 1248.21 191.773 1247.6 192.862C1247 193.951 1246.17 194.889 1245.13 195.674C1244.12 196.459 1242.98 197.067 1241.71 197.498C1240.45 197.903 1239.14 198.106 1237.8 198.106ZM1238.29 196.434C1239.23 196.434 1240.18 196.269 1241.14 195.94C1242.11 195.585 1242.99 195.104 1243.8 194.496C1244.64 193.863 1245.31 193.115 1245.82 192.254C1246.32 191.367 1246.58 190.392 1246.58 189.328C1246.58 188.239 1246.3 187.314 1245.74 186.554C1245.18 185.794 1244.46 185.211 1243.58 184.806C1242.69 184.401 1241.76 184.198 1240.8 184.198C1239.89 184.198 1238.95 184.375 1237.99 184.73C1237.03 185.059 1236.13 185.541 1235.29 186.174C1234.48 186.807 1233.82 187.567 1233.32 188.454C1232.81 189.315 1232.56 190.278 1232.56 191.342C1232.56 192.406 1232.83 193.318 1233.39 194.078C1233.95 194.838 1234.67 195.421 1235.56 195.826C1236.44 196.231 1237.36 196.434 1238.29 196.434ZM1241.18 182.64C1241.94 182.64 1242.74 182.513 1243.58 182.26C1244.41 182.007 1245.18 181.627 1245.89 181.12C1246.63 180.613 1247.22 179.993 1247.68 179.258C1248.14 178.523 1248.36 177.7 1248.36 176.788C1248.36 175.901 1248.12 175.154 1247.64 174.546C1247.19 173.938 1246.58 173.469 1245.82 173.14C1245.06 172.785 1244.22 172.608 1243.31 172.608C1242.17 172.608 1241.05 172.849 1239.97 173.33C1238.88 173.786 1237.96 174.457 1237.23 175.344C1236.52 176.205 1236.17 177.231 1236.17 178.422C1236.17 179.309 1236.41 180.081 1236.89 180.74C1237.39 181.373 1238.03 181.855 1238.79 182.184C1239.57 182.488 1240.37 182.64 1241.18 182.64ZM1255.36 203.502C1253.53 203.502 1251.99 203.008 1250.72 202.02C1249.48 201.057 1248.67 199.778 1248.29 198.182L1249.85 197.384C1250.23 198.701 1250.94 199.753 1251.98 200.538C1253.01 201.349 1254.26 201.754 1255.7 201.754C1256.81 201.754 1257.88 201.539 1258.89 201.108C1259.91 200.703 1260.82 200.107 1261.63 199.322C1262.44 198.562 1263.07 197.675 1263.53 196.662C1263.98 195.623 1264.21 194.509 1264.21 193.318C1264.21 191.697 1263.72 190.379 1262.73 189.366C1261.77 188.327 1260.5 187.808 1258.93 187.808C1257.71 187.808 1256.51 188.099 1255.32 188.682C1254.13 189.239 1253.08 190.05 1252.17 191.114H1250.34C1250.44 190.861 1250.66 190.329 1250.99 189.518C1251.32 188.682 1251.71 187.707 1252.17 186.592C1252.62 185.452 1253.09 184.287 1253.57 183.096C1254.05 181.88 1254.5 180.753 1254.9 179.714C1255.33 178.65 1255.69 177.789 1255.97 177.13C1256.24 176.471 1256.38 176.142 1256.38 176.142H1268.66L1268.28 177.928H1257.41L1253.19 188.606C1254.08 187.795 1255.07 187.175 1256.16 186.744C1257.25 186.288 1258.35 186.06 1259.46 186.06C1260.8 186.06 1261.98 186.351 1263 186.934C1264.01 187.517 1264.79 188.327 1265.35 189.366C1265.91 190.405 1266.19 191.608 1266.19 192.976C1266.19 194.521 1265.88 195.94 1265.28 197.232C1264.67 198.499 1263.84 199.601 1262.81 200.538C1261.77 201.475 1260.6 202.197 1259.31 202.704C1258.02 203.236 1256.7 203.502 1255.36 203.502Z" fill="white"/>
</svg>

