<svg width="1276" height="310" viewBox="0 0 1276 310" fill="none" xmlns="http://www.w3.org/2000/svg">
<path d="M217.504 216.08C208.768 216.08 201.072 214 194.416 209.84C187.76 205.68 182.491 200.272 178.608 193.616V258.304H155.728V105.216H175.904V124.768C180.064 118.251 185.472 113.051 192.128 109.168C198.784 105.285 206.203 103.344 214.384 103.344C221.872 103.344 228.736 104.869 234.976 107.92C241.216 110.832 246.624 114.923 251.2 120.192C255.776 125.461 259.312 131.493 261.808 138.288C264.443 144.944 265.76 152.016 265.76 159.504C265.76 169.904 263.68 179.403 259.52 188C255.499 196.597 249.813 203.461 242.464 208.592C235.253 213.584 226.933 216.08 217.504 216.08ZM210.016 196.528C214.869 196.528 219.237 195.488 223.12 193.408C227.141 191.328 230.539 188.555 233.312 185.088C236.224 181.621 238.443 177.669 239.968 173.232C241.493 168.795 242.256 164.219 242.256 159.504C242.256 154.512 241.424 149.797 239.76 145.36C238.096 140.923 235.669 137.04 232.48 133.712C229.429 130.384 225.824 127.749 221.664 125.808C217.643 123.867 213.205 122.896 208.352 122.896C205.44 122.896 202.389 123.451 199.2 124.56C196.011 125.669 193.029 127.195 190.256 129.136C187.483 131.077 185.056 133.365 182.976 136C180.896 138.635 179.44 141.408 178.608 144.32V172.816C180.549 177.253 183.115 181.275 186.304 184.88C189.493 188.347 193.168 191.189 197.328 193.408C201.488 195.488 205.717 196.528 210.016 196.528ZM333.417 216.08C324.82 216.08 317.124 214.624 310.329 211.712C303.535 208.661 297.641 204.501 292.649 199.232C287.796 193.963 284.052 188 281.417 181.344C278.783 174.549 277.465 167.339 277.465 159.712C277.465 152.085 278.783 144.875 281.417 138.08C284.052 131.285 287.796 125.323 292.649 120.192C297.641 114.923 303.535 110.832 310.329 107.92C317.263 104.869 324.959 103.344 333.417 103.344C341.876 103.344 349.503 104.869 356.297 107.92C363.231 110.832 369.124 114.923 373.977 120.192C378.969 125.323 382.783 131.285 385.417 138.08C388.052 144.875 389.369 152.085 389.369 159.712C389.369 167.339 388.052 174.549 385.417 181.344C382.783 188 378.969 193.963 373.977 199.232C369.124 204.501 363.231 208.661 356.297 211.712C349.503 214.624 341.876 216.08 333.417 216.08ZM300.969 159.92C300.969 166.853 302.425 173.093 305.337 178.64C308.249 184.187 312.132 188.555 316.985 191.744C321.839 194.933 327.316 196.528 333.417 196.528C339.38 196.528 344.788 194.933 349.641 191.744C354.633 188.416 358.585 183.979 361.497 178.432C364.409 172.747 365.865 166.507 365.865 159.712C365.865 152.779 364.409 146.539 361.497 140.992C358.585 135.445 354.633 131.077 349.641 127.888C344.788 124.56 339.38 122.896 333.417 122.896C327.316 122.896 321.839 124.56 316.985 127.888C312.132 131.216 308.249 135.653 305.337 141.2C302.425 146.608 300.969 152.848 300.969 159.92ZM408.07 62.16H430.95V182.592C430.95 188.139 431.782 191.675 433.446 193.2C435.11 194.725 437.19 195.488 439.686 195.488C442.46 195.488 445.025 195.211 447.382 194.656C449.878 194.101 452.028 193.408 453.83 192.576L457.158 210.672C453.83 212.059 449.878 213.237 445.302 214.208C440.726 215.179 436.636 215.664 433.03 215.664C425.265 215.664 419.164 213.515 414.726 209.216C410.289 204.779 408.07 198.677 408.07 190.912V62.16ZM467.697 239.584C469.777 239.861 471.788 240.139 473.729 240.416C475.809 240.832 477.473 241.04 478.721 241.04C481.078 241.04 483.089 240.277 484.753 238.752C486.556 237.365 488.358 234.731 490.161 230.848C491.964 226.965 494.182 221.349 496.817 214L452.097 105.216H476.017L509.297 190.704L538.833 105.216H560.881L511.585 239.168C510.06 243.189 507.841 246.864 504.929 250.192C502.017 253.659 498.412 256.363 494.113 258.304C489.814 260.245 484.753 261.216 478.929 261.216C477.265 261.216 475.532 261.077 473.729 260.8C471.926 260.523 469.916 260.107 467.697 259.552V239.584ZM636.431 208.384C634.49 209.355 632.063 210.395 629.151 211.504C626.239 212.613 622.911 213.584 619.167 214.416C615.562 215.248 611.818 215.664 607.935 215.664C603.22 215.664 598.852 214.832 594.831 213.168C590.81 211.504 587.551 208.869 585.055 205.264C582.698 201.52 581.519 196.736 581.519 190.912V122.896H567.167V105.216H581.519V69.44H604.399V105.216H628.111V122.896H604.399V183.632C604.676 187.376 605.855 190.149 607.935 191.952C610.154 193.755 612.858 194.656 616.047 194.656C619.236 194.656 622.287 194.101 625.199 192.992C628.111 191.883 630.26 190.981 631.647 190.288L636.431 208.384ZM698.352 216.08C689.894 216.08 682.198 214.624 675.264 211.712C668.47 208.661 662.576 204.571 657.584 199.44C652.592 194.171 648.71 188.208 645.936 181.552C643.302 174.757 641.984 167.547 641.984 159.92C641.984 149.659 644.342 140.299 649.056 131.84C653.771 123.243 660.358 116.379 668.816 111.248C677.275 105.979 687.19 103.344 698.56 103.344C709.931 103.344 719.707 105.979 727.888 111.248C736.208 116.379 742.656 123.173 747.232 131.632C751.808 140.091 754.096 149.173 754.096 158.88C754.096 160.544 754.027 162.139 753.888 163.664C753.75 165.051 753.611 166.229 753.472 167.2H666.32C666.736 173.579 668.47 179.195 671.52 184.048C674.71 188.763 678.731 192.507 683.584 195.28C688.438 197.915 693.638 199.232 699.184 199.232C705.286 199.232 711.04 197.707 716.448 194.656C721.995 191.605 725.739 187.584 727.68 182.592L747.232 188.208C744.875 193.477 741.27 198.261 736.416 202.56C731.702 206.72 726.086 210.048 719.568 212.544C713.051 214.901 705.979 216.08 698.352 216.08ZM665.696 152.016H731.424C731.008 145.776 729.206 140.299 726.016 135.584C722.966 130.731 719.014 126.987 714.16 124.352C709.446 121.579 704.176 120.192 698.352 120.192C692.667 120.192 687.398 121.579 682.544 124.352C677.83 126.987 673.947 130.731 670.896 135.584C667.846 140.299 666.112 145.776 665.696 152.016ZM820.255 216.08C811.797 216.08 804.101 214.624 797.167 211.712C790.373 208.661 784.479 204.501 779.487 199.232C774.495 193.963 770.613 187.931 767.839 181.136C765.205 174.341 763.887 167.131 763.887 159.504C763.887 149.243 766.175 139.883 770.751 131.424C775.466 122.965 781.983 116.171 790.303 111.04C798.762 105.909 808.746 103.344 820.255 103.344C831.349 103.344 840.986 105.84 849.167 110.832C857.487 115.685 863.589 122.203 867.471 130.384L845.215 137.456C842.719 132.88 839.183 129.344 834.607 126.848C830.17 124.213 825.247 122.896 819.839 122.896C813.738 122.896 808.191 124.491 803.199 127.68C798.346 130.731 794.463 135.029 791.551 140.576C788.778 145.984 787.391 152.293 787.391 159.504C787.391 166.437 788.847 172.747 791.759 178.432C794.671 183.979 798.554 188.416 803.407 191.744C808.399 194.933 813.946 196.528 820.047 196.528C823.791 196.528 827.397 195.904 830.863 194.656C834.469 193.269 837.589 191.467 840.223 189.248C842.858 186.891 844.73 184.325 845.839 181.552L868.303 188.208C865.946 193.616 862.41 198.4 857.695 202.56C853.119 206.72 847.642 210.048 841.263 212.544C835.023 214.901 828.021 216.08 820.255 216.08ZM982.899 214H960.019V153.056C960.019 143.211 958.216 135.861 954.611 131.008C951.006 126.155 945.944 123.728 939.427 123.728C935.406 123.728 931.246 124.837 926.947 127.056C922.648 129.275 918.835 132.325 915.507 136.208C912.179 139.952 909.752 144.32 908.227 149.312V214H885.347V62.16H908.227V127.056C912.387 119.707 918.072 113.952 925.283 109.792C932.494 105.493 940.259 103.344 948.579 103.344C955.374 103.344 960.99 104.523 965.427 106.88C969.864 109.237 973.331 112.496 975.827 116.656C978.462 120.677 980.264 125.392 981.235 130.8C982.344 136.069 982.899 141.685 982.899 147.648V214ZM1105.21 214H1082.33V153.056C1082.33 142.933 1080.66 135.515 1077.34 130.8C1074.15 126.085 1069.36 123.728 1062.98 123.728C1058.55 123.728 1054.11 124.837 1049.67 127.056C1045.37 129.275 1041.49 132.325 1038.02 136.208C1034.56 139.952 1032.06 144.32 1030.54 149.312V214H1007.66V105.216H1028.46V127.056C1031.23 122.203 1034.83 118.043 1039.27 114.576C1043.85 110.971 1048.98 108.197 1054.66 106.256C1060.35 104.315 1066.38 103.344 1072.76 103.344C1079.28 103.344 1084.62 104.523 1088.78 106.88C1093.07 109.237 1096.4 112.496 1098.76 116.656C1101.26 120.677 1102.92 125.392 1103.75 130.8C1104.72 136.069 1105.21 141.685 1105.21 147.648V214ZM1129.97 214V105.216H1152.85V214H1129.97ZM1129.97 87.328V62.16H1152.85V87.328H1129.97ZM1227.84 216.08C1219.38 216.08 1211.68 214.624 1204.75 211.712C1197.95 208.661 1192.06 204.501 1187.07 199.232C1182.08 193.963 1178.19 187.931 1175.42 181.136C1172.79 174.341 1171.47 167.131 1171.47 159.504C1171.47 149.243 1173.76 139.883 1178.33 131.424C1183.05 122.965 1189.56 116.171 1197.88 111.04C1206.34 105.909 1216.33 103.344 1227.84 103.344C1238.93 103.344 1248.57 105.84 1256.75 110.832C1265.07 115.685 1271.17 122.203 1275.05 130.384L1252.8 137.456C1250.3 132.88 1246.76 129.344 1242.19 126.848C1237.75 124.213 1232.83 122.896 1227.42 122.896C1221.32 122.896 1215.77 124.491 1210.78 127.68C1205.93 130.731 1202.04 135.029 1199.13 140.576C1196.36 145.984 1194.97 152.293 1194.97 159.504C1194.97 166.437 1196.43 172.747 1199.34 178.432C1202.25 183.979 1206.14 188.416 1210.99 191.744C1215.98 194.933 1221.53 196.528 1227.63 196.528C1231.37 196.528 1234.98 195.904 1238.44 194.656C1242.05 193.269 1245.17 191.467 1247.8 189.248C1250.44 186.891 1252.31 184.325 1253.42 181.552L1275.88 188.208C1273.53 193.616 1269.99 198.4 1265.28 202.56C1260.7 206.72 1255.22 210.048 1248.84 212.544C1242.6 214.901 1235.6 216.08 1227.84 216.08Z" fill="white"/>
<path d="M109.216 225.199C109.293 225.354 109.641 225.972 110.26 227.055C110.801 228.138 111.343 229.53 111.884 231.231C112.348 232.855 112.58 234.75 112.58 236.915C112.58 238.926 112.193 240.782 111.42 242.483C110.647 244.184 109.525 245.538 108.056 246.543C106.509 247.548 104.692 248.051 102.604 248.051H55.1601V256.635H51.6801V248.051H30.9161V244.107H51.6801V229.839H55.1601V244.107H102.024C104.267 243.952 105.968 243.102 107.128 241.555C108.288 240.008 108.868 238.23 108.868 236.219C108.868 233.667 108.443 231.502 107.592 229.723C106.664 227.867 106.123 226.862 105.968 226.707L109.216 225.199ZM112 168.461V172.405H78.3601C70.4721 172.405 64.5174 173.758 60.4961 176.465C56.4748 179.172 54.4641 183.116 54.4641 188.297C54.4641 191.777 55.3534 195.218 57.1321 198.621C58.8334 201.946 61.1921 204.846 64.2081 207.321C67.1468 209.718 70.5108 211.458 74.3001 212.541H112V216.485H27.3201V212.541H66.7601C61.8881 210.066 58.0214 206.586 55.1601 202.101C52.2214 197.538 50.7521 192.705 50.7521 187.601C50.7521 184.353 51.3708 181.569 52.6081 179.249C53.7681 176.852 55.5468 174.88 57.9441 173.333C60.2641 171.709 63.0868 170.51 66.4121 169.737C69.7374 168.886 73.5654 168.461 77.8961 168.461H112ZM113.16 127.073C113.16 131.094 112.348 134.922 110.724 138.557C109.023 142.114 106.741 145.246 103.88 147.953C100.941 150.582 97.5774 152.67 93.7881 154.217C89.9214 155.686 85.8228 156.421 81.4921 156.421C75.8468 156.421 70.7041 155.145 66.0641 152.593C61.4241 150.041 57.7121 146.599 54.9281 142.269C52.1441 137.861 50.7521 132.95 50.7521 127.537C50.7521 121.969 52.1828 117.019 55.0441 112.689C57.8281 108.281 61.5788 104.762 66.2961 102.133C70.9361 99.5033 76.1174 98.1886 81.8401 98.1886C82.1494 98.1886 82.4588 98.1886 82.7681 98.1886C83.0774 98.1886 83.3868 98.2273 83.6961 98.3046V152.361C88.5681 151.974 92.9761 150.621 96.9201 148.301C100.864 145.903 103.996 142.849 106.316 139.137C108.636 135.347 109.796 131.249 109.796 126.841C109.796 122.433 108.675 118.295 106.432 114.429C104.112 110.562 101.173 107.817 97.6161 106.193L98.5441 102.597C101.328 103.757 103.841 105.574 106.084 108.049C108.327 110.523 110.067 113.423 111.304 116.749C112.541 119.997 113.16 123.438 113.16 127.073ZM80.3321 152.477V102.133C75.2281 102.442 70.7428 103.757 66.8761 106.077C62.9321 108.319 59.8388 111.297 57.5961 115.009C55.3534 118.721 54.2321 122.858 54.2321 127.421C54.2321 131.906 55.3534 136.005 57.5961 139.717C59.8388 143.351 62.9321 146.329 66.8761 148.649C70.8201 150.891 75.3054 152.167 80.3321 152.477Z" fill="white"/>
<path d="M157.41 217.811C190.778 244.136 239.867 237.541 267.054 203.081C294.241 168.62 289.231 119.344 255.863 93.0193C222.496 66.6944 173.406 73.2895 146.219 107.75C119.032 142.21 124.043 191.487 157.41 217.811Z" stroke="#CC4557" stroke-width="18" stroke-linecap="round" stroke-linejoin="round"/>
<path d="M159.286 218.327L105.906 288.785" stroke="#CC4557" stroke-width="12" stroke-linecap="round" stroke-linejoin="round"/>
</svg>
