<svg width="1374" height="310" viewBox="0 0 1374 310" fill="none" xmlns="http://www.w3.org/2000/svg">
<path d="M217.504 216.08C208.768 216.08 201.072 214 194.416 209.84C187.76 205.68 182.491 200.272 178.608 193.616V258.304H155.728V105.216H175.904V124.768C180.064 118.251 185.472 113.051 192.128 109.168C198.784 105.285 206.203 103.344 214.384 103.344C221.872 103.344 228.736 104.869 234.976 107.92C241.216 110.832 246.624 114.923 251.2 120.192C255.776 125.461 259.312 131.493 261.808 138.288C264.443 144.944 265.76 152.016 265.76 159.504C265.76 169.904 263.68 179.403 259.52 188C255.499 196.597 249.813 203.461 242.464 208.592C235.253 213.584 226.933 216.08 217.504 216.08ZM210.016 196.528C214.869 196.528 219.237 195.488 223.12 193.408C227.141 191.328 230.539 188.555 233.312 185.088C236.224 181.621 238.443 177.669 239.968 173.232C241.493 168.795 242.256 164.219 242.256 159.504C242.256 154.512 241.424 149.797 239.76 145.36C238.096 140.923 235.669 137.04 232.48 133.712C229.429 130.384 225.824 127.749 221.664 125.808C217.643 123.867 213.205 122.896 208.352 122.896C205.44 122.896 202.389 123.451 199.2 124.56C196.011 125.669 193.029 127.195 190.256 129.136C187.483 131.077 185.056 133.365 182.976 136C180.896 138.635 179.44 141.408 178.608 144.32V172.816C180.549 177.253 183.115 181.275 186.304 184.88C189.493 188.347 193.168 191.189 197.328 193.408C201.488 195.488 205.717 196.528 210.016 196.528ZM333.417 216.08C324.82 216.08 317.124 214.624 310.329 211.712C303.535 208.661 297.641 204.501 292.649 199.232C287.796 193.963 284.052 188 281.417 181.344C278.783 174.549 277.465 167.339 277.465 159.712C277.465 152.085 278.783 144.875 281.417 138.08C284.052 131.285 287.796 125.323 292.649 120.192C297.641 114.923 303.535 110.832 310.329 107.92C317.263 104.869 324.959 103.344 333.417 103.344C341.876 103.344 349.503 104.869 356.297 107.92C363.231 110.832 369.124 114.923 373.977 120.192C378.969 125.323 382.783 131.285 385.417 138.08C388.052 144.875 389.369 152.085 389.369 159.712C389.369 167.339 388.052 174.549 385.417 181.344C382.783 188 378.969 193.963 373.977 199.232C369.124 204.501 363.231 208.661 356.297 211.712C349.503 214.624 341.876 216.08 333.417 216.08ZM300.969 159.92C300.969 166.853 302.425 173.093 305.337 178.64C308.249 184.187 312.132 188.555 316.985 191.744C321.839 194.933 327.316 196.528 333.417 196.528C339.38 196.528 344.788 194.933 349.641 191.744C354.633 188.416 358.585 183.979 361.497 178.432C364.409 172.747 365.865 166.507 365.865 159.712C365.865 152.779 364.409 146.539 361.497 140.992C358.585 135.445 354.633 131.077 349.641 127.888C344.788 124.56 339.38 122.896 333.417 122.896C327.316 122.896 321.839 124.56 316.985 127.888C312.132 131.216 308.249 135.653 305.337 141.2C302.425 146.608 300.969 152.848 300.969 159.92ZM408.07 62.16H430.95V182.592C430.95 188.139 431.782 191.675 433.446 193.2C435.11 194.725 437.19 195.488 439.686 195.488C442.46 195.488 445.025 195.211 447.382 194.656C449.878 194.101 452.028 193.408 453.83 192.576L457.158 210.672C453.83 212.059 449.878 213.237 445.302 214.208C440.726 215.179 436.636 215.664 433.03 215.664C425.265 215.664 419.164 213.515 414.726 209.216C410.289 204.779 408.07 198.677 408.07 190.912V62.16ZM467.697 239.584C469.777 239.861 471.788 240.139 473.729 240.416C475.809 240.832 477.473 241.04 478.721 241.04C481.078 241.04 483.089 240.277 484.753 238.752C486.556 237.365 488.358 234.731 490.161 230.848C491.964 226.965 494.182 221.349 496.817 214L452.097 105.216H476.017L509.297 190.704L538.833 105.216H560.881L511.585 239.168C510.06 243.189 507.841 246.864 504.929 250.192C502.017 253.659 498.412 256.363 494.113 258.304C489.814 260.245 484.753 261.216 478.929 261.216C477.265 261.216 475.532 261.077 473.729 260.8C471.926 260.523 469.916 260.107 467.697 259.552V239.584ZM636.431 208.384C634.49 209.355 632.063 210.395 629.151 211.504C626.239 212.613 622.911 213.584 619.167 214.416C615.562 215.248 611.818 215.664 607.935 215.664C603.22 215.664 598.852 214.832 594.831 213.168C590.81 211.504 587.551 208.869 585.055 205.264C582.698 201.52 581.519 196.736 581.519 190.912V122.896H567.167V105.216H581.519V69.44H604.399V105.216H628.111V122.896H604.399V183.632C604.676 187.376 605.855 190.149 607.935 191.952C610.154 193.755 612.858 194.656 616.047 194.656C619.236 194.656 622.287 194.101 625.199 192.992C628.111 191.883 630.26 190.981 631.647 190.288L636.431 208.384ZM698.352 216.08C689.894 216.08 682.198 214.624 675.264 211.712C668.47 208.661 662.576 204.571 657.584 199.44C652.592 194.171 648.71 188.208 645.936 181.552C643.302 174.757 641.984 167.547 641.984 159.92C641.984 149.659 644.342 140.299 649.056 131.84C653.771 123.243 660.358 116.379 668.816 111.248C677.275 105.979 687.19 103.344 698.56 103.344C709.931 103.344 719.707 105.979 727.888 111.248C736.208 116.379 742.656 123.173 747.232 131.632C751.808 140.091 754.096 149.173 754.096 158.88C754.096 160.544 754.027 162.139 753.888 163.664C753.75 165.051 753.611 166.229 753.472 167.2H666.32C666.736 173.579 668.47 179.195 671.52 184.048C674.71 188.763 678.731 192.507 683.584 195.28C688.438 197.915 693.638 199.232 699.184 199.232C705.286 199.232 711.04 197.707 716.448 194.656C721.995 191.605 725.739 187.584 727.68 182.592L747.232 188.208C744.875 193.477 741.27 198.261 736.416 202.56C731.702 206.72 726.086 210.048 719.568 212.544C713.051 214.901 705.979 216.08 698.352 216.08ZM665.696 152.016H731.424C731.008 145.776 729.206 140.299 726.016 135.584C722.966 130.731 719.014 126.987 714.16 124.352C709.446 121.579 704.176 120.192 698.352 120.192C692.667 120.192 687.398 121.579 682.544 124.352C677.83 126.987 673.947 130.731 670.896 135.584C667.846 140.299 666.112 145.776 665.696 152.016ZM820.255 216.08C811.797 216.08 804.101 214.624 797.167 211.712C790.373 208.661 784.479 204.501 779.487 199.232C774.495 193.963 770.613 187.931 767.839 181.136C765.205 174.341 763.887 167.131 763.887 159.504C763.887 149.243 766.175 139.883 770.751 131.424C775.466 122.965 781.983 116.171 790.303 111.04C798.762 105.909 808.746 103.344 820.255 103.344C831.349 103.344 840.986 105.84 849.167 110.832C857.487 115.685 863.589 122.203 867.471 130.384L845.215 137.456C842.719 132.88 839.183 129.344 834.607 126.848C830.17 124.213 825.247 122.896 819.839 122.896C813.738 122.896 808.191 124.491 803.199 127.68C798.346 130.731 794.463 135.029 791.551 140.576C788.778 145.984 787.391 152.293 787.391 159.504C787.391 166.437 788.847 172.747 791.759 178.432C794.671 183.979 798.554 188.416 803.407 191.744C808.399 194.933 813.946 196.528 820.047 196.528C823.791 196.528 827.397 195.904 830.863 194.656C834.469 193.269 837.589 191.467 840.223 189.248C842.858 186.891 844.73 184.325 845.839 181.552L868.303 188.208C865.946 193.616 862.41 198.4 857.695 202.56C853.119 206.72 847.642 210.048 841.263 212.544C835.023 214.901 828.021 216.08 820.255 216.08ZM982.899 214H960.019V153.056C960.019 143.211 958.216 135.861 954.611 131.008C951.006 126.155 945.944 123.728 939.427 123.728C935.406 123.728 931.246 124.837 926.947 127.056C922.648 129.275 918.835 132.325 915.507 136.208C912.179 139.952 909.752 144.32 908.227 149.312V214H885.347V62.16H908.227V127.056C912.387 119.707 918.072 113.952 925.283 109.792C932.494 105.493 940.259 103.344 948.579 103.344C955.374 103.344 960.99 104.523 965.427 106.88C969.864 109.237 973.331 112.496 975.827 116.656C978.462 120.677 980.264 125.392 981.235 130.8C982.344 136.069 982.899 141.685 982.899 147.648V214ZM1105.21 214H1082.33V153.056C1082.33 142.933 1080.66 135.515 1077.34 130.8C1074.15 126.085 1069.36 123.728 1062.98 123.728C1058.55 123.728 1054.11 124.837 1049.67 127.056C1045.37 129.275 1041.49 132.325 1038.02 136.208C1034.56 139.952 1032.06 144.32 1030.54 149.312V214H1007.66V105.216H1028.46V127.056C1031.23 122.203 1034.83 118.043 1039.27 114.576C1043.85 110.971 1048.98 108.197 1054.66 106.256C1060.35 104.315 1066.38 103.344 1072.76 103.344C1079.28 103.344 1084.62 104.523 1088.78 106.88C1093.07 109.237 1096.4 112.496 1098.76 116.656C1101.26 120.677 1102.92 125.392 1103.75 130.8C1104.72 136.069 1105.21 141.685 1105.21 147.648V214ZM1129.97 214V105.216H1152.85V214H1129.97ZM1129.97 87.328V62.16H1152.85V87.328H1129.97ZM1227.84 216.08C1219.38 216.08 1211.68 214.624 1204.75 211.712C1197.95 208.661 1192.06 204.501 1187.07 199.232C1182.08 193.963 1178.19 187.931 1175.42 181.136C1172.79 174.341 1171.47 167.131 1171.47 159.504C1171.47 149.243 1173.76 139.883 1178.33 131.424C1183.05 122.965 1189.56 116.171 1197.88 111.04C1206.34 105.909 1216.33 103.344 1227.84 103.344C1238.93 103.344 1248.57 105.84 1256.75 110.832C1265.07 115.685 1271.17 122.203 1275.05 130.384L1252.8 137.456C1250.3 132.88 1246.76 129.344 1242.19 126.848C1237.75 124.213 1232.83 122.896 1227.42 122.896C1221.32 122.896 1215.77 124.491 1210.78 127.68C1205.93 130.731 1202.04 135.029 1199.13 140.576C1196.36 145.984 1194.97 152.293 1194.97 159.504C1194.97 166.437 1196.43 172.747 1199.34 178.432C1202.25 183.979 1206.14 188.416 1210.99 191.744C1215.98 194.933 1221.53 196.528 1227.63 196.528C1231.37 196.528 1234.98 195.904 1238.44 194.656C1242.05 193.269 1245.17 191.467 1247.8 189.248C1250.44 186.891 1252.31 184.325 1253.42 181.552L1275.88 188.208C1273.53 193.616 1269.99 198.4 1265.28 202.56C1260.7 206.72 1255.22 210.048 1248.84 212.544C1242.6 214.901 1235.6 216.08 1227.84 216.08Z" fill="white"/>
<path d="M109.216 225.199C109.293 225.354 109.641 225.972 110.26 227.055C110.801 228.138 111.343 229.53 111.884 231.231C112.348 232.855 112.58 234.75 112.58 236.915C112.58 238.926 112.193 240.782 111.42 242.483C110.647 244.184 109.525 245.538 108.056 246.543C106.509 247.548 104.692 248.051 102.604 248.051H55.1601V256.635H51.6801V248.051H30.9161V244.107H51.6801V229.839H55.1601V244.107H102.024C104.267 243.952 105.968 243.102 107.128 241.555C108.288 240.008 108.868 238.23 108.868 236.219C108.868 233.667 108.443 231.502 107.592 229.723C106.664 227.867 106.123 226.862 105.968 226.707L109.216 225.199ZM112 168.461V172.405H78.3601C70.4721 172.405 64.5174 173.758 60.4961 176.465C56.4748 179.172 54.4641 183.116 54.4641 188.297C54.4641 191.777 55.3534 195.218 57.1321 198.621C58.8334 201.946 61.1921 204.846 64.2081 207.321C67.1468 209.718 70.5108 211.458 74.3001 212.541H112V216.485H27.3201V212.541H66.7601C61.8881 210.066 58.0214 206.586 55.1601 202.101C52.2214 197.538 50.7521 192.705 50.7521 187.601C50.7521 184.353 51.3708 181.569 52.6081 179.249C53.7681 176.852 55.5468 174.88 57.9441 173.333C60.2641 171.709 63.0868 170.51 66.4121 169.737C69.7374 168.886 73.5654 168.461 77.8961 168.461H112ZM113.16 127.073C113.16 131.094 112.348 134.922 110.724 138.557C109.023 142.114 106.741 145.246 103.88 147.953C100.941 150.582 97.5774 152.67 93.7881 154.217C89.9214 155.686 85.8228 156.421 81.4921 156.421C75.8468 156.421 70.7041 155.145 66.0641 152.593C61.4241 150.041 57.7121 146.599 54.9281 142.269C52.1441 137.861 50.7521 132.95 50.7521 127.537C50.7521 121.969 52.1828 117.019 55.0441 112.689C57.8281 108.281 61.5788 104.762 66.2961 102.133C70.9361 99.5033 76.1174 98.1886 81.8401 98.1886C82.1494 98.1886 82.4588 98.1886 82.7681 98.1886C83.0774 98.1886 83.3868 98.2273 83.6961 98.3046V152.361C88.5681 151.974 92.9761 150.621 96.9201 148.301C100.864 145.903 103.996 142.849 106.316 139.137C108.636 135.347 109.796 131.249 109.796 126.841C109.796 122.433 108.675 118.295 106.432 114.429C104.112 110.562 101.173 107.817 97.6161 106.193L98.5441 102.597C101.328 103.757 103.841 105.574 106.084 108.049C108.327 110.523 110.067 113.423 111.304 116.749C112.541 119.997 113.16 123.438 113.16 127.073ZM80.3321 152.477V102.133C75.2281 102.442 70.7428 103.757 66.8761 106.077C62.9321 108.319 59.8388 111.297 57.5961 115.009C55.3534 118.721 54.2321 122.858 54.2321 127.421C54.2321 131.906 55.3534 136.005 57.5961 139.717C59.8388 143.351 62.9321 146.329 66.8761 148.649C70.8201 150.891 75.3054 152.167 80.3321 152.477Z" fill="white"/>
<path d="M558.139 265.44C556.291 265.44 554.575 265.161 552.991 264.604C551.407 264.017 550.116 263.181 549.119 262.096L551.319 259.5C552.375 260.497 553.49 261.245 554.663 261.744C555.866 262.213 557.142 262.448 558.491 262.448C559.664 262.448 560.691 262.287 561.571 261.964C562.48 261.612 563.184 261.128 563.683 260.512C564.182 259.867 564.431 259.133 564.431 258.312C564.431 257.256 563.991 256.537 563.111 256.156C562.231 255.745 560.926 255.291 559.195 254.792C557.758 254.352 556.555 253.941 555.587 253.56C554.648 253.179 553.944 252.695 553.475 252.108C553.035 251.492 552.815 250.656 552.815 249.6C552.815 248.016 553.255 246.637 554.135 245.464C555.015 244.261 556.203 243.323 557.699 242.648C559.195 241.973 560.882 241.636 562.759 241.636C564.49 241.636 566 241.915 567.291 242.472C568.582 243.029 569.638 243.763 570.459 244.672L568.215 247.004C567.482 246.153 566.66 245.537 565.751 245.156C564.842 244.775 563.786 244.584 562.583 244.584C561.439 244.584 560.412 244.745 559.503 245.068C558.623 245.361 557.919 245.816 557.391 246.432C556.892 247.048 556.643 247.811 556.643 248.72C556.643 249.629 556.966 250.275 557.611 250.656C558.256 251.008 559.386 251.404 560.999 251.844C562.583 252.284 563.918 252.753 565.003 253.252C566.118 253.721 566.954 254.308 567.511 255.012C568.068 255.716 568.347 256.655 568.347 257.828C568.347 259.265 567.922 260.556 567.071 261.7C566.25 262.844 565.076 263.753 563.551 264.428C562.026 265.103 560.222 265.44 558.139 265.44ZM579.29 265.44C577.383 265.44 575.755 265.015 574.406 264.164C573.057 263.284 572.03 262.111 571.326 260.644C570.622 259.177 570.27 257.535 570.27 255.716C570.27 253.868 570.607 252.108 571.282 250.436C571.986 248.735 572.969 247.224 574.23 245.904C575.491 244.584 576.958 243.543 578.63 242.78C580.331 242.017 582.179 241.636 584.174 241.636C585.67 241.636 586.99 241.871 588.134 242.34C589.307 242.809 590.217 243.499 590.862 244.408C591.507 245.317 591.83 246.461 591.83 247.84C591.83 250.157 590.803 251.917 588.75 253.12C586.697 254.323 583.543 254.924 579.29 254.924C578.498 254.924 577.589 254.909 576.562 254.88C575.535 254.821 574.347 254.733 572.998 254.616L573.526 251.976C574.817 252.035 575.917 252.093 576.826 252.152C577.765 252.211 578.63 252.24 579.422 252.24C581.651 252.24 583.411 252.049 584.702 251.668C585.993 251.287 586.917 250.759 587.474 250.084C588.061 249.409 588.354 248.647 588.354 247.796C588.354 247.033 588.163 246.417 587.782 245.948C587.43 245.479 586.917 245.127 586.242 244.892C585.597 244.657 584.819 244.54 583.91 244.54C582.443 244.54 581.109 244.848 579.906 245.464C578.733 246.08 577.706 246.916 576.826 247.972C575.975 249.028 575.315 250.231 574.846 251.58C574.406 252.9 574.186 254.279 574.186 255.716C574.186 256.919 574.391 258.048 574.802 259.104C575.213 260.131 575.843 260.967 576.694 261.612C577.545 262.228 578.615 262.536 579.906 262.536C581.255 262.536 582.575 262.199 583.866 261.524C585.157 260.82 586.169 259.881 586.902 258.708L590.026 259.632C589.322 260.747 588.398 261.744 587.254 262.624C586.11 263.504 584.849 264.193 583.47 264.692C582.121 265.191 580.727 265.44 579.29 265.44ZM596.281 242.032H599.889L598.745 247.356C599.859 245.772 601.121 244.481 602.529 243.484C603.966 242.487 605.389 241.988 606.797 241.988C607.061 241.988 607.281 242.003 607.457 242.032C607.662 242.032 607.823 242.047 607.941 242.076L607.237 245.42C605.418 245.449 603.702 245.948 602.089 246.916C600.475 247.855 599.199 249.16 598.261 250.832L595.269 265H591.397L596.281 242.032ZM607.395 242.032H611.399L613.995 261.612C615.169 259.969 616.269 258.341 617.295 256.728C618.322 255.085 619.261 253.457 620.111 251.844C620.962 250.201 621.71 248.559 622.355 246.916C623.03 245.273 623.573 243.645 623.983 242.032H627.679C626.623 245.845 625.025 249.673 622.883 253.516C620.742 257.329 618.19 261.157 615.227 265H611.047L607.395 242.032ZM630.579 242.032H634.451L629.567 265H625.695L630.579 242.032ZM632.515 232.88H636.387L635.375 237.72H631.503L632.515 232.88ZM638.705 242.032H642.225L641.169 246.96C641.961 245.875 642.9 244.936 643.985 244.144C645.1 243.352 646.288 242.736 647.549 242.296C648.81 241.856 650.072 241.636 651.333 241.636C652.565 241.636 653.548 241.871 654.281 242.34C655.014 242.78 655.542 243.411 655.865 244.232C656.188 245.024 656.349 245.963 656.349 247.048C656.349 247.693 656.29 248.368 656.173 249.072C656.085 249.776 655.968 250.509 655.821 251.272L652.917 265H649.045L651.773 252.152C651.92 251.507 652.022 250.92 652.081 250.392C652.14 249.835 652.169 249.321 652.169 248.852C652.169 247.561 651.905 246.623 651.377 246.036C650.849 245.42 650.072 245.112 649.045 245.112C648.077 245.112 647.05 245.376 645.965 245.904C644.88 246.432 643.868 247.151 642.929 248.06C641.99 248.94 641.228 249.967 640.641 251.14L637.693 265H633.821L638.705 242.032ZM663.982 274.812C661.518 274.812 659.596 274.357 658.218 273.448C656.839 272.539 655.798 271.307 655.094 269.752L657.734 267.772C658.32 269.121 659.215 270.133 660.418 270.808C661.65 271.483 663.043 271.82 664.598 271.82C665.918 271.82 667.179 271.556 668.382 271.028C669.614 270.529 670.684 269.752 671.594 268.696C672.503 267.64 673.119 266.32 673.442 264.736L674.278 260.688C673.192 262.096 671.858 263.211 670.274 264.032C668.719 264.853 667.164 265.264 665.61 265.264C663.967 265.264 662.544 264.839 661.342 263.988C660.168 263.108 659.274 261.964 658.658 260.556C658.042 259.119 657.734 257.564 657.734 255.892C657.734 254.044 658.071 252.269 658.746 250.568C659.45 248.867 660.403 247.356 661.606 246.036C662.808 244.687 664.187 243.616 665.742 242.824C667.326 242.032 668.983 241.636 670.714 241.636C672.532 241.636 673.999 242.105 675.114 243.044C676.258 243.983 677.138 245.171 677.754 246.608L678.722 242.032H682.154L677.314 264.736C676.874 266.907 675.994 268.74 674.674 270.236C673.354 271.732 671.755 272.861 669.878 273.624C668.03 274.416 666.064 274.812 663.982 274.812ZM667.502 262.096C668.264 262.096 669.027 261.949 669.79 261.656C670.582 261.363 671.315 260.981 671.99 260.512C672.694 260.013 673.31 259.456 673.838 258.84C674.395 258.224 674.82 257.593 675.114 256.948L676.522 250.348C676.375 249.292 676.023 248.368 675.466 247.576C674.908 246.755 674.219 246.124 673.398 245.684C672.606 245.215 671.74 244.98 670.802 244.98C669.54 244.98 668.367 245.288 667.282 245.904C666.196 246.52 665.228 247.341 664.378 248.368C663.556 249.365 662.911 250.465 662.442 251.668C661.972 252.871 661.738 254.073 661.738 255.276C661.738 256.508 661.972 257.652 662.442 258.708C662.94 259.735 663.615 260.556 664.466 261.172C665.346 261.788 666.358 262.096 667.502 262.096ZM692.489 261.788C692.489 261.583 692.503 261.377 692.533 261.172C692.562 260.937 692.591 260.717 692.621 260.512L695.921 245.068H692.929L693.589 242.032H696.537L698.165 234.376H702.037L700.409 242.032H705.293L704.633 245.068H699.793L696.757 259.324C696.727 259.441 696.698 259.559 696.669 259.676C696.669 259.764 696.669 259.867 696.669 259.984C696.669 260.6 696.859 261.055 697.241 261.348C697.622 261.612 698.091 261.744 698.649 261.744C699.147 261.744 699.617 261.685 700.057 261.568C700.526 261.421 700.937 261.275 701.289 261.128C701.641 260.981 701.905 260.864 702.081 260.776L702.301 263.856C701.949 264.091 701.479 264.325 700.893 264.56C700.306 264.795 699.646 264.971 698.913 265.088C698.179 265.235 697.417 265.308 696.625 265.308C695.451 265.308 694.469 265.029 693.677 264.472C692.885 263.885 692.489 262.991 692.489 261.788ZM710.484 232.88H714.356L711.364 246.96C712.567 245.317 714.004 244.027 715.676 243.088C717.377 242.12 719.093 241.636 720.824 241.636C722.115 241.636 723.141 241.885 723.904 242.384C724.696 242.853 725.253 243.513 725.576 244.364C725.928 245.215 726.104 246.212 726.104 247.356C726.104 247.943 726.06 248.573 725.972 249.248C725.913 249.893 725.811 250.568 725.664 251.272L722.76 265H718.888L721.616 252.152C721.733 251.565 721.821 251.037 721.88 250.568C721.939 250.069 721.968 249.6 721.968 249.16C721.968 247.811 721.675 246.799 721.088 246.124C720.531 245.449 719.695 245.112 718.58 245.112C717.671 245.112 716.688 245.376 715.632 245.904C714.605 246.432 713.623 247.151 712.684 248.06C711.775 248.94 711.041 249.967 710.484 251.14L707.536 265H703.664L710.484 232.88ZM736.641 265.44C734.734 265.44 733.106 265.015 731.757 264.164C730.407 263.284 729.381 262.111 728.677 260.644C727.973 259.177 727.621 257.535 727.621 255.716C727.621 253.868 727.958 252.108 728.633 250.436C729.337 248.735 730.319 247.224 731.581 245.904C732.842 244.584 734.309 243.543 735.981 242.78C737.682 242.017 739.53 241.636 741.525 241.636C743.021 241.636 744.341 241.871 745.485 242.34C746.658 242.809 747.567 243.499 748.213 244.408C748.858 245.317 749.181 246.461 749.181 247.84C749.181 250.157 748.154 251.917 746.101 253.12C744.047 254.323 740.894 254.924 736.641 254.924C735.849 254.924 734.939 254.909 733.913 254.88C732.886 254.821 731.698 254.733 730.349 254.616L730.877 251.976C732.167 252.035 733.267 252.093 734.177 252.152C735.115 252.211 735.981 252.24 736.773 252.24C739.002 252.24 740.762 252.049 742.053 251.668C743.343 251.287 744.267 250.759 744.825 250.084C745.411 249.409 745.705 248.647 745.705 247.796C745.705 247.033 745.514 246.417 745.133 245.948C744.781 245.479 744.267 245.127 743.593 244.892C742.947 244.657 742.17 244.54 741.261 244.54C739.794 244.54 738.459 244.848 737.257 245.464C736.083 246.08 735.057 246.916 734.177 247.972C733.326 249.028 732.666 250.231 732.197 251.58C731.757 252.9 731.537 254.279 731.537 255.716C731.537 256.919 731.742 258.048 732.153 259.104C732.563 260.131 733.194 260.967 734.045 261.612C734.895 262.228 735.966 262.536 737.257 262.536C738.606 262.536 739.926 262.199 741.217 261.524C742.507 260.82 743.519 259.881 744.253 258.708L747.377 259.632C746.673 260.747 745.749 261.744 744.605 262.624C743.461 263.504 742.199 264.193 740.821 264.692C739.471 265.191 738.078 265.44 736.641 265.44ZM758.479 265L765.123 233.76H777.883C779.379 233.76 780.655 234.156 781.711 234.948C782.796 235.74 783.617 236.767 784.175 238.028C784.732 239.289 785.011 240.624 785.011 242.032C785.011 243.264 784.791 244.467 784.351 245.64C783.94 246.813 783.353 247.913 782.591 248.94C781.828 249.937 780.933 250.803 779.907 251.536C778.909 252.24 777.824 252.739 776.651 253.032L781.271 265H776.783L772.471 253.78H764.815L762.439 265H758.479ZM774.407 250.26C775.287 250.26 776.108 250.04 776.871 249.6C777.663 249.16 778.367 248.573 778.983 247.84C779.599 247.077 780.068 246.241 780.391 245.332C780.743 244.393 780.919 243.44 780.919 242.472C780.919 241.504 780.743 240.639 780.391 239.876C780.068 239.084 779.599 238.453 778.983 237.984C778.396 237.515 777.707 237.28 776.915 237.28H768.335L765.563 250.26H774.407ZM793.073 265.44C791.166 265.44 789.538 265.015 788.189 264.164C786.839 263.284 785.813 262.111 785.109 260.644C784.405 259.177 784.053 257.535 784.053 255.716C784.053 253.868 784.39 252.108 785.065 250.436C785.769 248.735 786.751 247.224 788.013 245.904C789.274 244.584 790.741 243.543 792.413 242.78C794.114 242.017 795.962 241.636 797.957 241.636C799.453 241.636 800.773 241.871 801.917 242.34C803.09 242.809 803.999 243.499 804.645 244.408C805.29 245.317 805.613 246.461 805.613 247.84C805.613 250.157 804.586 251.917 802.533 253.12C800.479 254.323 797.326 254.924 793.073 254.924C792.281 254.924 791.371 254.909 790.345 254.88C789.318 254.821 788.13 254.733 786.781 254.616L787.309 251.976C788.599 252.035 789.699 252.093 790.609 252.152C791.547 252.211 792.413 252.24 793.205 252.24C795.434 252.24 797.194 252.049 798.485 251.668C799.775 251.287 800.699 250.759 801.257 250.084C801.843 249.409 802.137 248.647 802.137 247.796C802.137 247.033 801.946 246.417 801.565 245.948C801.213 245.479 800.699 245.127 800.025 244.892C799.379 244.657 798.602 244.54 797.693 244.54C796.226 244.54 794.891 244.848 793.689 245.464C792.515 246.08 791.489 246.916 790.609 247.972C789.758 249.028 789.098 250.231 788.629 251.58C788.189 252.9 787.969 254.279 787.969 255.716C787.969 256.919 788.174 258.048 788.585 259.104C788.995 260.131 789.626 260.967 790.477 261.612C791.327 262.228 792.398 262.536 793.689 262.536C795.038 262.536 796.358 262.199 797.649 261.524C798.939 260.82 799.951 259.881 800.685 258.708L803.809 259.632C803.105 260.747 802.181 261.744 801.037 262.624C799.893 263.504 798.631 264.193 797.253 264.692C795.903 265.191 794.51 265.44 793.073 265.44ZM810.063 242.032H813.583L812.527 246.96C813.319 245.875 814.258 244.936 815.343 244.144C816.458 243.352 817.646 242.736 818.907 242.296C820.169 241.856 821.43 241.636 822.691 241.636C823.923 241.636 824.906 241.871 825.639 242.34C826.373 242.78 826.901 243.411 827.223 244.232C827.546 245.024 827.707 245.963 827.707 247.048C827.707 247.693 827.649 248.368 827.531 249.072C827.443 249.776 827.326 250.509 827.179 251.272L824.275 265H820.403L823.131 252.152C823.278 251.507 823.381 250.92 823.439 250.392C823.498 249.835 823.527 249.321 823.527 248.852C823.527 247.561 823.263 246.623 822.735 246.036C822.207 245.42 821.43 245.112 820.403 245.112C819.435 245.112 818.409 245.376 817.323 245.904C816.238 246.432 815.226 247.151 814.287 248.06C813.349 248.94 812.586 249.967 811.999 251.14L809.051 265H805.179L810.063 242.032ZM836.088 265.44C834.24 265.44 832.524 265.161 830.94 264.604C829.356 264.017 828.066 263.181 827.068 262.096L829.268 259.5C830.324 260.497 831.439 261.245 832.612 261.744C833.815 262.213 835.091 262.448 836.44 262.448C837.614 262.448 838.64 262.287 839.52 261.964C840.43 261.612 841.134 261.128 841.632 260.512C842.131 259.867 842.38 259.133 842.38 258.312C842.38 257.256 841.94 256.537 841.06 256.156C840.18 255.745 838.875 255.291 837.144 254.792C835.707 254.352 834.504 253.941 833.536 253.56C832.598 253.179 831.894 252.695 831.424 252.108C830.984 251.492 830.764 250.656 830.764 249.6C830.764 248.016 831.204 246.637 832.084 245.464C832.964 244.261 834.152 243.323 835.648 242.648C837.144 241.973 838.831 241.636 840.708 241.636C842.439 241.636 843.95 241.915 845.24 242.472C846.531 243.029 847.587 243.763 848.408 244.672L846.164 247.004C845.431 246.153 844.61 245.537 843.7 245.156C842.791 244.775 841.735 244.584 840.532 244.584C839.388 244.584 838.362 244.745 837.452 245.068C836.572 245.361 835.868 245.816 835.34 246.432C834.842 247.048 834.592 247.811 834.592 248.72C834.592 249.629 834.915 250.275 835.56 250.656C836.206 251.008 837.335 251.404 838.948 251.844C840.532 252.284 841.867 252.753 842.952 253.252C844.067 253.721 844.903 254.308 845.46 255.012C846.018 255.716 846.296 256.655 846.296 257.828C846.296 259.265 845.871 260.556 845.02 261.7C844.199 262.844 843.026 263.753 841.5 264.428C839.975 265.103 838.171 265.44 836.088 265.44ZM855.171 265.44C853.323 265.44 851.607 265.161 850.023 264.604C848.439 264.017 847.148 263.181 846.151 262.096L848.351 259.5C849.407 260.497 850.522 261.245 851.695 261.744C852.898 262.213 854.174 262.448 855.523 262.448C856.696 262.448 857.723 262.287 858.603 261.964C859.512 261.612 860.216 261.128 860.715 260.512C861.214 259.867 861.463 259.133 861.463 258.312C861.463 257.256 861.023 256.537 860.143 256.156C859.263 255.745 857.958 255.291 856.227 254.792C854.79 254.352 853.587 253.941 852.619 253.56C851.68 253.179 850.976 252.695 850.507 252.108C850.067 251.492 849.847 250.656 849.847 249.6C849.847 248.016 850.287 246.637 851.167 245.464C852.047 244.261 853.235 243.323 854.731 242.648C856.227 241.973 857.914 241.636 859.791 241.636C861.522 241.636 863.032 241.915 864.323 242.472C865.614 243.029 866.67 243.763 867.491 244.672L865.247 247.004C864.514 246.153 863.692 245.537 862.783 245.156C861.874 244.775 860.818 244.584 859.615 244.584C858.471 244.584 857.444 244.745 856.535 245.068C855.655 245.361 854.951 245.816 854.423 246.432C853.924 247.048 853.675 247.811 853.675 248.72C853.675 249.629 853.998 250.275 854.643 250.656C855.288 251.008 856.418 251.404 858.031 251.844C859.615 252.284 860.95 252.753 862.035 253.252C863.15 253.721 863.986 254.308 864.543 255.012C865.1 255.716 865.379 256.655 865.379 257.828C865.379 259.265 864.954 260.556 864.103 261.7C863.282 262.844 862.108 263.753 860.583 264.428C859.058 265.103 857.254 265.44 855.171 265.44ZM876.322 265.44C874.415 265.44 872.787 265.015 871.438 264.164C870.089 263.284 869.062 262.111 868.358 260.644C867.654 259.177 867.302 257.535 867.302 255.716C867.302 253.868 867.639 252.108 868.314 250.436C869.018 248.735 870.001 247.224 871.262 245.904C872.523 244.584 873.99 243.543 875.662 242.78C877.363 242.017 879.211 241.636 881.206 241.636C882.702 241.636 884.022 241.871 885.166 242.34C886.339 242.809 887.249 243.499 887.894 244.408C888.539 245.317 888.862 246.461 888.862 247.84C888.862 250.157 887.835 251.917 885.782 253.12C883.729 254.323 880.575 254.924 876.322 254.924C875.53 254.924 874.621 254.909 873.594 254.88C872.567 254.821 871.379 254.733 870.03 254.616L870.558 251.976C871.849 252.035 872.949 252.093 873.858 252.152C874.797 252.211 875.662 252.24 876.454 252.24C878.683 252.24 880.443 252.049 881.734 251.668C883.025 251.287 883.949 250.759 884.506 250.084C885.093 249.409 885.386 248.647 885.386 247.796C885.386 247.033 885.195 246.417 884.814 245.948C884.462 245.479 883.949 245.127 883.274 244.892C882.629 244.657 881.851 244.54 880.942 244.54C879.475 244.54 878.141 244.848 876.938 245.464C875.765 246.08 874.738 246.916 873.858 247.972C873.007 249.028 872.347 250.231 871.878 251.58C871.438 252.9 871.218 254.279 871.218 255.716C871.218 256.919 871.423 258.048 871.834 259.104C872.245 260.131 872.875 260.967 873.726 261.612C874.577 262.228 875.647 262.536 876.938 262.536C878.287 262.536 879.607 262.199 880.898 261.524C882.189 260.82 883.201 259.881 883.934 258.708L887.058 259.632C886.354 260.747 885.43 261.744 884.286 262.624C883.142 263.504 881.881 264.193 880.502 264.692C879.153 265.191 877.759 265.44 876.322 265.44ZM893.137 265.308C891.934 265.308 890.995 265.015 890.321 264.428C889.646 263.812 889.309 262.961 889.309 261.876C889.309 261.641 889.323 261.407 889.353 261.172C889.411 260.937 889.455 260.703 889.485 260.468L895.337 232.88H899.165L893.621 259.06C893.591 259.207 893.562 259.353 893.533 259.5C893.533 259.617 893.533 259.749 893.533 259.896C893.533 261.157 894.193 261.788 895.513 261.788C895.835 261.788 896.217 261.744 896.657 261.656C897.126 261.539 897.551 261.407 897.933 261.26L897.801 264.384C897.155 264.648 896.378 264.868 895.469 265.044C894.589 265.22 893.811 265.308 893.137 265.308ZM907.893 265.44C906.191 265.44 904.725 265.015 903.493 264.164C902.261 263.284 901.322 262.125 900.677 260.688C900.031 259.221 899.709 257.623 899.709 255.892C899.709 254.044 900.046 252.269 900.721 250.568C901.425 248.867 902.363 247.356 903.537 246.036C904.739 244.687 906.103 243.616 907.629 242.824C909.154 242.032 910.753 241.636 912.425 241.636C914.185 241.636 915.651 242.12 916.825 243.088C917.998 244.056 918.819 245.229 919.289 246.608L920.301 242.032H924.173L920.301 260.248C920.271 260.365 920.242 260.468 920.213 260.556C920.213 260.644 920.213 260.732 920.213 260.82C920.213 261.348 920.535 261.627 921.181 261.656L920.477 265C920.154 265.029 919.861 265.059 919.597 265.088C919.362 265.147 919.142 265.176 918.937 265.176C918.115 265.176 917.485 264.985 917.045 264.604C916.634 264.223 916.429 263.753 916.429 263.196C916.429 263.02 916.443 262.815 916.473 262.58C916.502 262.345 916.546 262.067 916.605 261.744C916.663 261.421 916.737 261.069 916.825 260.688C915.681 262.155 914.287 263.313 912.645 264.164C911.031 265.015 909.447 265.44 907.893 265.44ZM909.565 262.096C910.21 262.096 910.899 261.964 911.633 261.7C912.395 261.436 913.129 261.069 913.833 260.6C914.566 260.131 915.226 259.588 915.813 258.972C916.399 258.327 916.839 257.652 917.133 256.948L918.497 250.348C918.379 249.351 918.042 248.456 917.485 247.664C916.927 246.843 916.238 246.197 915.417 245.728C914.625 245.229 913.774 244.98 912.865 244.98C911.633 244.98 910.474 245.288 909.389 245.904C908.303 246.491 907.335 247.283 906.485 248.28C905.663 249.277 905.003 250.392 904.505 251.624C904.035 252.827 903.801 254.044 903.801 255.276C903.801 256.537 904.035 257.681 904.505 258.708C904.974 259.735 905.634 260.556 906.485 261.172C907.365 261.788 908.391 262.096 909.565 262.096ZM933.656 265.44C931.75 265.44 930.122 265.015 928.772 264.164C927.423 263.284 926.396 262.111 925.692 260.644C924.988 259.177 924.636 257.535 924.636 255.716C924.636 253.868 924.974 252.108 925.648 250.436C926.352 248.735 927.335 247.224 928.596 245.904C929.858 244.584 931.324 243.543 932.996 242.78C934.698 242.017 936.546 241.636 938.54 241.636C940.036 241.636 941.356 241.871 942.5 242.34C943.674 242.809 944.583 243.499 945.228 244.408C945.874 245.317 946.196 246.461 946.196 247.84C946.196 250.157 945.17 251.917 943.116 253.12C941.063 254.323 937.91 254.924 933.656 254.924C932.864 254.924 931.955 254.909 930.928 254.88C929.902 254.821 928.714 254.733 927.364 254.616L927.892 251.976C929.183 252.035 930.283 252.093 931.192 252.152C932.131 252.211 932.996 252.24 933.788 252.24C936.018 252.24 937.778 252.049 939.068 251.668C940.359 251.287 941.283 250.759 941.84 250.084C942.427 249.409 942.72 248.647 942.72 247.796C942.72 247.033 942.53 246.417 942.148 245.948C941.796 245.479 941.283 245.127 940.608 244.892C939.963 244.657 939.186 244.54 938.276 244.54C936.81 244.54 935.475 244.848 934.272 245.464C933.099 246.08 932.072 246.916 931.192 247.972C930.342 249.028 929.682 250.231 929.212 251.58C928.772 252.9 928.552 254.279 928.552 255.716C928.552 256.919 928.758 258.048 929.168 259.104C929.579 260.131 930.21 260.967 931.06 261.612C931.911 262.228 932.982 262.536 934.272 262.536C935.622 262.536 936.942 262.199 938.232 261.524C939.523 260.82 940.535 259.881 941.268 258.708L944.392 259.632C943.688 260.747 942.764 261.744 941.62 262.624C940.476 263.504 939.215 264.193 937.836 264.692C936.487 265.191 935.094 265.44 933.656 265.44ZM950.647 242.032H954.255L953.111 247.356C954.226 245.772 955.487 244.481 956.895 243.484C958.332 242.487 959.755 241.988 961.163 241.988C961.427 241.988 961.647 242.003 961.823 242.032C962.028 242.032 962.19 242.047 962.307 242.076L961.603 245.42C959.784 245.449 958.068 245.948 956.455 246.916C954.842 247.855 953.566 249.16 952.627 250.832L949.635 265H945.763L950.647 242.032ZM977.497 265.44C975.561 265.44 973.919 265 972.569 264.12C971.249 263.24 970.237 262.067 969.533 260.6C968.829 259.133 968.477 257.505 968.477 255.716C968.477 253.868 968.829 252.108 969.533 250.436C970.237 248.735 971.205 247.224 972.437 245.904C973.699 244.584 975.165 243.543 976.837 242.78C978.539 242.017 980.372 241.636 982.337 241.636C984.596 241.636 986.4 242.149 987.749 243.176C989.128 244.173 990.037 245.523 990.477 247.224L986.473 248.412C986.121 247.297 985.535 246.447 984.713 245.86C983.892 245.273 982.88 244.98 981.677 244.98C980.504 244.98 979.36 245.244 978.245 245.772C977.16 246.3 976.177 247.048 975.297 248.016C974.447 248.955 973.757 250.04 973.229 251.272C972.731 252.504 972.481 253.824 972.481 255.232C972.481 256.552 972.716 257.725 973.185 258.752C973.655 259.779 974.3 260.6 975.121 261.216C975.972 261.803 976.94 262.096 978.025 262.096C978.876 262.096 979.727 261.935 980.577 261.612C981.428 261.289 982.191 260.864 982.865 260.336C983.569 259.779 984.097 259.177 984.449 258.532L988.013 259.676C987.339 260.791 986.444 261.788 985.329 262.668C984.244 263.519 983.027 264.193 981.677 264.692C980.328 265.191 978.935 265.44 977.497 265.44ZM999.16 265.44C997.107 265.44 995.406 265 994.056 264.12C992.707 263.24 991.695 262.067 991.02 260.6C990.375 259.133 990.052 257.52 990.052 255.76C990.052 253.824 990.404 252.005 991.108 250.304C991.812 248.603 992.78 247.107 994.012 245.816C995.274 244.496 996.726 243.469 998.368 242.736C1000.01 242.003 1001.76 241.636 1003.6 241.636C1005.66 241.636 1007.36 242.076 1008.71 242.956C1010.09 243.836 1011.11 245.009 1011.79 246.476C1012.46 247.943 1012.8 249.571 1012.8 251.36C1012.8 253.267 1012.45 255.071 1011.74 256.772C1011.04 258.473 1010.06 259.984 1008.8 261.304C1007.54 262.595 1006.08 263.607 1004.44 264.34C1002.8 265.073 1001.04 265.44 999.16 265.44ZM999.82 262.096C1000.96 262.096 1002.06 261.847 1003.12 261.348C1004.21 260.849 1005.16 260.145 1005.98 259.236C1006.83 258.297 1007.51 257.212 1008 255.98C1008.5 254.748 1008.75 253.399 1008.75 251.932C1008.75 250.583 1008.53 249.395 1008.09 248.368C1007.65 247.312 1007.01 246.491 1006.16 245.904C1005.31 245.288 1004.25 244.98 1002.99 244.98C1001.84 244.98 1000.74 245.244 999.688 245.772C998.632 246.271 997.679 246.989 996.828 247.928C995.978 248.837 995.303 249.923 994.804 251.184C994.306 252.416 994.056 253.765 994.056 255.232C994.056 256.552 994.276 257.74 994.716 258.796C995.156 259.823 995.802 260.629 996.652 261.216C997.532 261.803 998.588 262.096 999.82 262.096ZM1017.83 242.032H1021.35L1020.29 246.96C1021.46 245.317 1022.87 244.027 1024.51 243.088C1026.16 242.12 1027.83 241.636 1029.53 241.636C1030.67 241.636 1031.63 241.856 1032.39 242.296C1033.18 242.736 1033.78 243.367 1034.19 244.188C1034.6 245.009 1034.82 246.021 1034.85 247.224C1035.76 245.992 1036.72 244.965 1037.71 244.144C1038.71 243.323 1039.77 242.707 1040.88 242.296C1042 241.856 1043.13 241.636 1044.27 241.636C1045.53 241.636 1046.53 241.871 1047.26 242.34C1048 242.809 1048.52 243.469 1048.85 244.32C1049.2 245.141 1049.37 246.109 1049.37 247.224C1049.37 247.84 1049.33 248.485 1049.24 249.16C1049.15 249.835 1049.04 250.539 1048.89 251.272L1045.94 265H1042.07L1044.8 252.152C1045.06 250.92 1045.19 249.849 1045.19 248.94C1045.19 247.649 1044.92 246.696 1044.36 246.08C1043.83 245.435 1043.05 245.112 1042.03 245.112C1041.06 245.112 1040.09 245.376 1039.12 245.904C1038.15 246.403 1037.24 247.107 1036.39 248.016C1035.57 248.925 1034.87 249.981 1034.28 251.184L1031.38 265H1027.51L1030.23 252.152C1030.38 251.507 1030.48 250.92 1030.54 250.392C1030.6 249.864 1030.63 249.365 1030.63 248.896C1030.63 247.605 1030.37 246.652 1029.84 246.036C1029.31 245.42 1028.53 245.112 1027.51 245.112C1026.07 245.112 1024.63 245.669 1023.19 246.784C1021.79 247.869 1020.64 249.321 1019.76 251.14L1016.81 265H1012.94L1017.83 242.032ZM1054.87 242.032H1058.39L1057.33 246.96C1058.51 245.317 1059.92 244.027 1061.56 243.088C1063.2 242.12 1064.87 241.636 1066.57 241.636C1067.72 241.636 1068.67 241.856 1069.43 242.296C1070.23 242.736 1070.83 243.367 1071.24 244.188C1071.65 245.009 1071.87 246.021 1071.9 247.224C1072.81 245.992 1073.76 244.965 1074.76 244.144C1075.76 243.323 1076.81 242.707 1077.93 242.296C1079.04 241.856 1080.17 241.636 1081.31 241.636C1082.58 241.636 1083.57 241.871 1084.31 242.34C1085.04 242.809 1085.57 243.469 1085.89 244.32C1086.24 245.141 1086.42 246.109 1086.42 247.224C1086.42 247.84 1086.37 248.485 1086.29 249.16C1086.2 249.835 1086.08 250.539 1085.93 251.272L1082.99 265H1079.11L1081.84 252.152C1082.11 250.92 1082.24 249.849 1082.24 248.94C1082.24 247.649 1081.96 246.696 1081.4 246.08C1080.87 245.435 1080.1 245.112 1079.07 245.112C1078.1 245.112 1077.13 245.376 1076.17 245.904C1075.2 246.403 1074.29 247.107 1073.44 248.016C1072.62 248.925 1071.91 249.981 1071.33 251.184L1068.42 265H1064.55L1067.28 252.152C1067.42 251.507 1067.53 250.92 1067.59 250.392C1067.64 249.864 1067.67 249.365 1067.67 248.896C1067.67 247.605 1067.41 246.652 1066.88 246.036C1066.35 245.42 1065.58 245.112 1064.55 245.112C1063.11 245.112 1061.68 245.669 1060.24 246.784C1058.83 247.869 1057.69 249.321 1056.81 251.14L1053.86 265H1049.99L1054.87 242.032ZM1093.63 265.44C1090.05 265.44 1088.26 263.504 1088.26 259.632C1088.26 259.075 1088.31 258.488 1088.39 257.872C1088.48 257.227 1088.6 256.537 1088.75 255.804L1091.69 242.032H1095.52L1092.75 255.056C1092.49 256.229 1092.35 257.241 1092.35 258.092C1092.35 260.761 1093.5 262.096 1095.79 262.096C1096.78 262.096 1097.78 261.876 1098.78 261.436C1099.77 260.967 1100.73 260.307 1101.64 259.456C1102.58 258.605 1103.38 257.593 1104.06 256.42L1107.09 242.032H1110.97L1107.09 260.248C1107.06 260.365 1107.03 260.468 1107.01 260.556C1107.01 260.644 1107.01 260.732 1107.01 260.82C1107.01 261.348 1107.33 261.627 1107.97 261.656L1107.27 265C1106.95 265.029 1106.65 265.059 1106.39 265.088C1106.15 265.147 1105.93 265.176 1105.73 265.176C1104.94 265.176 1104.34 265 1103.93 264.648C1103.51 264.296 1103.31 263.827 1103.31 263.24C1103.31 263.064 1103.32 262.859 1103.35 262.624C1103.38 262.36 1103.43 262.023 1103.49 261.612C1103.57 261.201 1103.68 260.688 1103.79 260.072C1102.47 261.773 1100.92 263.093 1099.13 264.032C1097.34 264.971 1095.51 265.44 1093.63 265.44ZM1115.51 242.032H1119.03L1117.97 246.96C1118.76 245.875 1119.7 244.936 1120.79 244.144C1121.9 243.352 1123.09 242.736 1124.35 242.296C1125.61 241.856 1126.87 241.636 1128.14 241.636C1129.37 241.636 1130.35 241.871 1131.08 242.34C1131.82 242.78 1132.35 243.411 1132.67 244.232C1132.99 245.024 1133.15 245.963 1133.15 247.048C1133.15 247.693 1133.09 248.368 1132.98 249.072C1132.89 249.776 1132.77 250.509 1132.62 251.272L1129.72 265H1125.85L1128.58 252.152C1128.72 251.507 1128.83 250.92 1128.88 250.392C1128.94 249.835 1128.97 249.321 1128.97 248.852C1128.97 247.561 1128.71 246.623 1128.18 246.036C1127.65 245.42 1126.87 245.112 1125.85 245.112C1124.88 245.112 1123.85 245.376 1122.77 245.904C1121.68 246.432 1120.67 247.151 1119.73 248.06C1118.79 248.94 1118.03 249.967 1117.44 251.14L1114.5 265H1110.62L1115.51 242.032ZM1138.67 242.032H1142.54L1137.66 265H1133.79L1138.67 242.032ZM1140.61 232.88H1144.48L1143.47 237.72H1139.6L1140.61 232.88ZM1143.81 261.788C1143.81 261.583 1143.82 261.377 1143.85 261.172C1143.88 260.937 1143.91 260.717 1143.94 260.512L1147.24 245.068H1144.25L1144.91 242.032H1147.85L1149.48 234.376H1153.35L1151.73 242.032H1156.61L1155.95 245.068H1151.11L1148.07 259.324C1148.05 259.441 1148.02 259.559 1147.99 259.676C1147.99 259.764 1147.99 259.867 1147.99 259.984C1147.99 260.6 1148.18 261.055 1148.56 261.348C1148.94 261.612 1149.41 261.744 1149.97 261.744C1150.47 261.744 1150.93 261.685 1151.37 261.568C1151.84 261.421 1152.25 261.275 1152.61 261.128C1152.96 260.981 1153.22 260.864 1153.4 260.776L1153.62 263.856C1153.27 264.091 1152.8 264.325 1152.21 264.56C1151.62 264.795 1150.96 264.971 1150.23 265.088C1149.5 265.235 1148.73 265.308 1147.94 265.308C1146.77 265.308 1145.79 265.029 1144.99 264.472C1144.2 263.885 1143.81 262.991 1143.81 261.788ZM1153.22 271.732C1154.45 271.556 1155.45 271.321 1156.21 271.028C1157.01 270.764 1157.7 270.339 1158.28 269.752C1158.87 269.195 1159.5 268.417 1160.17 267.42L1161.45 265.484L1157.01 242.032H1161.01L1164.18 261.524L1165.67 259.06C1166.91 257.036 1167.95 255.261 1168.8 253.736C1169.65 252.211 1170.37 250.817 1170.95 249.556C1171.57 248.265 1172.08 247.019 1172.49 245.816C1172.9 244.613 1173.29 243.352 1173.64 242.032H1177.47C1177.08 243.44 1176.66 244.76 1176.19 245.992C1175.72 247.224 1175.16 248.515 1174.52 249.864C1173.87 251.213 1173.05 252.739 1172.05 254.44C1171.09 256.112 1169.87 258.121 1168.4 260.468L1164.88 266.144C1163.88 267.757 1162.95 269.107 1162.07 270.192C1161.19 271.307 1160.31 272.201 1159.43 272.876C1158.58 273.551 1157.68 274.035 1156.74 274.328C1155.83 274.651 1154.84 274.827 1153.75 274.856L1153.22 271.732ZM1191.22 265.44C1189.38 265.44 1187.66 265.161 1186.08 264.604C1184.49 264.017 1183.2 263.181 1182.2 262.096L1184.4 259.5C1185.46 260.497 1186.57 261.245 1187.75 261.744C1188.95 262.213 1190.23 262.448 1191.58 262.448C1192.75 262.448 1193.78 262.287 1194.66 261.964C1195.56 261.612 1196.27 261.128 1196.77 260.512C1197.27 259.867 1197.52 259.133 1197.52 258.312C1197.52 257.256 1197.08 256.537 1196.2 256.156C1195.32 255.745 1194.01 255.291 1192.28 254.792C1190.84 254.352 1189.64 253.941 1188.67 253.56C1187.73 253.179 1187.03 252.695 1186.56 252.108C1186.12 251.492 1185.9 250.656 1185.9 249.6C1185.9 248.016 1186.34 246.637 1187.22 245.464C1188.1 244.261 1189.29 243.323 1190.78 242.648C1192.28 241.973 1193.97 241.636 1195.84 241.636C1197.57 241.636 1199.08 241.915 1200.38 242.472C1201.67 243.029 1202.72 243.763 1203.54 244.672L1201.3 247.004C1200.57 246.153 1199.74 245.537 1198.84 245.156C1197.93 244.775 1196.87 244.584 1195.67 244.584C1194.52 244.584 1193.5 244.745 1192.59 245.068C1191.71 245.361 1191 245.816 1190.48 246.432C1189.98 247.048 1189.73 247.811 1189.73 248.72C1189.73 249.629 1190.05 250.275 1190.7 250.656C1191.34 251.008 1192.47 251.404 1194.08 251.844C1195.67 252.284 1197 252.753 1198.09 253.252C1199.2 253.721 1200.04 254.308 1200.6 255.012C1201.15 255.716 1201.43 256.655 1201.43 257.828C1201.43 259.265 1201.01 260.556 1200.16 261.7C1199.33 262.844 1198.16 263.753 1196.64 264.428C1195.11 265.103 1193.31 265.44 1191.22 265.44ZM1207.45 242.032H1211.32L1206.43 265H1202.56L1207.45 242.032ZM1209.38 232.88H1213.25L1212.24 237.72H1208.37L1209.38 232.88ZM1215.57 242.032H1219.09L1218.04 246.96C1218.83 245.875 1219.77 244.936 1220.85 244.144C1221.97 243.352 1223.15 242.736 1224.42 242.296C1225.68 241.856 1226.94 241.636 1228.2 241.636C1229.43 241.636 1230.41 241.871 1231.15 242.34C1231.88 242.78 1232.41 243.411 1232.73 244.232C1233.05 245.024 1233.22 245.963 1233.22 247.048C1233.22 247.693 1233.16 248.368 1233.04 249.072C1232.95 249.776 1232.83 250.509 1232.69 251.272L1229.78 265H1225.91L1228.64 252.152C1228.79 251.507 1228.89 250.92 1228.95 250.392C1229.01 249.835 1229.04 249.321 1229.04 248.852C1229.04 247.561 1228.77 246.623 1228.24 246.036C1227.72 245.42 1226.94 245.112 1225.91 245.112C1224.94 245.112 1223.92 245.376 1222.83 245.904C1221.75 246.432 1220.73 247.151 1219.8 248.06C1218.86 248.94 1218.09 249.967 1217.51 251.14L1214.56 265H1210.69L1215.57 242.032ZM1243.62 265.44C1241.68 265.44 1240.04 265 1238.69 264.12C1237.37 263.24 1236.36 262.067 1235.66 260.6C1234.95 259.133 1234.6 257.505 1234.6 255.716C1234.6 253.868 1234.95 252.108 1235.66 250.436C1236.36 248.735 1237.33 247.224 1238.56 245.904C1239.82 244.584 1241.29 243.543 1242.96 242.78C1244.66 242.017 1246.5 241.636 1248.46 241.636C1250.72 241.636 1252.52 242.149 1253.87 243.176C1255.25 244.173 1256.16 245.523 1256.6 247.224L1252.6 248.412C1252.24 247.297 1251.66 246.447 1250.84 245.86C1250.02 245.273 1249 244.98 1247.8 244.98C1246.63 244.98 1245.48 245.244 1244.37 245.772C1243.28 246.3 1242.3 247.048 1241.42 248.016C1240.57 248.955 1239.88 250.04 1239.35 251.272C1238.85 252.504 1238.6 253.824 1238.6 255.232C1238.6 256.552 1238.84 257.725 1239.31 258.752C1239.78 259.779 1240.42 260.6 1241.24 261.216C1242.1 261.803 1243.06 262.096 1244.15 262.096C1245 262.096 1245.85 261.935 1246.7 261.612C1247.55 261.289 1248.31 260.864 1248.99 260.336C1249.69 259.779 1250.22 259.177 1250.57 258.532L1254.14 259.676C1253.46 260.791 1252.57 261.788 1251.45 262.668C1250.37 263.519 1249.15 264.193 1247.8 264.692C1246.45 265.191 1245.06 265.44 1243.62 265.44ZM1265.24 265.44C1263.33 265.44 1261.71 265.015 1260.36 264.164C1259.01 263.284 1257.98 262.111 1257.28 260.644C1256.57 259.177 1256.22 257.535 1256.22 255.716C1256.22 253.868 1256.56 252.108 1257.23 250.436C1257.94 248.735 1258.92 247.224 1260.18 245.904C1261.44 244.584 1262.91 243.543 1264.58 242.78C1266.28 242.017 1268.13 241.636 1270.12 241.636C1271.62 241.636 1272.94 241.871 1274.08 242.34C1275.26 242.809 1276.17 243.499 1276.81 244.408C1277.46 245.317 1277.78 246.461 1277.78 247.84C1277.78 250.157 1276.75 251.917 1274.7 253.12C1272.65 254.323 1269.49 254.924 1265.24 254.924C1264.45 254.924 1263.54 254.909 1262.51 254.88C1261.49 254.821 1260.3 254.733 1258.95 254.616L1259.48 251.976C1260.77 252.035 1261.87 252.093 1262.78 252.152C1263.71 252.211 1264.58 252.24 1265.37 252.24C1267.6 252.24 1269.36 252.049 1270.65 251.668C1271.94 251.287 1272.87 250.759 1273.42 250.084C1274.01 249.409 1274.3 248.647 1274.3 247.796C1274.3 247.033 1274.11 246.417 1273.73 245.948C1273.38 245.479 1272.87 245.127 1272.19 244.892C1271.55 244.657 1270.77 244.54 1269.86 244.54C1268.39 244.54 1267.06 244.848 1265.86 245.464C1264.68 246.08 1263.66 246.916 1262.78 247.972C1261.93 249.028 1261.27 250.231 1260.8 251.58C1260.36 252.9 1260.14 254.279 1260.14 255.716C1260.14 256.919 1260.34 258.048 1260.75 259.104C1261.16 260.131 1261.79 260.967 1262.64 261.612C1263.49 262.228 1264.57 262.536 1265.86 262.536C1267.21 262.536 1268.53 262.199 1269.82 261.524C1271.11 260.82 1272.12 259.881 1272.85 258.708L1275.98 259.632C1275.27 260.747 1274.35 261.744 1273.2 262.624C1272.06 263.504 1270.8 264.193 1269.42 264.692C1268.07 265.191 1266.68 265.44 1265.24 265.44ZM1287.08 261.48H1293.02L1296.67 244.32C1296.35 244.672 1295.88 245.053 1295.26 245.464C1294.65 245.845 1293.96 246.212 1293.19 246.564C1292.46 246.916 1291.73 247.209 1290.99 247.444C1290.29 247.649 1289.66 247.752 1289.1 247.752L1289.89 244.056C1290.51 244.056 1291.23 243.88 1292.05 243.528C1292.87 243.147 1293.68 242.707 1294.47 242.208C1295.26 241.709 1295.95 241.24 1296.54 240.8C1297.12 240.36 1297.48 240.052 1297.59 239.876H1301.55L1296.98 261.48H1302.3L1301.55 265H1286.33L1287.08 261.48ZM1313.16 265.352C1311.43 265.352 1309.91 265.015 1308.62 264.34C1307.33 263.636 1306.32 262.697 1305.59 261.524C1304.88 260.321 1304.53 258.987 1304.53 257.52C1304.53 255.907 1304.91 254.499 1305.68 253.296C1306.44 252.064 1307.38 251.023 1308.49 250.172C1309.64 249.321 1310.75 248.691 1311.84 248.28C1310.93 247.811 1310.15 247.107 1309.5 246.168C1308.89 245.229 1308.58 244.173 1308.58 243C1308.58 241.533 1308.93 240.243 1309.64 239.128C1310.34 237.984 1311.26 237.016 1312.41 236.224C1313.55 235.403 1314.78 234.787 1316.1 234.376C1317.42 233.965 1318.7 233.76 1319.93 233.76C1321.28 233.76 1322.56 234.024 1323.76 234.552C1324.99 235.08 1325.99 235.857 1326.75 236.884C1327.54 237.881 1327.94 239.113 1327.94 240.58C1327.94 241.812 1327.65 242.927 1327.06 243.924C1326.47 244.921 1325.71 245.787 1324.77 246.52C1323.83 247.253 1322.85 247.84 1321.82 248.28C1322.97 248.808 1323.92 249.644 1324.68 250.788C1325.48 251.903 1325.87 253.223 1325.87 254.748C1325.87 256.303 1325.51 257.74 1324.77 259.06C1324.07 260.351 1323.11 261.465 1321.91 262.404C1320.71 263.343 1319.35 264.076 1317.82 264.604C1316.32 265.103 1314.77 265.352 1313.16 265.352ZM1313.99 261.876C1314.9 261.876 1315.81 261.715 1316.72 261.392C1317.66 261.04 1318.52 260.556 1319.32 259.94C1320.11 259.324 1320.74 258.591 1321.21 257.74C1321.71 256.86 1321.96 255.907 1321.96 254.88C1321.96 253.824 1321.69 252.929 1321.16 252.196C1320.64 251.463 1319.95 250.905 1319.1 250.524C1318.27 250.113 1317.39 249.908 1316.46 249.908C1315.55 249.908 1314.62 250.084 1313.68 250.436C1312.77 250.759 1311.92 251.228 1311.13 251.844C1310.37 252.46 1309.75 253.208 1309.28 254.088C1308.81 254.939 1308.58 255.877 1308.58 256.904C1308.58 257.931 1308.83 258.825 1309.33 259.588C1309.86 260.321 1310.53 260.893 1311.35 261.304C1312.2 261.685 1313.08 261.876 1313.99 261.876ZM1317.16 246.916C1317.86 246.916 1318.61 246.799 1319.4 246.564C1320.2 246.3 1320.93 245.919 1321.6 245.42C1322.28 244.921 1322.82 244.32 1323.23 243.616C1323.67 242.912 1323.89 242.105 1323.89 241.196C1323.89 240.375 1323.67 239.671 1323.23 239.084C1322.82 238.497 1322.26 238.043 1321.56 237.72C1320.86 237.397 1320.06 237.236 1319.18 237.236C1318.1 237.236 1317.04 237.471 1316.02 237.94C1314.99 238.38 1314.14 239.025 1313.46 239.876C1312.82 240.727 1312.5 241.724 1312.5 242.868C1312.5 243.719 1312.72 244.452 1313.16 245.068C1313.63 245.684 1314.21 246.153 1314.92 246.476C1315.65 246.769 1316.4 246.916 1317.16 246.916ZM1336.71 265.352C1334.98 265.352 1333.47 265.015 1332.18 264.34C1330.88 263.636 1329.87 262.697 1329.14 261.524C1328.44 260.321 1328.08 258.987 1328.08 257.52C1328.08 255.907 1328.46 254.499 1329.23 253.296C1329.99 252.064 1330.93 251.023 1332.04 250.172C1333.19 249.321 1334.3 248.691 1335.39 248.28C1334.48 247.811 1333.7 247.107 1333.06 246.168C1332.44 245.229 1332.13 244.173 1332.13 243C1332.13 241.533 1332.48 240.243 1333.19 239.128C1333.89 237.984 1334.82 237.016 1335.96 236.224C1337.1 235.403 1338.34 234.787 1339.66 234.376C1340.98 233.965 1342.25 233.76 1343.48 233.76C1344.83 233.76 1346.11 234.024 1347.31 234.552C1348.54 235.08 1349.54 235.857 1350.3 236.884C1351.1 237.881 1351.49 239.113 1351.49 240.58C1351.49 241.812 1351.2 242.927 1350.61 243.924C1350.02 244.921 1349.26 245.787 1348.32 246.52C1347.38 247.253 1346.4 247.84 1345.38 248.28C1346.52 248.808 1347.47 249.644 1348.24 250.788C1349.03 251.903 1349.42 253.223 1349.42 254.748C1349.42 256.303 1349.06 257.74 1348.32 259.06C1347.62 260.351 1346.67 261.465 1345.46 262.404C1344.26 263.343 1342.9 264.076 1341.37 264.604C1339.88 265.103 1338.32 265.352 1336.71 265.352ZM1337.54 261.876C1338.45 261.876 1339.36 261.715 1340.27 261.392C1341.21 261.04 1342.08 260.556 1342.87 259.94C1343.66 259.324 1344.29 258.591 1344.76 257.74C1345.26 256.86 1345.51 255.907 1345.51 254.88C1345.51 253.824 1345.24 252.929 1344.72 252.196C1344.19 251.463 1343.5 250.905 1342.65 250.524C1341.83 250.113 1340.95 249.908 1340.01 249.908C1339.1 249.908 1338.17 250.084 1337.24 250.436C1336.33 250.759 1335.48 251.228 1334.68 251.844C1333.92 252.46 1333.3 253.208 1332.84 254.088C1332.37 254.939 1332.13 255.877 1332.13 256.904C1332.13 257.931 1332.38 258.825 1332.88 259.588C1333.41 260.321 1334.08 260.893 1334.9 261.304C1335.75 261.685 1336.63 261.876 1337.54 261.876ZM1340.71 246.916C1341.42 246.916 1342.16 246.799 1342.96 246.564C1343.75 246.3 1344.48 245.919 1345.16 245.42C1345.83 244.921 1346.37 244.32 1346.78 243.616C1347.22 242.912 1347.44 242.105 1347.44 241.196C1347.44 240.375 1347.22 239.671 1346.78 239.084C1346.37 238.497 1345.82 238.043 1345.11 237.72C1344.41 237.397 1343.62 237.236 1342.74 237.236C1341.65 237.236 1340.59 237.471 1339.57 237.94C1338.54 238.38 1337.69 239.025 1337.02 239.876C1336.37 240.727 1336.05 241.724 1336.05 242.868C1336.05 243.719 1336.27 244.452 1336.71 245.068C1337.18 245.684 1337.76 246.153 1338.47 246.476C1339.2 246.769 1339.95 246.916 1340.71 246.916ZM1357.44 271.556C1355.33 271.556 1353.53 271.028 1352.03 269.972C1350.56 268.916 1349.58 267.508 1349.08 265.748L1351.94 263.636C1352.44 264.985 1353.23 266.071 1354.32 266.892C1355.43 267.713 1356.72 268.124 1358.19 268.124C1359.28 268.124 1360.3 267.919 1361.27 267.508C1362.27 267.097 1363.15 266.511 1363.91 265.748C1364.67 265.015 1365.28 264.149 1365.72 263.152C1366.16 262.155 1366.38 261.069 1366.38 259.896C1366.38 258.312 1365.92 257.036 1365.01 256.068C1364.1 255.071 1362.9 254.572 1361.4 254.572C1360.23 254.572 1359.07 254.851 1357.93 255.408C1356.78 255.965 1355.79 256.757 1354.94 257.784H1351.46C1351.55 257.579 1351.78 257.007 1352.16 256.068C1352.54 255.1 1353 253.941 1353.53 252.592C1354.08 251.243 1354.64 249.835 1355.2 248.368C1355.79 246.901 1356.33 245.523 1356.83 244.232C1357.36 242.941 1357.78 241.9 1358.1 241.108C1358.46 240.287 1358.63 239.876 1358.63 239.876H1373.06L1372.32 243.44H1360.7L1356.87 253.384C1357.6 252.709 1358.46 252.181 1359.42 251.8C1360.42 251.389 1361.48 251.184 1362.59 251.184C1364.18 251.184 1365.55 251.521 1366.73 252.196C1367.9 252.871 1368.81 253.809 1369.46 255.012C1370.1 256.215 1370.42 257.608 1370.42 259.192C1370.42 260.981 1370.07 262.639 1369.37 264.164C1368.66 265.66 1367.7 266.951 1366.46 268.036C1365.23 269.151 1363.84 270.016 1362.28 270.632C1360.73 271.248 1359.12 271.556 1357.44 271.556Z" fill="white"/>
<path d="M157.41 217.811C190.778 244.136 239.867 237.541 267.054 203.081C294.241 168.62 289.231 119.344 255.863 93.0193C222.496 66.6944 173.406 73.2895 146.219 107.75C119.032 142.21 124.043 191.487 157.41 217.811Z" stroke="#CC4557" stroke-width="18" stroke-linecap="round" stroke-linejoin="round"/>
<path d="M159.286 218.327L105.906 288.785" stroke="#CC4557" stroke-width="12" stroke-linecap="round" stroke-linejoin="round"/>
</svg>
