<svg width="1337" height="213" viewBox="0 0 1337 213" fill="none" xmlns="http://www.w3.org/2000/svg">
<path d="M181.184 153.92C172.448 153.92 164.752 151.84 158.096 147.68C151.44 143.52 146.171 138.112 142.288 131.456V196.144H119.408V43.056H139.584V62.608C143.744 56.0907 149.152 50.8907 155.808 47.008C162.464 43.1253 169.883 41.184 178.064 41.184C185.552 41.184 192.416 42.7093 198.656 45.76C204.896 48.672 210.304 52.7627 214.88 58.032C219.456 63.3013 222.992 69.3333 225.488 76.128C228.123 82.784 229.44 89.856 229.44 97.344C229.44 107.744 227.36 117.243 223.2 125.84C219.179 134.437 213.494 141.301 206.144 146.432C198.934 151.424 190.614 153.92 181.184 153.92ZM173.696 134.368C178.55 134.368 182.918 133.328 186.8 131.248C190.822 129.168 194.219 126.395 196.992 122.928C199.904 119.461 202.123 115.509 203.648 111.072C205.174 106.635 205.936 102.059 205.936 97.344C205.936 92.352 205.104 87.6373 203.44 83.2C201.776 78.7627 199.35 74.88 196.16 71.552C193.11 68.224 189.504 65.5893 185.344 63.648C181.323 61.7067 176.886 60.736 172.032 60.736C169.12 60.736 166.07 61.2907 162.88 62.4C159.691 63.5093 156.71 65.0347 153.936 66.976C151.163 68.9173 148.736 71.2053 146.656 73.84C144.576 76.4747 143.12 79.248 142.288 82.16V110.656C144.23 115.093 146.795 119.115 149.984 122.72C153.174 126.187 156.848 129.029 161.008 131.248C165.168 133.328 169.398 134.368 173.696 134.368ZM297.098 153.92C288.5 153.92 280.804 152.464 274.01 149.552C267.215 146.501 261.322 142.341 256.33 137.072C251.476 131.803 247.732 125.84 245.098 119.184C242.463 112.389 241.146 105.179 241.146 97.552C241.146 89.9253 242.463 82.7147 245.098 75.92C247.732 69.1253 251.476 63.1627 256.33 58.032C261.322 52.7627 267.215 48.672 274.01 45.76C280.943 42.7093 288.639 41.184 297.098 41.184C305.556 41.184 313.183 42.7093 319.978 45.76C326.911 48.672 332.804 52.7627 337.658 58.032C342.65 63.1627 346.463 69.1253 349.098 75.92C351.732 82.7147 353.05 89.9253 353.05 97.552C353.05 105.179 351.732 112.389 349.098 119.184C346.463 125.84 342.65 131.803 337.658 137.072C332.804 142.341 326.911 146.501 319.978 149.552C313.183 152.464 305.556 153.92 297.098 153.92ZM264.65 97.76C264.65 104.693 266.106 110.933 269.018 116.48C271.93 122.027 275.812 126.395 280.666 129.584C285.519 132.773 290.996 134.368 297.098 134.368C303.06 134.368 308.468 132.773 313.322 129.584C318.314 126.256 322.266 121.819 325.178 116.272C328.09 110.587 329.546 104.347 329.546 97.552C329.546 90.6187 328.09 84.3787 325.178 78.832C322.266 73.2853 318.314 68.9173 313.322 65.728C308.468 62.4 303.06 60.736 297.098 60.736C290.996 60.736 285.519 62.4 280.666 65.728C275.812 69.056 271.93 73.4933 269.018 79.04C266.106 84.448 264.65 90.688 264.65 97.76ZM371.751 -7.62939e-06H394.631V120.432C394.631 125.979 395.463 129.515 397.127 131.04C398.791 132.565 400.871 133.328 403.367 133.328C406.14 133.328 408.705 133.051 411.063 132.496C413.559 131.941 415.708 131.248 417.511 130.416L420.839 148.512C417.511 149.899 413.559 151.077 408.983 152.048C404.407 153.019 400.316 153.504 396.711 153.504C388.945 153.504 382.844 151.355 378.407 147.056C373.969 142.619 371.751 136.517 371.751 128.752V-7.62939e-06ZM431.377 177.424C433.457 177.701 435.468 177.979 437.409 178.256C439.489 178.672 441.153 178.88 442.401 178.88C444.759 178.88 446.769 178.117 448.433 176.592C450.236 175.205 452.039 172.571 453.841 168.688C455.644 164.805 457.863 159.189 460.497 151.84L415.777 43.056H439.697L472.977 128.544L502.513 43.056H524.561L475.265 177.008C473.74 181.029 471.521 184.704 468.609 188.032C465.697 191.499 462.092 194.203 457.793 196.144C453.495 198.085 448.433 199.056 442.609 199.056C440.945 199.056 439.212 198.917 437.409 198.64C435.607 198.363 433.596 197.947 431.377 197.392V177.424ZM600.111 146.224C598.17 147.195 595.743 148.235 592.831 149.344C589.919 150.453 586.591 151.424 582.847 152.256C579.242 153.088 575.498 153.504 571.615 153.504C566.9 153.504 562.532 152.672 558.511 151.008C554.49 149.344 551.231 146.709 548.735 143.104C546.378 139.36 545.199 134.576 545.199 128.752V60.736H530.847V43.056H545.199V7.27999H568.079V43.056H591.791V60.736H568.079V121.472C568.356 125.216 569.535 127.989 571.615 129.792C573.834 131.595 576.538 132.496 579.727 132.496C582.916 132.496 585.967 131.941 588.879 130.832C591.791 129.723 593.94 128.821 595.327 128.128L600.111 146.224ZM662.032 153.92C653.574 153.92 645.878 152.464 638.944 149.552C632.15 146.501 626.256 142.411 621.264 137.28C616.272 132.011 612.39 126.048 609.616 119.392C606.982 112.597 605.664 105.387 605.664 97.76C605.664 87.4987 608.022 78.1387 612.736 69.68C617.451 61.0827 624.038 54.2187 632.496 49.088C640.955 43.8187 650.87 41.184 662.24 41.184C673.611 41.184 683.387 43.8187 691.568 49.088C699.888 54.2187 706.336 61.0133 710.912 69.472C715.488 77.9307 717.776 87.0133 717.776 96.72C717.776 98.384 717.707 99.9787 717.568 101.504C717.43 102.891 717.291 104.069 717.152 105.04H630C630.416 111.419 632.15 117.035 635.2 121.888C638.39 126.603 642.411 130.347 647.264 133.12C652.118 135.755 657.318 137.072 662.864 137.072C668.966 137.072 674.72 135.547 680.128 132.496C685.675 129.445 689.419 125.424 691.36 120.432L710.912 126.048C708.555 131.317 704.95 136.101 700.096 140.4C695.382 144.56 689.766 147.888 683.248 150.384C676.731 152.741 669.659 153.92 662.032 153.92ZM629.376 89.856H695.104C694.688 83.616 692.886 78.1387 689.696 73.424C686.646 68.5707 682.694 64.8267 677.84 62.192C673.126 59.4187 667.856 58.032 662.032 58.032C656.347 58.032 651.078 59.4187 646.224 62.192C641.51 64.8267 637.627 68.5707 634.576 73.424C631.526 78.1387 629.792 83.616 629.376 89.856ZM783.935 153.92C775.477 153.92 767.781 152.464 760.847 149.552C754.053 146.501 748.159 142.341 743.167 137.072C738.175 131.803 734.293 125.771 731.519 118.976C728.885 112.181 727.567 104.971 727.567 97.344C727.567 87.0827 729.855 77.7227 734.431 69.264C739.146 60.8053 745.663 54.0107 753.983 48.88C762.442 43.7493 772.426 41.184 783.935 41.184C795.029 41.184 804.666 43.68 812.847 48.672C821.167 53.5253 827.269 60.0427 831.151 68.224L808.895 75.296C806.399 70.72 802.863 67.184 798.287 64.688C793.85 62.0533 788.927 60.736 783.519 60.736C777.418 60.736 771.871 62.3307 766.879 65.52C762.026 68.5707 758.143 72.8693 755.231 78.416C752.458 83.824 751.071 90.1333 751.071 97.344C751.071 104.277 752.527 110.587 755.439 116.272C758.351 121.819 762.234 126.256 767.087 129.584C772.079 132.773 777.626 134.368 783.727 134.368C787.471 134.368 791.077 133.744 794.543 132.496C798.149 131.109 801.269 129.307 803.903 127.088C806.538 124.731 808.41 122.165 809.519 119.392L831.983 126.048C829.626 131.456 826.09 136.24 821.375 140.4C816.799 144.56 811.322 147.888 804.943 150.384C798.703 152.741 791.701 153.92 783.935 153.92ZM946.579 151.84H923.699V90.896C923.699 81.0507 921.896 73.7013 918.291 68.848C914.686 63.9947 909.624 61.568 903.107 61.568C899.086 61.568 894.926 62.6773 890.627 64.896C886.328 67.1147 882.515 70.1653 879.187 74.048C875.859 77.792 873.432 82.16 871.907 87.152V151.84H849.027V-7.62939e-06H871.907V64.896C876.067 57.5467 881.752 51.792 888.963 47.632C896.174 43.3333 903.939 41.184 912.259 41.184C919.054 41.184 924.67 42.3627 929.107 44.72C933.544 47.0773 937.011 50.336 939.507 54.496C942.142 58.5173 943.944 63.232 944.915 68.64C946.024 73.9093 946.579 79.5253 946.579 85.488V151.84ZM1068.89 151.84H1046.01V90.896C1046.01 80.7733 1044.34 73.3547 1041.02 68.64C1037.83 63.9253 1033.04 61.568 1026.66 61.568C1022.23 61.568 1017.79 62.6773 1013.35 64.896C1009.05 67.1147 1005.17 70.1653 1001.7 74.048C998.238 77.792 995.742 82.16 994.216 87.152V151.84H971.336V43.056H992.136V64.896C994.91 60.0427 998.515 55.8827 1002.95 52.416C1007.53 48.8107 1012.66 46.0373 1018.34 44.096C1024.03 42.1547 1030.06 41.184 1036.44 41.184C1042.96 41.184 1048.3 42.3627 1052.46 44.72C1056.75 47.0773 1060.08 50.336 1062.44 54.496C1064.94 58.5173 1066.6 63.232 1067.43 68.64C1068.4 73.9093 1068.89 79.5253 1068.89 85.488V151.84ZM1093.65 151.84V43.056H1116.53V151.84H1093.65ZM1093.65 25.168V-7.62939e-06H1116.53V25.168H1093.65ZM1191.52 153.92C1183.06 153.92 1175.36 152.464 1168.43 149.552C1161.63 146.501 1155.74 142.341 1150.75 137.072C1145.76 131.803 1141.87 125.771 1139.1 118.976C1136.47 112.181 1135.15 104.971 1135.15 97.344C1135.15 87.0827 1137.44 77.7227 1142.01 69.264C1146.73 60.8053 1153.24 54.0107 1161.56 48.88C1170.02 43.7493 1180.01 41.184 1191.52 41.184C1202.61 41.184 1212.25 43.68 1220.43 48.672C1228.75 53.5253 1234.85 60.0427 1238.73 68.224L1216.48 75.296C1213.98 70.72 1210.44 67.184 1205.87 64.688C1201.43 62.0533 1196.51 60.736 1191.1 60.736C1185 60.736 1179.45 62.3307 1174.46 65.52C1169.61 68.5707 1165.72 72.8693 1162.81 78.416C1160.04 83.824 1158.65 90.1333 1158.65 97.344C1158.65 104.277 1160.11 110.587 1163.02 116.272C1165.93 121.819 1169.82 126.256 1174.67 129.584C1179.66 132.773 1185.21 134.368 1191.31 134.368C1195.05 134.368 1198.66 133.744 1202.12 132.496C1205.73 131.109 1208.85 129.307 1211.48 127.088C1214.12 124.731 1215.99 122.165 1217.1 119.392L1239.56 126.048C1237.21 131.456 1233.67 136.24 1228.96 140.4C1224.38 144.56 1218.9 147.888 1212.52 150.384C1206.28 152.741 1199.28 153.92 1191.52 153.92Z" fill="white"/>
<path d="M81.8962 163.039C81.9735 163.194 82.3215 163.812 82.9402 164.895C83.4815 165.978 84.0228 167.37 84.5642 169.071C85.0282 170.695 85.2602 172.59 85.2602 174.755C85.2602 176.766 84.8735 178.622 84.1002 180.323C83.3268 182.024 82.2055 183.378 80.7362 184.383C79.1895 185.388 77.3722 185.891 75.2842 185.891H27.8402V194.475H24.3602V185.891H3.59617V181.947H24.3602V167.679H27.8402V181.947H74.7042C76.9468 181.792 78.6482 180.942 79.8082 179.395C80.9682 177.848 81.5482 176.07 81.5482 174.059C81.5482 171.507 81.1228 169.342 80.2722 167.563C79.3442 165.707 78.8028 164.702 78.6482 164.547L81.8962 163.039ZM84.6802 106.301V110.245H51.0402C43.1522 110.245 37.1975 111.598 33.1762 114.305C29.1548 117.012 27.1442 120.956 27.1442 126.137C27.1442 129.617 28.0335 133.058 29.8122 136.461C31.5135 139.786 33.8722 142.686 36.8882 145.161C39.8268 147.558 43.1908 149.298 46.9802 150.381H84.6802V154.325H0.000174742V150.381H39.4402C34.5682 147.906 30.7015 144.426 27.8402 139.941C24.9015 135.378 23.4322 130.545 23.4322 125.441C23.4322 122.193 24.0508 119.409 25.2882 117.089C26.4482 114.692 28.2268 112.72 30.6242 111.173C32.9442 109.549 35.7668 108.35 39.0922 107.577C42.4175 106.726 46.2455 106.301 50.5762 106.301H84.6802ZM85.8402 64.9126C85.8402 68.9339 85.0282 72.7619 83.4042 76.3966C81.7028 79.9539 79.4215 83.0859 76.5602 85.7926C73.6215 88.4219 70.2575 90.5099 66.4682 92.0566C62.6015 93.5259 58.5028 94.2606 54.1722 94.2606C48.5268 94.2606 43.3842 92.9846 38.7442 90.4326C34.1042 87.8806 30.3922 84.4393 27.6082 80.1086C24.8242 75.7006 23.4322 70.7899 23.4322 65.3766C23.4322 59.8086 24.8628 54.8593 27.7242 50.5286C30.5082 46.1206 34.2588 42.6019 38.9762 39.9726C43.6162 37.3433 48.7975 36.0286 54.5202 36.0286C54.8295 36.0286 55.1388 36.0286 55.4482 36.0286C55.7575 36.0286 56.0668 36.0673 56.3762 36.1446V90.2006C61.2482 89.8139 65.6562 88.4606 69.6002 86.1406C73.5442 83.7433 76.6762 80.6886 78.9962 76.9766C81.3162 73.1873 82.4762 69.0886 82.4762 64.6806C82.4762 60.2726 81.3548 56.1353 79.1122 52.2686C76.7922 48.4019 73.8535 45.6566 70.2962 44.0326L71.2242 40.4366C74.0082 41.5966 76.5215 43.4139 78.7642 45.8886C81.0068 48.3633 82.7468 51.2633 83.9842 54.5886C85.2215 57.8366 85.8402 61.2779 85.8402 64.9126ZM53.0122 90.3166V39.9726C47.9082 40.2819 43.4228 41.5966 39.5562 43.9166C35.6122 46.1593 32.5188 49.1366 30.2762 52.8486C28.0335 56.5606 26.9122 60.6979 26.9122 65.2606C26.9122 69.7459 28.0335 73.8446 30.2762 77.5566C32.5188 81.1913 35.6122 84.1686 39.5562 86.4886C43.5002 88.7313 47.9855 90.0073 53.0122 90.3166Z" fill="white"/>
<path d="M521.819 203.28C519.971 203.28 518.255 203.001 516.671 202.444C515.087 201.857 513.796 201.021 512.799 199.936L514.999 197.34C516.055 198.337 517.17 199.085 518.343 199.584C519.546 200.053 520.822 200.288 522.171 200.288C523.344 200.288 524.371 200.127 525.251 199.804C526.16 199.452 526.864 198.968 527.363 198.352C527.862 197.707 528.111 196.973 528.111 196.152C528.111 195.096 527.671 194.377 526.791 193.996C525.911 193.585 524.606 193.131 522.875 192.632C521.438 192.192 520.235 191.781 519.267 191.4C518.328 191.019 517.624 190.535 517.155 189.948C516.715 189.332 516.495 188.496 516.495 187.44C516.495 185.856 516.935 184.477 517.815 183.304C518.695 182.101 519.883 181.163 521.379 180.488C522.875 179.813 524.562 179.476 526.439 179.476C528.17 179.476 529.68 179.755 530.971 180.312C532.262 180.869 533.318 181.603 534.139 182.512L531.895 184.844C531.162 183.993 530.34 183.377 529.431 182.996C528.522 182.615 527.466 182.424 526.263 182.424C525.119 182.424 524.092 182.585 523.183 182.908C522.303 183.201 521.599 183.656 521.071 184.272C520.572 184.888 520.323 185.651 520.323 186.56C520.323 187.469 520.646 188.115 521.291 188.496C521.936 188.848 523.066 189.244 524.679 189.684C526.263 190.124 527.598 190.593 528.683 191.092C529.798 191.561 530.634 192.148 531.191 192.852C531.748 193.556 532.027 194.495 532.027 195.668C532.027 197.105 531.602 198.396 530.751 199.54C529.93 200.684 528.756 201.593 527.231 202.268C525.706 202.943 523.902 203.28 521.819 203.28ZM542.97 203.28C541.063 203.28 539.435 202.855 538.086 202.004C536.737 201.124 535.71 199.951 535.006 198.484C534.302 197.017 533.95 195.375 533.95 193.556C533.95 191.708 534.287 189.948 534.962 188.276C535.666 186.575 536.649 185.064 537.91 183.744C539.171 182.424 540.638 181.383 542.31 180.62C544.011 179.857 545.859 179.476 547.854 179.476C549.35 179.476 550.67 179.711 551.814 180.18C552.987 180.649 553.897 181.339 554.542 182.248C555.187 183.157 555.51 184.301 555.51 185.68C555.51 187.997 554.483 189.757 552.43 190.96C550.377 192.163 547.223 192.764 542.97 192.764C542.178 192.764 541.269 192.749 540.242 192.72C539.215 192.661 538.027 192.573 536.678 192.456L537.206 189.816C538.497 189.875 539.597 189.933 540.506 189.992C541.445 190.051 542.31 190.08 543.102 190.08C545.331 190.08 547.091 189.889 548.382 189.508C549.673 189.127 550.597 188.599 551.154 187.924C551.741 187.249 552.034 186.487 552.034 185.636C552.034 184.873 551.843 184.257 551.462 183.788C551.11 183.319 550.597 182.967 549.922 182.732C549.277 182.497 548.499 182.38 547.59 182.38C546.123 182.38 544.789 182.688 543.586 183.304C542.413 183.92 541.386 184.756 540.506 185.812C539.655 186.868 538.995 188.071 538.526 189.42C538.086 190.74 537.866 192.119 537.866 193.556C537.866 194.759 538.071 195.888 538.482 196.944C538.893 197.971 539.523 198.807 540.374 199.452C541.225 200.068 542.295 200.376 543.586 200.376C544.935 200.376 546.255 200.039 547.546 199.364C548.837 198.66 549.849 197.721 550.582 196.548L553.706 197.472C553.002 198.587 552.078 199.584 550.934 200.464C549.79 201.344 548.529 202.033 547.15 202.532C545.801 203.031 544.407 203.28 542.97 203.28ZM559.961 179.872H563.569L562.425 185.196C563.539 183.612 564.801 182.321 566.209 181.324C567.646 180.327 569.069 179.828 570.477 179.828C570.741 179.828 570.961 179.843 571.137 179.872C571.342 179.872 571.503 179.887 571.621 179.916L570.917 183.26C569.098 183.289 567.382 183.788 565.769 184.756C564.155 185.695 562.879 187 561.941 188.672L558.949 202.84H555.077L559.961 179.872ZM571.075 179.872H575.079L577.675 199.452C578.849 197.809 579.949 196.181 580.975 194.568C582.002 192.925 582.941 191.297 583.791 189.684C584.642 188.041 585.39 186.399 586.035 184.756C586.71 183.113 587.253 181.485 587.663 179.872H591.359C590.303 183.685 588.705 187.513 586.563 191.356C584.422 195.169 581.87 198.997 578.907 202.84H574.727L571.075 179.872ZM594.259 179.872H598.131L593.247 202.84H589.375L594.259 179.872ZM596.195 170.72H600.067L599.055 175.56H595.183L596.195 170.72ZM602.385 179.872H605.905L604.849 184.8C605.641 183.715 606.58 182.776 607.665 181.984C608.78 181.192 609.968 180.576 611.229 180.136C612.49 179.696 613.752 179.476 615.013 179.476C616.245 179.476 617.228 179.711 617.961 180.18C618.694 180.62 619.222 181.251 619.545 182.072C619.868 182.864 620.029 183.803 620.029 184.888C620.029 185.533 619.97 186.208 619.853 186.912C619.765 187.616 619.648 188.349 619.501 189.112L616.597 202.84H612.725L615.453 189.992C615.6 189.347 615.702 188.76 615.761 188.232C615.82 187.675 615.849 187.161 615.849 186.692C615.849 185.401 615.585 184.463 615.057 183.876C614.529 183.26 613.752 182.952 612.725 182.952C611.757 182.952 610.73 183.216 609.645 183.744C608.56 184.272 607.548 184.991 606.609 185.9C605.67 186.78 604.908 187.807 604.321 188.98L601.373 202.84H597.501L602.385 179.872ZM627.662 212.652C625.198 212.652 623.276 212.197 621.898 211.288C620.519 210.379 619.478 209.147 618.774 207.592L621.414 205.612C622 206.961 622.895 207.973 624.098 208.648C625.33 209.323 626.723 209.66 628.278 209.66C629.598 209.66 630.859 209.396 632.062 208.868C633.294 208.369 634.364 207.592 635.274 206.536C636.183 205.48 636.799 204.16 637.122 202.576L637.958 198.528C636.872 199.936 635.538 201.051 633.954 201.872C632.399 202.693 630.844 203.104 629.29 203.104C627.647 203.104 626.224 202.679 625.022 201.828C623.848 200.948 622.954 199.804 622.338 198.396C621.722 196.959 621.414 195.404 621.414 193.732C621.414 191.884 621.751 190.109 622.426 188.408C623.13 186.707 624.083 185.196 625.286 183.876C626.488 182.527 627.867 181.456 629.422 180.664C631.006 179.872 632.663 179.476 634.394 179.476C636.212 179.476 637.679 179.945 638.794 180.884C639.938 181.823 640.818 183.011 641.434 184.448L642.402 179.872H645.834L640.994 202.576C640.554 204.747 639.674 206.58 638.354 208.076C637.034 209.572 635.435 210.701 633.558 211.464C631.71 212.256 629.744 212.652 627.662 212.652ZM631.182 199.936C631.944 199.936 632.707 199.789 633.47 199.496C634.262 199.203 634.995 198.821 635.67 198.352C636.374 197.853 636.99 197.296 637.518 196.68C638.075 196.064 638.5 195.433 638.794 194.788L640.202 188.188C640.055 187.132 639.703 186.208 639.146 185.416C638.588 184.595 637.899 183.964 637.078 183.524C636.286 183.055 635.42 182.82 634.482 182.82C633.22 182.82 632.047 183.128 630.962 183.744C629.876 184.36 628.908 185.181 628.058 186.208C627.236 187.205 626.591 188.305 626.122 189.508C625.652 190.711 625.418 191.913 625.418 193.116C625.418 194.348 625.652 195.492 626.122 196.548C626.62 197.575 627.295 198.396 628.146 199.012C629.026 199.628 630.038 199.936 631.182 199.936ZM656.169 199.628C656.169 199.423 656.183 199.217 656.213 199.012C656.242 198.777 656.271 198.557 656.301 198.352L659.601 182.908H656.609L657.269 179.872H660.217L661.845 172.216H665.717L664.089 179.872H668.973L668.313 182.908H663.473L660.437 197.164C660.407 197.281 660.378 197.399 660.349 197.516C660.349 197.604 660.349 197.707 660.349 197.824C660.349 198.44 660.539 198.895 660.921 199.188C661.302 199.452 661.771 199.584 662.329 199.584C662.827 199.584 663.297 199.525 663.737 199.408C664.206 199.261 664.617 199.115 664.969 198.968C665.321 198.821 665.585 198.704 665.761 198.616L665.981 201.696C665.629 201.931 665.159 202.165 664.573 202.4C663.986 202.635 663.326 202.811 662.593 202.928C661.859 203.075 661.097 203.148 660.305 203.148C659.131 203.148 658.149 202.869 657.357 202.312C656.565 201.725 656.169 200.831 656.169 199.628ZM674.164 170.72H678.036L675.044 184.8C676.247 183.157 677.684 181.867 679.356 180.928C681.057 179.96 682.773 179.476 684.504 179.476C685.795 179.476 686.821 179.725 687.584 180.224C688.376 180.693 688.933 181.353 689.256 182.204C689.608 183.055 689.784 184.052 689.784 185.196C689.784 185.783 689.74 186.413 689.652 187.088C689.593 187.733 689.491 188.408 689.344 189.112L686.44 202.84H682.568L685.296 189.992C685.413 189.405 685.501 188.877 685.56 188.408C685.619 187.909 685.648 187.44 685.648 187C685.648 185.651 685.355 184.639 684.768 183.964C684.211 183.289 683.375 182.952 682.26 182.952C681.351 182.952 680.368 183.216 679.312 183.744C678.285 184.272 677.303 184.991 676.364 185.9C675.455 186.78 674.721 187.807 674.164 188.98L671.216 202.84H667.344L674.164 170.72ZM700.321 203.28C698.414 203.28 696.786 202.855 695.437 202.004C694.087 201.124 693.061 199.951 692.357 198.484C691.653 197.017 691.301 195.375 691.301 193.556C691.301 191.708 691.638 189.948 692.313 188.276C693.017 186.575 693.999 185.064 695.261 183.744C696.522 182.424 697.989 181.383 699.661 180.62C701.362 179.857 703.21 179.476 705.205 179.476C706.701 179.476 708.021 179.711 709.165 180.18C710.338 180.649 711.247 181.339 711.893 182.248C712.538 183.157 712.861 184.301 712.861 185.68C712.861 187.997 711.834 189.757 709.781 190.96C707.727 192.163 704.574 192.764 700.321 192.764C699.529 192.764 698.619 192.749 697.593 192.72C696.566 192.661 695.378 192.573 694.029 192.456L694.557 189.816C695.847 189.875 696.947 189.933 697.857 189.992C698.795 190.051 699.661 190.08 700.453 190.08C702.682 190.08 704.442 189.889 705.733 189.508C707.023 189.127 707.947 188.599 708.505 187.924C709.091 187.249 709.385 186.487 709.385 185.636C709.385 184.873 709.194 184.257 708.813 183.788C708.461 183.319 707.947 182.967 707.273 182.732C706.627 182.497 705.85 182.38 704.941 182.38C703.474 182.38 702.139 182.688 700.937 183.304C699.763 183.92 698.737 184.756 697.857 185.812C697.006 186.868 696.346 188.071 695.877 189.42C695.437 190.74 695.217 192.119 695.217 193.556C695.217 194.759 695.422 195.888 695.833 196.944C696.243 197.971 696.874 198.807 697.725 199.452C698.575 200.068 699.646 200.376 700.937 200.376C702.286 200.376 703.606 200.039 704.897 199.364C706.187 198.66 707.199 197.721 707.933 196.548L711.057 197.472C710.353 198.587 709.429 199.584 708.285 200.464C707.141 201.344 705.879 202.033 704.501 202.532C703.151 203.031 701.758 203.28 700.321 203.28ZM722.159 202.84L728.803 171.6H741.563C743.059 171.6 744.335 171.996 745.391 172.788C746.476 173.58 747.297 174.607 747.855 175.868C748.412 177.129 748.691 178.464 748.691 179.872C748.691 181.104 748.471 182.307 748.031 183.48C747.62 184.653 747.033 185.753 746.271 186.78C745.508 187.777 744.613 188.643 743.587 189.376C742.589 190.08 741.504 190.579 740.331 190.872L744.951 202.84H740.463L736.151 191.62H728.495L726.119 202.84H722.159ZM738.087 188.1C738.967 188.1 739.788 187.88 740.551 187.44C741.343 187 742.047 186.413 742.663 185.68C743.279 184.917 743.748 184.081 744.071 183.172C744.423 182.233 744.599 181.28 744.599 180.312C744.599 179.344 744.423 178.479 744.071 177.716C743.748 176.924 743.279 176.293 742.663 175.824C742.076 175.355 741.387 175.12 740.595 175.12H732.015L729.243 188.1H738.087ZM756.753 203.28C754.846 203.28 753.218 202.855 751.869 202.004C750.519 201.124 749.493 199.951 748.789 198.484C748.085 197.017 747.733 195.375 747.733 193.556C747.733 191.708 748.07 189.948 748.745 188.276C749.449 186.575 750.431 185.064 751.693 183.744C752.954 182.424 754.421 181.383 756.093 180.62C757.794 179.857 759.642 179.476 761.637 179.476C763.133 179.476 764.453 179.711 765.597 180.18C766.77 180.649 767.679 181.339 768.325 182.248C768.97 183.157 769.293 184.301 769.293 185.68C769.293 187.997 768.266 189.757 766.213 190.96C764.159 192.163 761.006 192.764 756.753 192.764C755.961 192.764 755.051 192.749 754.025 192.72C752.998 192.661 751.81 192.573 750.461 192.456L750.989 189.816C752.279 189.875 753.379 189.933 754.289 189.992C755.227 190.051 756.093 190.08 756.885 190.08C759.114 190.08 760.874 189.889 762.165 189.508C763.455 189.127 764.379 188.599 764.937 187.924C765.523 187.249 765.817 186.487 765.817 185.636C765.817 184.873 765.626 184.257 765.245 183.788C764.893 183.319 764.379 182.967 763.705 182.732C763.059 182.497 762.282 182.38 761.373 182.38C759.906 182.38 758.571 182.688 757.369 183.304C756.195 183.92 755.169 184.756 754.289 185.812C753.438 186.868 752.778 188.071 752.309 189.42C751.869 190.74 751.649 192.119 751.649 193.556C751.649 194.759 751.854 195.888 752.265 196.944C752.675 197.971 753.306 198.807 754.157 199.452C755.007 200.068 756.078 200.376 757.369 200.376C758.718 200.376 760.038 200.039 761.329 199.364C762.619 198.66 763.631 197.721 764.365 196.548L767.489 197.472C766.785 198.587 765.861 199.584 764.717 200.464C763.573 201.344 762.311 202.033 760.933 202.532C759.583 203.031 758.19 203.28 756.753 203.28ZM773.744 179.872H777.264L776.208 184.8C777 183.715 777.938 182.776 779.024 181.984C780.138 181.192 781.326 180.576 782.588 180.136C783.849 179.696 785.11 179.476 786.372 179.476C787.604 179.476 788.586 179.711 789.32 180.18C790.053 180.62 790.581 181.251 790.904 182.072C791.226 182.864 791.388 183.803 791.388 184.888C791.388 185.533 791.329 186.208 791.212 186.912C791.124 187.616 791.006 188.349 790.86 189.112L787.956 202.84H784.084L786.812 189.992C786.958 189.347 787.061 188.76 787.12 188.232C787.178 187.675 787.208 187.161 787.208 186.692C787.208 185.401 786.944 184.463 786.416 183.876C785.888 183.26 785.11 182.952 784.084 182.952C783.116 182.952 782.089 183.216 781.004 183.744C779.918 184.272 778.906 184.991 777.968 185.9C777.029 186.78 776.266 187.807 775.68 188.98L772.732 202.84H768.86L773.744 179.872ZM799.768 203.28C797.92 203.28 796.204 203.001 794.62 202.444C793.036 201.857 791.746 201.021 790.748 199.936L792.948 197.34C794.004 198.337 795.119 199.085 796.292 199.584C797.495 200.053 798.771 200.288 800.12 200.288C801.294 200.288 802.32 200.127 803.2 199.804C804.11 199.452 804.814 198.968 805.312 198.352C805.811 197.707 806.06 196.973 806.06 196.152C806.06 195.096 805.62 194.377 804.74 193.996C803.86 193.585 802.555 193.131 800.824 192.632C799.387 192.192 798.184 191.781 797.216 191.4C796.278 191.019 795.574 190.535 795.104 189.948C794.664 189.332 794.444 188.496 794.444 187.44C794.444 185.856 794.884 184.477 795.764 183.304C796.644 182.101 797.832 181.163 799.328 180.488C800.824 179.813 802.511 179.476 804.388 179.476C806.119 179.476 807.63 179.755 808.92 180.312C810.211 180.869 811.267 181.603 812.088 182.512L809.844 184.844C809.111 183.993 808.29 183.377 807.38 182.996C806.471 182.615 805.415 182.424 804.212 182.424C803.068 182.424 802.042 182.585 801.132 182.908C800.252 183.201 799.548 183.656 799.02 184.272C798.522 184.888 798.272 185.651 798.272 186.56C798.272 187.469 798.595 188.115 799.24 188.496C799.886 188.848 801.015 189.244 802.628 189.684C804.212 190.124 805.547 190.593 806.632 191.092C807.747 191.561 808.583 192.148 809.14 192.852C809.698 193.556 809.976 194.495 809.976 195.668C809.976 197.105 809.551 198.396 808.7 199.54C807.879 200.684 806.706 201.593 805.18 202.268C803.655 202.943 801.851 203.28 799.768 203.28ZM818.851 203.28C817.003 203.28 815.287 203.001 813.703 202.444C812.119 201.857 810.829 201.021 809.831 199.936L812.031 197.34C813.087 198.337 814.202 199.085 815.375 199.584C816.578 200.053 817.854 200.288 819.203 200.288C820.377 200.288 821.403 200.127 822.283 199.804C823.193 199.452 823.897 198.968 824.395 198.352C824.894 197.707 825.143 196.973 825.143 196.152C825.143 195.096 824.703 194.377 823.823 193.996C822.943 193.585 821.638 193.131 819.907 192.632C818.47 192.192 817.267 191.781 816.299 191.4C815.361 191.019 814.657 190.535 814.187 189.948C813.747 189.332 813.527 188.496 813.527 187.44C813.527 185.856 813.967 184.477 814.847 183.304C815.727 182.101 816.915 181.163 818.411 180.488C819.907 179.813 821.594 179.476 823.471 179.476C825.202 179.476 826.713 179.755 828.003 180.312C829.294 180.869 830.35 181.603 831.171 182.512L828.927 184.844C828.194 183.993 827.373 183.377 826.463 182.996C825.554 182.615 824.498 182.424 823.295 182.424C822.151 182.424 821.125 182.585 820.215 182.908C819.335 183.201 818.631 183.656 818.103 184.272C817.605 184.888 817.355 185.651 817.355 186.56C817.355 187.469 817.678 188.115 818.323 188.496C818.969 188.848 820.098 189.244 821.711 189.684C823.295 190.124 824.63 190.593 825.715 191.092C826.83 191.561 827.666 192.148 828.223 192.852C828.781 193.556 829.059 194.495 829.059 195.668C829.059 197.105 828.634 198.396 827.783 199.54C826.962 200.684 825.789 201.593 824.263 202.268C822.738 202.943 820.934 203.28 818.851 203.28ZM840.002 203.28C838.095 203.28 836.467 202.855 835.118 202.004C833.769 201.124 832.742 199.951 832.038 198.484C831.334 197.017 830.982 195.375 830.982 193.556C830.982 191.708 831.319 189.948 831.994 188.276C832.698 186.575 833.681 185.064 834.942 183.744C836.203 182.424 837.67 181.383 839.342 180.62C841.043 179.857 842.891 179.476 844.886 179.476C846.382 179.476 847.702 179.711 848.846 180.18C850.019 180.649 850.929 181.339 851.574 182.248C852.219 183.157 852.542 184.301 852.542 185.68C852.542 187.997 851.515 189.757 849.462 190.96C847.409 192.163 844.255 192.764 840.002 192.764C839.21 192.764 838.301 192.749 837.274 192.72C836.247 192.661 835.059 192.573 833.71 192.456L834.238 189.816C835.529 189.875 836.629 189.933 837.538 189.992C838.477 190.051 839.342 190.08 840.134 190.08C842.363 190.08 844.123 189.889 845.414 189.508C846.705 189.127 847.629 188.599 848.186 187.924C848.773 187.249 849.066 186.487 849.066 185.636C849.066 184.873 848.875 184.257 848.494 183.788C848.142 183.319 847.629 182.967 846.954 182.732C846.309 182.497 845.531 182.38 844.622 182.38C843.155 182.38 841.821 182.688 840.618 183.304C839.445 183.92 838.418 184.756 837.538 185.812C836.687 186.868 836.027 188.071 835.558 189.42C835.118 190.74 834.898 192.119 834.898 193.556C834.898 194.759 835.103 195.888 835.514 196.944C835.925 197.971 836.555 198.807 837.406 199.452C838.257 200.068 839.327 200.376 840.618 200.376C841.967 200.376 843.287 200.039 844.578 199.364C845.869 198.66 846.881 197.721 847.614 196.548L850.738 197.472C850.034 198.587 849.11 199.584 847.966 200.464C846.822 201.344 845.561 202.033 844.182 202.532C842.833 203.031 841.439 203.28 840.002 203.28ZM856.817 203.148C855.614 203.148 854.675 202.855 854.001 202.268C853.326 201.652 852.989 200.801 852.989 199.716C852.989 199.481 853.003 199.247 853.033 199.012C853.091 198.777 853.135 198.543 853.165 198.308L859.017 170.72H862.845L857.301 196.9C857.271 197.047 857.242 197.193 857.213 197.34C857.213 197.457 857.213 197.589 857.213 197.736C857.213 198.997 857.873 199.628 859.193 199.628C859.515 199.628 859.897 199.584 860.337 199.496C860.806 199.379 861.231 199.247 861.613 199.1L861.481 202.224C860.835 202.488 860.058 202.708 859.149 202.884C858.269 203.06 857.491 203.148 856.817 203.148ZM871.573 203.28C869.871 203.28 868.405 202.855 867.173 202.004C865.941 201.124 865.002 199.965 864.357 198.528C863.711 197.061 863.389 195.463 863.389 193.732C863.389 191.884 863.726 190.109 864.401 188.408C865.105 186.707 866.043 185.196 867.217 183.876C868.419 182.527 869.783 181.456 871.309 180.664C872.834 179.872 874.433 179.476 876.105 179.476C877.865 179.476 879.331 179.96 880.505 180.928C881.678 181.896 882.499 183.069 882.969 184.448L883.981 179.872H887.853L883.981 198.088C883.951 198.205 883.922 198.308 883.893 198.396C883.893 198.484 883.893 198.572 883.893 198.66C883.893 199.188 884.215 199.467 884.861 199.496L884.157 202.84C883.834 202.869 883.541 202.899 883.277 202.928C883.042 202.987 882.822 203.016 882.617 203.016C881.795 203.016 881.165 202.825 880.725 202.444C880.314 202.063 880.109 201.593 880.109 201.036C880.109 200.86 880.123 200.655 880.153 200.42C880.182 200.185 880.226 199.907 880.285 199.584C880.343 199.261 880.417 198.909 880.505 198.528C879.361 199.995 877.967 201.153 876.325 202.004C874.711 202.855 873.127 203.28 871.573 203.28ZM873.245 199.936C873.89 199.936 874.579 199.804 875.313 199.54C876.075 199.276 876.809 198.909 877.513 198.44C878.246 197.971 878.906 197.428 879.493 196.812C880.079 196.167 880.519 195.492 880.813 194.788L882.177 188.188C882.059 187.191 881.722 186.296 881.165 185.504C880.607 184.683 879.918 184.037 879.097 183.568C878.305 183.069 877.454 182.82 876.545 182.82C875.313 182.82 874.154 183.128 873.069 183.744C871.983 184.331 871.015 185.123 870.165 186.12C869.343 187.117 868.683 188.232 868.185 189.464C867.715 190.667 867.481 191.884 867.481 193.116C867.481 194.377 867.715 195.521 868.185 196.548C868.654 197.575 869.314 198.396 870.165 199.012C871.045 199.628 872.071 199.936 873.245 199.936ZM897.336 203.28C895.43 203.28 893.802 202.855 892.452 202.004C891.103 201.124 890.076 199.951 889.372 198.484C888.668 197.017 888.316 195.375 888.316 193.556C888.316 191.708 888.654 189.948 889.328 188.276C890.032 186.575 891.015 185.064 892.276 183.744C893.538 182.424 895.004 181.383 896.676 180.62C898.378 179.857 900.226 179.476 902.22 179.476C903.716 179.476 905.036 179.711 906.18 180.18C907.354 180.649 908.263 181.339 908.908 182.248C909.554 183.157 909.876 184.301 909.876 185.68C909.876 187.997 908.85 189.757 906.796 190.96C904.743 192.163 901.59 192.764 897.336 192.764C896.544 192.764 895.635 192.749 894.608 192.72C893.582 192.661 892.394 192.573 891.044 192.456L891.572 189.816C892.863 189.875 893.963 189.933 894.872 189.992C895.811 190.051 896.676 190.08 897.468 190.08C899.698 190.08 901.458 189.889 902.748 189.508C904.039 189.127 904.963 188.599 905.52 187.924C906.107 187.249 906.4 186.487 906.4 185.636C906.4 184.873 906.21 184.257 905.828 183.788C905.476 183.319 904.963 182.967 904.288 182.732C903.643 182.497 902.866 182.38 901.956 182.38C900.49 182.38 899.155 182.688 897.952 183.304C896.779 183.92 895.752 184.756 894.872 185.812C894.022 186.868 893.362 188.071 892.892 189.42C892.452 190.74 892.232 192.119 892.232 193.556C892.232 194.759 892.438 195.888 892.848 196.944C893.259 197.971 893.89 198.807 894.74 199.452C895.591 200.068 896.662 200.376 897.952 200.376C899.302 200.376 900.622 200.039 901.912 199.364C903.203 198.66 904.215 197.721 904.948 196.548L908.072 197.472C907.368 198.587 906.444 199.584 905.3 200.464C904.156 201.344 902.895 202.033 901.516 202.532C900.167 203.031 898.774 203.28 897.336 203.28ZM914.327 179.872H917.935L916.791 185.196C917.906 183.612 919.167 182.321 920.575 181.324C922.012 180.327 923.435 179.828 924.843 179.828C925.107 179.828 925.327 179.843 925.503 179.872C925.708 179.872 925.87 179.887 925.987 179.916L925.283 183.26C923.464 183.289 921.748 183.788 920.135 184.756C918.522 185.695 917.246 187 916.307 188.672L913.315 202.84H909.443L914.327 179.872ZM941.178 203.28C939.242 203.28 937.599 202.84 936.25 201.96C934.93 201.08 933.918 199.907 933.214 198.44C932.51 196.973 932.158 195.345 932.158 193.556C932.158 191.708 932.51 189.948 933.214 188.276C933.918 186.575 934.886 185.064 936.118 183.744C937.379 182.424 938.846 181.383 940.518 180.62C942.219 179.857 944.052 179.476 946.018 179.476C948.276 179.476 950.08 179.989 951.43 181.016C952.808 182.013 953.718 183.363 954.158 185.064L950.154 186.252C949.802 185.137 949.215 184.287 948.394 183.7C947.572 183.113 946.56 182.82 945.358 182.82C944.184 182.82 943.04 183.084 941.926 183.612C940.84 184.14 939.858 184.888 938.978 185.856C938.127 186.795 937.438 187.88 936.91 189.112C936.411 190.344 936.162 191.664 936.162 193.072C936.162 194.392 936.396 195.565 936.866 196.592C937.335 197.619 937.98 198.44 938.802 199.056C939.652 199.643 940.62 199.936 941.706 199.936C942.556 199.936 943.407 199.775 944.258 199.452C945.108 199.129 945.871 198.704 946.546 198.176C947.25 197.619 947.778 197.017 948.13 196.372L951.694 197.516C951.019 198.631 950.124 199.628 949.01 200.508C947.924 201.359 946.707 202.033 945.358 202.532C944.008 203.031 942.615 203.28 941.178 203.28ZM962.841 203.28C960.787 203.28 959.086 202.84 957.737 201.96C956.387 201.08 955.375 199.907 954.701 198.44C954.055 196.973 953.733 195.36 953.733 193.6C953.733 191.664 954.085 189.845 954.789 188.144C955.493 186.443 956.461 184.947 957.693 183.656C958.954 182.336 960.406 181.309 962.049 180.576C963.691 179.843 965.437 179.476 967.285 179.476C969.338 179.476 971.039 179.916 972.389 180.796C973.767 181.676 974.794 182.849 975.469 184.316C976.143 185.783 976.481 187.411 976.481 189.2C976.481 191.107 976.129 192.911 975.425 194.612C974.721 196.313 973.738 197.824 972.477 199.144C971.215 200.435 969.763 201.447 968.121 202.18C966.478 202.913 964.718 203.28 962.841 203.28ZM963.501 199.936C964.645 199.936 965.745 199.687 966.801 199.188C967.886 198.689 968.839 197.985 969.661 197.076C970.511 196.137 971.186 195.052 971.685 193.82C972.183 192.588 972.433 191.239 972.433 189.772C972.433 188.423 972.213 187.235 971.773 186.208C971.333 185.152 970.687 184.331 969.837 183.744C968.986 183.128 967.93 182.82 966.669 182.82C965.525 182.82 964.425 183.084 963.369 183.612C962.313 184.111 961.359 184.829 960.509 185.768C959.658 186.677 958.983 187.763 958.485 189.024C957.986 190.256 957.737 191.605 957.737 193.072C957.737 194.392 957.957 195.58 958.397 196.636C958.837 197.663 959.482 198.469 960.333 199.056C961.213 199.643 962.269 199.936 963.501 199.936ZM981.506 179.872H985.026L983.97 184.8C985.143 183.157 986.551 181.867 988.194 180.928C989.837 179.96 991.509 179.476 993.21 179.476C994.354 179.476 995.307 179.696 996.07 180.136C996.862 180.576 997.463 181.207 997.874 182.028C998.285 182.849 998.505 183.861 998.534 185.064C999.443 183.832 1000.4 182.805 1001.39 181.984C1002.39 181.163 1003.45 180.547 1004.56 180.136C1005.68 179.696 1006.81 179.476 1007.95 179.476C1009.21 179.476 1010.21 179.711 1010.94 180.18C1011.68 180.649 1012.2 181.309 1012.53 182.16C1012.88 182.981 1013.05 183.949 1013.05 185.064C1013.05 185.68 1013.01 186.325 1012.92 187C1012.83 187.675 1012.72 188.379 1012.57 189.112L1009.62 202.84H1005.75L1008.48 189.992C1008.74 188.76 1008.87 187.689 1008.87 186.78C1008.87 185.489 1008.6 184.536 1008.04 183.92C1007.51 183.275 1006.73 182.952 1005.71 182.952C1004.74 182.952 1003.77 183.216 1002.8 183.744C1001.83 184.243 1000.92 184.947 1000.07 185.856C999.253 186.765 998.549 187.821 997.962 189.024L995.058 202.84H991.186L993.914 189.992C994.061 189.347 994.163 188.76 994.222 188.232C994.281 187.704 994.31 187.205 994.31 186.736C994.31 185.445 994.046 184.492 993.518 183.876C992.99 183.26 992.213 182.952 991.186 182.952C989.749 182.952 988.311 183.509 986.874 184.624C985.466 185.709 984.322 187.161 983.442 188.98L980.494 202.84H976.622L981.506 179.872ZM1018.55 179.872H1022.07L1021.01 184.8C1022.19 183.157 1023.6 181.867 1025.24 180.928C1026.88 179.96 1028.55 179.476 1030.25 179.476C1031.4 179.476 1032.35 179.696 1033.11 180.136C1033.91 180.576 1034.51 181.207 1034.92 182.028C1035.33 182.849 1035.55 183.861 1035.58 185.064C1036.49 183.832 1037.44 182.805 1038.44 181.984C1039.44 181.163 1040.49 180.547 1041.61 180.136C1042.72 179.696 1043.85 179.476 1044.99 179.476C1046.26 179.476 1047.25 179.711 1047.99 180.18C1048.72 180.649 1049.25 181.309 1049.57 182.16C1049.92 182.981 1050.1 183.949 1050.1 185.064C1050.1 185.68 1050.05 186.325 1049.97 187C1049.88 187.675 1049.76 188.379 1049.61 189.112L1046.67 202.84H1042.79L1045.52 189.992C1045.79 188.76 1045.92 187.689 1045.92 186.78C1045.92 185.489 1045.64 184.536 1045.08 183.92C1044.55 183.275 1043.78 182.952 1042.75 182.952C1041.78 182.952 1040.81 183.216 1039.85 183.744C1038.88 184.243 1037.97 184.947 1037.12 185.856C1036.3 186.765 1035.59 187.821 1035.01 189.024L1032.1 202.84H1028.23L1030.96 189.992C1031.1 189.347 1031.21 188.76 1031.27 188.232C1031.32 187.704 1031.35 187.205 1031.35 186.736C1031.35 185.445 1031.09 184.492 1030.56 183.876C1030.03 183.26 1029.26 182.952 1028.23 182.952C1026.79 182.952 1025.36 183.509 1023.92 184.624C1022.51 185.709 1021.37 187.161 1020.49 188.98L1017.54 202.84H1013.67L1018.55 179.872ZM1057.31 203.28C1053.73 203.28 1051.94 201.344 1051.94 197.472C1051.94 196.915 1051.99 196.328 1052.07 195.712C1052.16 195.067 1052.28 194.377 1052.43 193.644L1055.37 179.872H1059.2L1056.43 192.896C1056.17 194.069 1056.03 195.081 1056.03 195.932C1056.03 198.601 1057.18 199.936 1059.47 199.936C1060.46 199.936 1061.46 199.716 1062.46 199.276C1063.45 198.807 1064.41 198.147 1065.32 197.296C1066.26 196.445 1067.06 195.433 1067.74 194.26L1070.77 179.872H1074.65L1070.77 198.088C1070.74 198.205 1070.71 198.308 1070.69 198.396C1070.69 198.484 1070.69 198.572 1070.69 198.66C1070.69 199.188 1071.01 199.467 1071.65 199.496L1070.95 202.84C1070.63 202.869 1070.33 202.899 1070.07 202.928C1069.83 202.987 1069.61 203.016 1069.41 203.016C1068.62 203.016 1068.02 202.84 1067.61 202.488C1067.19 202.136 1066.99 201.667 1066.99 201.08C1066.99 200.904 1067 200.699 1067.03 200.464C1067.06 200.2 1067.11 199.863 1067.17 199.452C1067.25 199.041 1067.36 198.528 1067.47 197.912C1066.15 199.613 1064.6 200.933 1062.81 201.872C1061.02 202.811 1059.19 203.28 1057.31 203.28ZM1079.19 179.872H1082.71L1081.65 184.8C1082.44 183.715 1083.38 182.776 1084.47 181.984C1085.58 181.192 1086.77 180.576 1088.03 180.136C1089.29 179.696 1090.55 179.476 1091.82 179.476C1093.05 179.476 1094.03 179.711 1094.76 180.18C1095.5 180.62 1096.03 181.251 1096.35 182.072C1096.67 182.864 1096.83 183.803 1096.83 184.888C1096.83 185.533 1096.77 186.208 1096.66 186.912C1096.57 187.616 1096.45 188.349 1096.3 189.112L1093.4 202.84H1089.53L1092.26 189.992C1092.4 189.347 1092.51 188.76 1092.56 188.232C1092.62 187.675 1092.65 187.161 1092.65 186.692C1092.65 185.401 1092.39 184.463 1091.86 183.876C1091.33 183.26 1090.55 182.952 1089.53 182.952C1088.56 182.952 1087.53 183.216 1086.45 183.744C1085.36 184.272 1084.35 184.991 1083.41 185.9C1082.47 186.78 1081.71 187.807 1081.12 188.98L1078.18 202.84H1074.3L1079.19 179.872ZM1102.35 179.872H1106.22L1101.34 202.84H1097.47L1102.35 179.872ZM1104.29 170.72H1108.16L1107.15 175.56H1103.28L1104.29 170.72ZM1107.49 199.628C1107.49 199.423 1107.5 199.217 1107.53 199.012C1107.56 198.777 1107.59 198.557 1107.62 198.352L1110.92 182.908H1107.93L1108.59 179.872H1111.53L1113.16 172.216H1117.03L1115.41 179.872H1120.29L1119.63 182.908H1114.79L1111.75 197.164C1111.73 197.281 1111.7 197.399 1111.67 197.516C1111.67 197.604 1111.67 197.707 1111.67 197.824C1111.67 198.44 1111.86 198.895 1112.24 199.188C1112.62 199.452 1113.09 199.584 1113.65 199.584C1114.15 199.584 1114.61 199.525 1115.05 199.408C1115.52 199.261 1115.93 199.115 1116.29 198.968C1116.64 198.821 1116.9 198.704 1117.08 198.616L1117.3 201.696C1116.95 201.931 1116.48 202.165 1115.89 202.4C1115.3 202.635 1114.64 202.811 1113.91 202.928C1113.18 203.075 1112.41 203.148 1111.62 203.148C1110.45 203.148 1109.47 202.869 1108.67 202.312C1107.88 201.725 1107.49 200.831 1107.49 199.628ZM1116.9 209.572C1118.13 209.396 1119.13 209.161 1119.89 208.868C1120.69 208.604 1121.38 208.179 1121.96 207.592C1122.55 207.035 1123.18 206.257 1123.85 205.26L1125.13 203.324L1120.69 179.872H1124.69L1127.86 199.364L1129.35 196.9C1130.59 194.876 1131.63 193.101 1132.48 191.576C1133.33 190.051 1134.05 188.657 1134.63 187.396C1135.25 186.105 1135.76 184.859 1136.17 183.656C1136.58 182.453 1136.97 181.192 1137.32 179.872H1141.15C1140.76 181.28 1140.34 182.6 1139.87 183.832C1139.4 185.064 1138.84 186.355 1138.2 187.704C1137.55 189.053 1136.73 190.579 1135.73 192.28C1134.77 193.952 1133.55 195.961 1132.08 198.308L1128.56 203.984C1127.56 205.597 1126.63 206.947 1125.75 208.032C1124.87 209.147 1123.99 210.041 1123.11 210.716C1122.26 211.391 1121.36 211.875 1120.42 212.168C1119.51 212.491 1118.52 212.667 1117.43 212.696L1116.9 209.572ZM1154.9 203.28C1153.06 203.28 1151.34 203.001 1149.76 202.444C1148.17 201.857 1146.88 201.021 1145.88 199.936L1148.08 197.34C1149.14 198.337 1150.25 199.085 1151.43 199.584C1152.63 200.053 1153.91 200.288 1155.26 200.288C1156.43 200.288 1157.46 200.127 1158.34 199.804C1159.24 199.452 1159.95 198.968 1160.45 198.352C1160.95 197.707 1161.2 196.973 1161.2 196.152C1161.2 195.096 1160.76 194.377 1159.88 193.996C1159 193.585 1157.69 193.131 1155.96 192.632C1154.52 192.192 1153.32 191.781 1152.35 191.4C1151.41 191.019 1150.71 190.535 1150.24 189.948C1149.8 189.332 1149.58 188.496 1149.58 187.44C1149.58 185.856 1150.02 184.477 1150.9 183.304C1151.78 182.101 1152.97 181.163 1154.46 180.488C1155.96 179.813 1157.65 179.476 1159.52 179.476C1161.25 179.476 1162.76 179.755 1164.06 180.312C1165.35 180.869 1166.4 181.603 1167.22 182.512L1164.98 184.844C1164.25 183.993 1163.42 183.377 1162.52 182.996C1161.61 182.615 1160.55 182.424 1159.35 182.424C1158.2 182.424 1157.18 182.585 1156.27 182.908C1155.39 183.201 1154.68 183.656 1154.16 184.272C1153.66 184.888 1153.41 185.651 1153.41 186.56C1153.41 187.469 1153.73 188.115 1154.38 188.496C1155.02 188.848 1156.15 189.244 1157.76 189.684C1159.35 190.124 1160.68 190.593 1161.77 191.092C1162.88 191.561 1163.72 192.148 1164.28 192.852C1164.83 193.556 1165.11 194.495 1165.11 195.668C1165.11 197.105 1164.69 198.396 1163.84 199.54C1163.01 200.684 1161.84 201.593 1160.32 202.268C1158.79 202.943 1156.99 203.28 1154.9 203.28ZM1171.13 179.872H1175L1170.11 202.84H1166.24L1171.13 179.872ZM1173.06 170.72H1176.93L1175.92 175.56H1172.05L1173.06 170.72ZM1179.25 179.872H1182.77L1181.72 184.8C1182.51 183.715 1183.45 182.776 1184.53 181.984C1185.65 181.192 1186.83 180.576 1188.1 180.136C1189.36 179.696 1190.62 179.476 1191.88 179.476C1193.11 179.476 1194.09 179.711 1194.83 180.18C1195.56 180.62 1196.09 181.251 1196.41 182.072C1196.73 182.864 1196.9 183.803 1196.9 184.888C1196.9 185.533 1196.84 186.208 1196.72 186.912C1196.63 187.616 1196.51 188.349 1196.37 189.112L1193.46 202.84H1189.59L1192.32 189.992C1192.47 189.347 1192.57 188.76 1192.63 188.232C1192.69 187.675 1192.72 187.161 1192.72 186.692C1192.72 185.401 1192.45 184.463 1191.92 183.876C1191.4 183.26 1190.62 182.952 1189.59 182.952C1188.62 182.952 1187.6 183.216 1186.51 183.744C1185.43 184.272 1184.41 184.991 1183.48 185.9C1182.54 186.78 1181.77 187.807 1181.19 188.98L1178.24 202.84H1174.37L1179.25 179.872ZM1207.3 203.28C1205.36 203.28 1203.72 202.84 1202.37 201.96C1201.05 201.08 1200.04 199.907 1199.34 198.44C1198.63 196.973 1198.28 195.345 1198.28 193.556C1198.28 191.708 1198.63 189.948 1199.34 188.276C1200.04 186.575 1201.01 185.064 1202.24 183.744C1203.5 182.424 1204.97 181.383 1206.64 180.62C1208.34 179.857 1210.18 179.476 1212.14 179.476C1214.4 179.476 1216.2 179.989 1217.55 181.016C1218.93 182.013 1219.84 183.363 1220.28 185.064L1216.28 186.252C1215.92 185.137 1215.34 184.287 1214.52 183.7C1213.7 183.113 1212.68 182.82 1211.48 182.82C1210.31 182.82 1209.16 183.084 1208.05 183.612C1206.96 184.14 1205.98 184.888 1205.1 185.856C1204.25 186.795 1203.56 187.88 1203.03 189.112C1202.53 190.344 1202.28 191.664 1202.28 193.072C1202.28 194.392 1202.52 195.565 1202.99 196.592C1203.46 197.619 1204.1 198.44 1204.92 199.056C1205.78 199.643 1206.74 199.936 1207.83 199.936C1208.68 199.936 1209.53 199.775 1210.38 199.452C1211.23 199.129 1211.99 198.704 1212.67 198.176C1213.37 197.619 1213.9 197.017 1214.25 196.372L1217.82 197.516C1217.14 198.631 1216.25 199.628 1215.13 200.508C1214.05 201.359 1212.83 202.033 1211.48 202.532C1210.13 203.031 1208.74 203.28 1207.3 203.28ZM1228.92 203.28C1227.01 203.28 1225.39 202.855 1224.04 202.004C1222.69 201.124 1221.66 199.951 1220.96 198.484C1220.25 197.017 1219.9 195.375 1219.9 193.556C1219.9 191.708 1220.24 189.948 1220.91 188.276C1221.62 186.575 1222.6 185.064 1223.86 183.744C1225.12 182.424 1226.59 181.383 1228.26 180.62C1229.96 179.857 1231.81 179.476 1233.8 179.476C1235.3 179.476 1236.62 179.711 1237.76 180.18C1238.94 180.649 1239.85 181.339 1240.49 182.248C1241.14 183.157 1241.46 184.301 1241.46 185.68C1241.46 187.997 1240.43 189.757 1238.38 190.96C1236.33 192.163 1233.17 192.764 1228.92 192.764C1228.13 192.764 1227.22 192.749 1226.19 192.72C1225.17 192.661 1223.98 192.573 1222.63 192.456L1223.16 189.816C1224.45 189.875 1225.55 189.933 1226.46 189.992C1227.39 190.051 1228.26 190.08 1229.05 190.08C1231.28 190.08 1233.04 189.889 1234.33 189.508C1235.62 189.127 1236.55 188.599 1237.1 187.924C1237.69 187.249 1237.98 186.487 1237.98 185.636C1237.98 184.873 1237.79 184.257 1237.41 183.788C1237.06 183.319 1236.55 182.967 1235.87 182.732C1235.23 182.497 1234.45 182.38 1233.54 182.38C1232.07 182.38 1230.74 182.688 1229.54 183.304C1228.36 183.92 1227.34 184.756 1226.46 185.812C1225.61 186.868 1224.95 188.071 1224.48 189.42C1224.04 190.74 1223.82 192.119 1223.82 193.556C1223.82 194.759 1224.02 195.888 1224.43 196.944C1224.84 197.971 1225.47 198.807 1226.32 199.452C1227.17 200.068 1228.25 200.376 1229.54 200.376C1230.89 200.376 1232.21 200.039 1233.5 199.364C1234.79 198.66 1235.8 197.721 1236.53 196.548L1239.66 197.472C1238.95 198.587 1238.03 199.584 1236.88 200.464C1235.74 201.344 1234.48 202.033 1233.1 202.532C1231.75 203.031 1230.36 203.28 1228.92 203.28ZM1250.76 199.32H1256.7L1260.35 182.16C1260.03 182.512 1259.56 182.893 1258.94 183.304C1258.33 183.685 1257.64 184.052 1256.87 184.404C1256.14 184.756 1255.41 185.049 1254.67 185.284C1253.97 185.489 1253.34 185.592 1252.78 185.592L1253.57 181.896C1254.19 181.896 1254.91 181.72 1255.73 181.368C1256.55 180.987 1257.36 180.547 1258.15 180.048C1258.94 179.549 1259.63 179.08 1260.22 178.64C1260.8 178.2 1261.16 177.892 1261.27 177.716H1265.23L1260.66 199.32H1265.98L1265.23 202.84H1250.01L1250.76 199.32ZM1276.84 203.192C1275.11 203.192 1273.59 202.855 1272.3 202.18C1271.01 201.476 1270 200.537 1269.27 199.364C1268.56 198.161 1268.21 196.827 1268.21 195.36C1268.21 193.747 1268.59 192.339 1269.36 191.136C1270.12 189.904 1271.06 188.863 1272.17 188.012C1273.32 187.161 1274.43 186.531 1275.52 186.12C1274.61 185.651 1273.83 184.947 1273.18 184.008C1272.57 183.069 1272.26 182.013 1272.26 180.84C1272.26 179.373 1272.61 178.083 1273.32 176.968C1274.02 175.824 1274.94 174.856 1276.09 174.064C1277.23 173.243 1278.46 172.627 1279.78 172.216C1281.1 171.805 1282.38 171.6 1283.61 171.6C1284.96 171.6 1286.24 171.864 1287.44 172.392C1288.67 172.92 1289.67 173.697 1290.43 174.724C1291.22 175.721 1291.62 176.953 1291.62 178.42C1291.62 179.652 1291.33 180.767 1290.74 181.764C1290.15 182.761 1289.39 183.627 1288.45 184.36C1287.51 185.093 1286.53 185.68 1285.5 186.12C1286.65 186.648 1287.6 187.484 1288.36 188.628C1289.16 189.743 1289.55 191.063 1289.55 192.588C1289.55 194.143 1289.19 195.58 1288.45 196.9C1287.75 198.191 1286.79 199.305 1285.59 200.244C1284.39 201.183 1283.03 201.916 1281.5 202.444C1280 202.943 1278.45 203.192 1276.84 203.192ZM1277.67 199.716C1278.58 199.716 1279.49 199.555 1280.4 199.232C1281.34 198.88 1282.2 198.396 1283 197.78C1283.79 197.164 1284.42 196.431 1284.89 195.58C1285.39 194.7 1285.64 193.747 1285.64 192.72C1285.64 191.664 1285.37 190.769 1284.84 190.036C1284.32 189.303 1283.63 188.745 1282.78 188.364C1281.95 187.953 1281.07 187.748 1280.14 187.748C1279.23 187.748 1278.3 187.924 1277.36 188.276C1276.45 188.599 1275.6 189.068 1274.81 189.684C1274.05 190.3 1273.43 191.048 1272.96 191.928C1272.49 192.779 1272.26 193.717 1272.26 194.744C1272.26 195.771 1272.51 196.665 1273.01 197.428C1273.54 198.161 1274.21 198.733 1275.03 199.144C1275.88 199.525 1276.76 199.716 1277.67 199.716ZM1280.84 184.756C1281.54 184.756 1282.29 184.639 1283.08 184.404C1283.88 184.14 1284.61 183.759 1285.28 183.26C1285.96 182.761 1286.5 182.16 1286.91 181.456C1287.35 180.752 1287.57 179.945 1287.57 179.036C1287.57 178.215 1287.35 177.511 1286.91 176.924C1286.5 176.337 1285.94 175.883 1285.24 175.56C1284.54 175.237 1283.74 175.076 1282.86 175.076C1281.78 175.076 1280.72 175.311 1279.7 175.78C1278.67 176.22 1277.82 176.865 1277.14 177.716C1276.5 178.567 1276.18 179.564 1276.18 180.708C1276.18 181.559 1276.4 182.292 1276.84 182.908C1277.31 183.524 1277.89 183.993 1278.6 184.316C1279.33 184.609 1280.08 184.756 1280.84 184.756ZM1300.39 203.192C1298.66 203.192 1297.15 202.855 1295.86 202.18C1294.56 201.476 1293.55 200.537 1292.82 199.364C1292.12 198.161 1291.76 196.827 1291.76 195.36C1291.76 193.747 1292.14 192.339 1292.91 191.136C1293.67 189.904 1294.61 188.863 1295.72 188.012C1296.87 187.161 1297.98 186.531 1299.07 186.12C1298.16 185.651 1297.38 184.947 1296.74 184.008C1296.12 183.069 1295.81 182.013 1295.81 180.84C1295.81 179.373 1296.16 178.083 1296.87 176.968C1297.57 175.824 1298.5 174.856 1299.64 174.064C1300.78 173.243 1302.02 172.627 1303.34 172.216C1304.66 171.805 1305.93 171.6 1307.16 171.6C1308.51 171.6 1309.79 171.864 1310.99 172.392C1312.22 172.92 1313.22 173.697 1313.98 174.724C1314.78 175.721 1315.17 176.953 1315.17 178.42C1315.17 179.652 1314.88 180.767 1314.29 181.764C1313.7 182.761 1312.94 183.627 1312 184.36C1311.06 185.093 1310.08 185.68 1309.06 186.12C1310.2 186.648 1311.15 187.484 1311.92 188.628C1312.71 189.743 1313.1 191.063 1313.1 192.588C1313.1 194.143 1312.74 195.58 1312 196.9C1311.3 198.191 1310.35 199.305 1309.14 200.244C1307.94 201.183 1306.58 201.916 1305.05 202.444C1303.56 202.943 1302 203.192 1300.39 203.192ZM1301.22 199.716C1302.13 199.716 1303.04 199.555 1303.95 199.232C1304.89 198.88 1305.76 198.396 1306.55 197.78C1307.34 197.164 1307.97 196.431 1308.44 195.58C1308.94 194.7 1309.19 193.747 1309.19 192.72C1309.19 191.664 1308.92 190.769 1308.4 190.036C1307.87 189.303 1307.18 188.745 1306.33 188.364C1305.51 187.953 1304.63 187.748 1303.69 187.748C1302.78 187.748 1301.85 187.924 1300.92 188.276C1300.01 188.599 1299.16 189.068 1298.36 189.684C1297.6 190.3 1296.98 191.048 1296.52 191.928C1296.05 192.779 1295.81 193.717 1295.81 194.744C1295.81 195.771 1296.06 196.665 1296.56 197.428C1297.09 198.161 1297.76 198.733 1298.58 199.144C1299.43 199.525 1300.31 199.716 1301.22 199.716ZM1304.39 184.756C1305.1 184.756 1305.84 184.639 1306.64 184.404C1307.43 184.14 1308.16 183.759 1308.84 183.26C1309.51 182.761 1310.05 182.16 1310.46 181.456C1310.9 180.752 1311.12 179.945 1311.12 179.036C1311.12 178.215 1310.9 177.511 1310.46 176.924C1310.05 176.337 1309.5 175.883 1308.79 175.56C1308.09 175.237 1307.3 175.076 1306.42 175.076C1305.33 175.076 1304.27 175.311 1303.25 175.78C1302.22 176.22 1301.37 176.865 1300.7 177.716C1300.05 178.567 1299.73 179.564 1299.73 180.708C1299.73 181.559 1299.95 182.292 1300.39 182.908C1300.86 183.524 1301.44 183.993 1302.15 184.316C1302.88 184.609 1303.63 184.756 1304.39 184.756ZM1321.12 209.396C1319.01 209.396 1317.21 208.868 1315.71 207.812C1314.24 206.756 1313.26 205.348 1312.76 203.588L1315.62 201.476C1316.12 202.825 1316.91 203.911 1318 204.732C1319.11 205.553 1320.4 205.964 1321.87 205.964C1322.96 205.964 1323.98 205.759 1324.95 205.348C1325.95 204.937 1326.83 204.351 1327.59 203.588C1328.35 202.855 1328.96 201.989 1329.4 200.992C1329.84 199.995 1330.06 198.909 1330.06 197.736C1330.06 196.152 1329.6 194.876 1328.69 193.908C1327.78 192.911 1326.58 192.412 1325.08 192.412C1323.91 192.412 1322.75 192.691 1321.61 193.248C1320.46 193.805 1319.47 194.597 1318.62 195.624H1315.14C1315.23 195.419 1315.46 194.847 1315.84 193.908C1316.22 192.94 1316.68 191.781 1317.21 190.432C1317.76 189.083 1318.32 187.675 1318.88 186.208C1319.47 184.741 1320.01 183.363 1320.51 182.072C1321.04 180.781 1321.46 179.74 1321.78 178.948C1322.14 178.127 1322.31 177.716 1322.31 177.716H1336.74L1336 181.28H1324.38L1320.55 191.224C1321.28 190.549 1322.14 190.021 1323.1 189.64C1324.1 189.229 1325.16 189.024 1326.27 189.024C1327.86 189.024 1329.23 189.361 1330.41 190.036C1331.58 190.711 1332.49 191.649 1333.14 192.852C1333.78 194.055 1334.1 195.448 1334.1 197.032C1334.1 198.821 1333.75 200.479 1333.05 202.004C1332.34 203.5 1331.38 204.791 1330.14 205.876C1328.91 206.991 1327.52 207.856 1325.96 208.472C1324.41 209.088 1322.8 209.396 1321.12 209.396Z" fill="white"/>
</svg>
